<mxfile host="app.diagrams.net" agent="Mozilla/5.0 (X11; Linux x86_64; rv:130.0) Gecko/20100101 Firefox/130.0" version="24.7.16">
  <diagram name="Page-1" id="t8FDmGlrOa6D-Kq4Ewwn">
    <mxGraphModel dx="1433" dy="1115" grid="1" gridSize="10" guides="1" tooltips="1" connect="1" arrows="1" fold="1" page="1" pageScale="1" pageWidth="850" pageHeight="1100" math="0" shadow="0">
      <root>
        <mxCell id="0" />
        <mxCell id="1" parent="0" />
        <mxCell id="LE7nOK1s_ql1IttaSKJA-44" value="" style="shape=image;verticalLabelPosition=bottom;labelBackgroundColor=default;verticalAlign=top;aspect=fixed;imageAspect=0;image=data:image/png,iVBORw0KGgoAAAANSUhEUgAABJ4AAAIwCAYAAADH1aFOAAAABHNCSVQICAgIfAhkiAAAIABJREFUeF7svQd0XNd1771RBo0A2MEGkiAJ9iZKokRRlERJtCSqd8uOa2Tne7FfYudLVvy9tT7n2X4pznO++MXLJbEVJ5FcohJ1UYUyrU6RFMVexN4rSIDoGACDb//3njMzGAIkAQEUy/+QA8zcuffcc38z96y1//jvfTK+/3ffb/vWX35L2EiABEiABEiABEiABEiABEiABEiABEiABEigJwlk9mRn7IsESIAESIAESIAESIAESIAESIAESIAESIAEAgEKT/wukAAJkAAJkAAJkAAJkAAJkAAJkAAJkAAJ9AoBCk+9gpWdkgAJkAAJkAAJkAAJkAAJkAAJkAAJkAAJUHjid4AESIAESIAESIAESIAESIAESIAESIAESKBXCFB46hWs7JQESIAESIAESIAESIAESIAESIAESIAESIDCE78DJEACJEACJEACJEACJEACJEACJEACJEACvUKAwlOvYGWnJEACJEACJEACJEACJEACJEACJEACJEACFJ74HSABEiABEiABEiABEiABEiABEiABEiABEugVAhSeegUrOyUBEiABEiABEiABEiABEiABEiABEiABEqDwxO8ACZAACZAACZAACZAACZAACZAACZAACZBArxCg8NQrWNkpCZAACZAACZAACZAACZAACZAACZAACZAAhSd+B0iABEiABEiABEiABEiABEiABEiABEiABHqFAIWnXsHKTkmABEiABEiABEiABEiABEiABEiABEiABCg88TtAAiRAAiRAAiRAAiRAAiRAAiRAAiRAAiTQKwQoPPUKVnZKAiRAAiRAAiRAAiRAAiRAAiRAAiRAAiRA4YnfARIgARIgARIgARIgARIgARIgARIgARIggV4hQOGpV7CyUxIgARIgARIgARIgARIgARIgARIgARIgAQpP/A6QAAmQAAmQAAmQAAmQAAmQAAmQAAmQAAn0CgEKT72ClZ1KmzLAo7PW0fsdbevs+K5u782+uzoW7k8CJEACJEACJEACJEACJEACJEACFwmB7IvkOs+ry6ysrJQN6zdIS0uLTJ02VQYPHtxu/Bs3bJSNGzfKlClTZMrUKZ/stamg06b/MvSftfiv0w7qTPdL7wgCUjePbTfO9H75mgRIgARIgARIgARIgARIgARIgARIoMcJ0PHU40g/focVRyvkyaeelMefeFyOHD7iHaY4dt56+y354f/5oXyw8oOPf7IOeqg8XinvvP2OLH1vqZw4caKDPU7eBFGnXYM41FWB6EyOwT4Qu9rSzpd68vS34q8zMro6oJOvk1tIgARIgARIgARIgARIgARIgARIgATOnAAdT2fOqvf2DEJJXBdpjbXKkSNHpLGxUZpbmv28KZrJ8ePHZe/evVJfV98rY8K5IXxFsiMyZOgQ6du3b+fn0XFltMUH15muk3Z9J3V2uvdPOgCaVmcnizuwMKbOdunG+ToYAjeRAAmQAAmQAAmQAAmQAAmQAAmQAAmchgCFp9MA+kTejjt6WltbJdYaO2kI2Ib32jUco/+qqqpk39599n5JSYkMHDRQcnNy24kwYZ/6hnop7FMoQ4cOlf4D+gscQRC1tm7dKps3b5acnBzZtnWbtMXaZMCAAbbP0SNHpba21tL/kAoIAQwCz6iRo6Rvv6RAVV1dbfsW9y1ulypYfUK3H22//WiF91kyuERaWlts/LG2mJSWlkr//v3tWvbv2y9Hjh6R4uJiGTZsmBQVFSUuHw6xmtoaO09zc7Ps2bNHMjMyZdSo+Jg6E6BOIssNJEACJEACJEACJEACJEACJEACJEACPUmAwlNP0uxuX2nCCEQXiECZmZkmJlkWW8o+sVhM8EjdVlNTIytWrJAlv19iwhHEmiFDhsg1866RG264wUSohoYG2+fV116VnTt3SlNTk4lLEyZMkHvvuVdmXjJT3n//ffm3f/832bRpk2RlZcmPf/JjOxbv33rbrfLmm2/K2rVrZdKkSbJjxw5ZvWa1jXPG9Bly++23y4yZM+z1ju075Mknn5Tp06fLAw8+YH3hOj766CN56qmnZNals+T++++X7Oxs63PlypUyvny87Nu3T9ZvWG/XN+fKOTJ//nw5cPCAvPzyy7J//34TnK6ff73ccccd5sZCe+ONN2TtOh3TxEmybfs2G18YE/abMWOGZGSmAKQQ1d1vKo8jARIgARIgARIgARIgARIgARIggS4RoPDUJVxnYWcVZ0IaGVxD27dtl7y8PNsW6ijB+ZNerwjCDQQjCDaTJ0+2Gkhr1qyRR/71EcnJzZF77rnHnEqrV6+WAwcOyPjx46VPnz6ybds2WbRokbmaRowYIf379Zfhw4dLfn6+5Obmmuto+LDh5jxCQ1Hzx371mJ0D+0+cOFEOHz4szz3/nFQcq5Bv/Ok3ZMyYMeZOevOtN23M99x7jwtPKvgcPHTQxLHsSLaJWaLfwM2bNsuvfvUrE8DGjh0ro0eNlg0bN8ijjz1qffTr18/OjzG/8eYbJpqVjiyVW265xca0aeMmeeyx5Jggih08eFCefe5Zc3D96Z/+qZSNKbN900U838ifJEACJEACJEACJEACJEACJEACJEACvUGAwlNvUP04fao4A7EGAtKWLVvkF4/8wkQXCE2hoDbcSKnt0KFD8tKil0xs+eY3vikLFy60VLXnnn1OfvAPP5B333lXrrvuOhOT8HvBggUybtw4yc3LtVS673z3O+YY2rtvr8yZM8dcSLt27TLBB/2NHTdWsjLVsRRvdXV1JhD90Vf/yJxPOO/3//778tZbb9nxY8aOOSUBu45QZwl76jUj/Q+pcTjf6NGjZcmSJfL3//vvLeXvq1/9qnz+85+XPgV9ZPDPBsujjz5qbEx4iqcY1tfX2zV99StfNVEM4hrGBOFqzlVzksIT3U6n/Gz4JgmQAAmQAAmQAAmQAAmQAAmQAAn0JAEKTz1Js4f6Qn0ipIohDQ6FvQcOHNiu5/yCfJFjyU27du6SdevWWXodRKjFry+2Nw8dPmROo917dsvBAwdl2vRplk6HOkhwAh3bccxWzcNxcEPV1tRaShrcSDgOAhTGgN+pDTWhkAKHtDq00WWj5corrrSUtz2797TbF06tjgqBQ1xLrEyn4hHSApFCN3XaVDseglZZWZld+4033mh1ndCmTJ5iTq2Kigq7DowN/eN9HJ8Yk4pXGBPEMPDBudJdYu0GyhckQAIkQAIkQAIkQAIkQAIkQAIkQAI9ToDCU48j7ZkOIZJAfPlv/9d/M8EoOHsgSv3D//cP8utf/9oKaKNVnagSpOXBNfTyKy9LJBIxQQauKaTpoUZTqHH00eaPZPHixbJx00YTnyDIwFUEVxVW0AtiEISvzoQa9J8TyWl3of369zNHVV19ndefir+L/kKKYHA5Wb8pjie4syCwoRB5aHn5eTb2aDRqKX+hQQiDKIb6VC3NLbbyHpqNSd9LbegPx6KIOoWndmj4ggRIgARIgARIgARIgARIgARIgATOCgEKT2cFc9dOAiEGohGcPSigDYdRaisqLDIhxQqMawsiEVLVbrzhRikoKDDhKTMrU7Kzsq0W04jhI2xlOAhW7y19z+opwT0EcQeFyZGqhgZRCIJWQnQKqWkpBc7tvbSUNYhAGFMQgnBeCEStsVZpbdEV+KAdxY9JOJ1SLyrtuQlWSMlLa+GasdkELdOwfF9wSzTdjtX/sD/G0pmIlt4/X5MACZAACZAACZAACZAACZAACZAACfQcAQpPPceyx3oKqWlBBLKOgwYD8SYu4AShZcCAAYIHajLddNNNUj6+vMOxLF+x3Ap7z5w5U/7q239l6W1HjhyRPXv3yIYNGxLHoBg5HERIZTPRKEV0wk5wViGlr7Gx0YQr/EZNKPzGOEKaIBxIcGLhUdCnQJqjzVJxtEJOnDhhQlBCDIJ+BMFLXVaJFr9e28/VJbvuIMqlp+9hTEgbhBMKLies4Ldj5w4bE9xYFJ46/EpwIwmQAAmQAAmQAAmQAAmQAAmQAAn0KgEKT72Kt3udBwdTwvGjIkxqqhjeh5sopNqhGPfMGTPltcWvybPPPit33nWn9C3uay6m3bt3WxrdlKlTJNoUtdS1lpYWSz/bt3+fvP7667JixQpzSYX+UMQbr/fs2SMoZA4xB6lwI0pH2AVBdHr++efNVTVt6jRbzQ6rzQ0ePFgmTJxg+yC9D6/Xrl1rYlf5uHLZsnWLjfHYsZQCVdgZBiq4qFJbijsqkaqn7+Pag0CVKj5hTC+8+IKl26G4+NGjR63mFMaBlEU2EiABEiABEiABEiABEiABEiABEiCBs0+AwtPZZ35GZ0wXYlLdQSGNLXQEgeeee+6RI0eP2Op2q1avMqEIIhNWoLvjjjtkypQpMnXqVLn++utl2bJl8r3vfS+RZofaThCyEg6qgQNk2rRpsnr1avnJT39izqg777xT7i29104JcQdOqV/96ldW1wmuIohTDz7woLmp0EpLS2XBjQvk57/4ufzsZz8z8QsNDikrFJ6mM9mbnbU0xxV288pRUOT8ILicsLreo489aueA6Ibrf+jTD8kll1zSWc/cTgIkQAIkQAIkQAIkQAIkQAIkQAIk0IsEKDz1Itzudj1w0EC5++67TVQpGVKSFGniIsu8efNM/Ln0sksTp8Bqdd/402/Iu+++aylmEIIGDRxkAhCEl0hORMaMHSN/+OU/lNGjRsv2HdslLzfPVoy7/fbbTTwaO2as9VdYWCh33H6HuZ52bN9hr0tHlCbOhZXmFi5caI6mbdu2CRxS02dMl2uuuca2oSG1buGtC6WwqFBWrVpl2yB8wZ21fft2GT58eGK1vLlz59pYJ01MOpP69e0nt992u4lHxiDexpePly998UtSVlZm6YCh2Zhu0TGV+Jgw9ktmXiLzrpkngwYNSuzHJyRAAiRAAiRAAiRAAiRAAiRAAiRAAmePQMb3/+77bd/6y2+dvTPyTGdEoC3mKlNYjS71oFB4u12dpJQdUN8IQlJBfoHk5iVXhAu7WKqdOoKQKgeBBq/R8Dq1oTB3Q32DFSmHswnte9/9njz9zNPyV3/1V3LbrbdZLSWcI7zfroP4C7iu0FAsHa21VetGaYPLCq2z86fvZztrs7pT2rKy/XiM6Zlnn5Fvf/vbNiakEcL1dKoxxbviLxIgARIgARIgARIgARIgARK4aAggftu8abOVZEFDrIeYcGTpSMFiVfkFHvddNEB4oWeFAB1PZwVz10/SkeAUeulMcArvQ3A5legCgam4uDgxqHTBKbyBWkp9Cl0sSr0CuK3wgODUkbCVfrVBcArbg+AUXnd2/vT9EsfHBafU8yDVDg6uMx1T+hj5mgRIgARIgARIgARIgARIgAQudAIVFRXy1H89JUuWLLE6u8gwQbyGTJnrrr3OslZGjhzZHoNVOGk7uS5v2KuD0igXOkdeX9cIUHjqGq+Ldu9Q6Bwq+MSJE81Nda60xJhUqWcjARIgARIgARIgARIgARIgARLomEB9Xb3s3LnTMmSuu+46Wxkdq5Bjwakf/+THtpDT5z7/OcsgSW3pq4qnvdnxydK3UqBKJ3LRvKbwdNF81D1zofPnz5dx48bJmDFjeqbDHujlXBxTD1wWuyABEiABEiABEiABEiABEiCBHicAUwEcTp//3OetbvCJqhPmgvqnH/2TLFu+TG5ZeIu9f+TwESuTUlRcJAcOHJDqE9WWjhdq8KJ8CxxUx48fl6zMLBk6dKgMGDDASqKgnMrRI0etNAvq8BYVFVnt4saGRluB3IwN+hpCGOoEo85xasOxNbU1UjK4xOoGs53fBCg8nd+f31kbfVhVr2xMmeBxLrUOxxQvxN6l1fPOpYviWEiABEiABEiABEiABEiABEighwmETJYQ3+F3v/79ZMb0GTJq5Cg5ceKECUx1/epk0aJFcujQIXNFvbf0PXNGfeHzX5B777tX9uzeI6+88oosX7HctqNMClYvv/aaa23RKZR2wcJXb771ptx1512y4FML7Eqw8NQLL75gC2ChttTLL79sKX733XdfooZvxdEKefKpJ20c999/v5QXlfcwBXZ3tglQeDrbxHm+s0NA1XOsCshGAiRAAiRAAiRAAiRAAiRAAiQQJ4A4SZvVDc6Mv9DXWKAJDiasCJ6Xnyd19XWy4oMVJgzB5QQHFN5DTagjR47IU089Jc89/5yvoq6riVedqJJly5bJhx9+aP3fcccdlrb3wQcfWL/oA/WD/+vp/zLxae5Vc618y/r16+392bNn2yrsaJs2bZKnn37aMm0gTlljmp5zOE9/Ung6Tz+4c2LY5/rNn5xHzwlcHAQJkAAJkAAJkAAJkAAJkAAJfJIEUKsJolNTU5OlyO3ft9/S6F588UVzLs2cOVNKSkosRQ77wQE1ffp0+frXvm51n7Ij2bJ8+XITnSZMmCB/8Rd/IRPGT5AT1Sfk2WeflZ/97Gfy6muvyuWXXy5zr54rN666UZ5//nkTkgr6FMh7770nCxYskCuuvMIwwPn09jtvmxgF4Qmru69bv87Gdu+991r6njXGdp/k1+Zjn5vC08dGyA7OGQLnuhB2zoDiQEiABEiABEiABEiABEiABC5GAlidDul2W7ZskZ///OeWRgcHEwSmm2++WW6/7XYpLCy0Wkxo48rHycJbFsqkyZMSuH7zm99IZWWlpchh4Sk09LPgxgWWXoe+d+zcIddee631t3LlSnn8icdtZbzSEaVyx+13mLiFBqFr8eLFsnbdWjt/TU2NrFu3zuo+XaJOqsyszMR5+eT8JUDh6fz97D75kZ9rqvO5Np5P/hPiCEiABEiABEiABEiABEiABEjgJAKhxlOfPn3k0lmXythxY2XevHlSVlaW2Bf7DBo4qF3h76bGJhOdcBxS71IbxCJsW7t2rdTW1Npb06ZPkyuvvFJ++MMfSnZ2tjz04EO2LTTUlkJKHVLyNm7cKIcPHzbhae7cuTJxkota7U7CF+clAQpP5+XH9gkNmgW7PyHwPC0JkAAJkAAJkAAJkAAJkAAJfHwCIdUOTqU/+qM/spQ4OJwgCqU2qwGlD9Rpysxo7zrC9lgsJi2tLe2OwQp4eKDQeHAqIWUuCFU4R2VVpVRVVkl+fr4dO37CeEu3g4tq6dKlUltXK3V1deZ2Gjiw/Up3H//q2cMnRYDC0ydF/gzPe/DAQdmwYYMcOHjAbnoozpOnTJbRo0dbD8jHhTIcbYrKlClTpGxMWbueP9r8kWzYuEEmTZwkU6ZOafderDUmW7duNUUZ+bkzZs44aVS46bdu2Wp2SRR9w+oEkydPNkU8NzfX9scymygAd+z4sXaTUqwtJlMmT2lnyzzpBNxAAiRAAiRAAiRAAiRAAiRAAiRwdgholgiEIxTtHlIyxFLkOlqUCel4YQW81IHl5uVaTFpVVWUr27W0tCREq127dsnu3bstTQ59o07UKy+/YnWdPvWpT1kNKayEN+uSWfLAAw/YKnZ9+/aVWbNmyQsvvCBLfr/ExgYHVKor6uyA4Vl6kwCFp96k29W+U2oU1dXW2aoAz7/wvFX6h1IciUSkqKhIJk2aJF/8whdl9hWzTXRCAbd9+/bJXXfdJV/+0pdl2PBhiTMjn/aX//ZL+exnPuvCU9y1dOToEXnnnXes0BtWHvjKw1+R6TOmo9ScH6u/YI98bfFr8p//+Z9meYTohFUMhgwZIl/4whdk/vz5Nsns2r1LHn3sUSsIhzHigQkD72E8qfnAXUXC/UmABEiABEiABEiABEiABEiABHqGAJxKeJiTSR/WEAKmZbdgnyA8oTZTakN8N2DAAHnl1VekTFPzEJ82NjVaAfGdO3fKnXfeKaPLRsuG9RssnoUQ9bU//prs3btX/uZv/0ZefOlFczmFOBHFy/F47bXXzH31xS9+UcaNHdczF8xezgkCFJ7OiY/h5EFAxPnh//mh7N23V6695loZO2asCTkVxyrMAbVmzRq5ZJYuW6lKM1xL5npqVteTOozuvufuRIewKh48eFBqaz3HFpPKpo2b5Mknn5Rly5fJjh07TJU+XnncJpu2jLaE+PThqg/ll7/8pR2LAnBjx46VNWvX2AoGWD6zvLzcJpqG+gaBup2Tk2MrFEA1hx0TKx7AHcVGAiRAAiRAAiRAAiRAAiRAAiTwyRNIGA1OM5SMTDckQHxKP2b27NnyB3/wBxZT/uAffiCjRo2yFLuKigqLXe+9515zQkF0OnbsmDz8hw9bdg3EKJglsILeokWLzDABx9PIkSOtyDjcUIglkWbXp7DPaUbIt88nAhSezqVPK242wqoCUIH37Nkjn37w0/KlL39Jhg8fbiOFCLRxw8ZEmlsYPuyISJ373ZLfWZ5u6cjSxJXBfZTaVnywQjZt3mR2R6TQwdEEtTtMLtgXtkg4og4dOmS5v5/73OfMjokib8jRRR8oGgfhCQ0TEiySX//612XYsKTjqt2J+YIESIAESIAESIAESIAESIAESOATIzC4ZLDcd+995noKK8vZYNqHjFY8/JabbzGDwvARHovafmpWgIMJqXKlpaWyds1aqamtsVgR+8+9eq4ZFhDTwgmF51jtDjWd8Hjo0w9ZAXLEt+ao0v95eXlSNrpMhg4dKlOnTpWp06Z+Ynx44t4hQOGpd7h+rF5x80L0wU133/33JUQndArr4RVXXpHsX29UCEtIe8ONjPzZt95+y25oFHSD8yghPMEhqRMKXFG4sS+ffbn88l9/acXf0vN6kVoHJxXU6yuvuFIK8gvsnEOHDbXjX331VdmxfcdJ15muhp+0AzeQAAmQAAmQAAmQAAmQAAmQAAl8IgRQsPu+++6zuDDdoJA6IAhJC29daJssXkxrKL9y9913y6233ipNTU2W/RJqACO2LBlcYiYKiEuo5RQa0uvKx5fby+ysbN1Vd46JuaXgmpo2dZqUjkiaKNLPy9fnJwEKT+fg57Zt2zZzOyFtbcyYMaceYVyZHlk60pxOqNe0ZMkSmXPlHCsAjoabHYW+cVNDGILglGjxCccEo7gwhfdw4+MB1XngIF1NIEUB79e/n6X9wfmEyQETFh5I2YNlEvm+AwYOkPHl49vVmzr1hfBdEiABEiABEiABEiABEiABEiCB3iaQmulyqnN1JDilO6MgOOHRUYPg1K5AeTzeTF1BD3EoFsxatXqV1RRGUXEUMGe7sAhQeDrHPs+2WJsVEjfro6rEnd3EqcPGzYylLC+7/DLLqV308iJbEWDkqJHtrq4zRRvb0wvGYcWBmpoaWz0voVzHe4P6DXcV0vEaGxtNlILYBDslzg3FGw0r5T300EMy+/LZJ1k3zzHsHA4JkAAJkAAJkAAJkAAJkAAJkEBPEEgxLbSLQVO2p54GdY0hct15x50yc8bMnhgB+zjHCFB4Osc+EAwnrDKQqgTbMKEQo8GchHzYtDZ40GC54YYb5J1335HXX39drp57dVLwOXl3Oxr2xo4EKdSLgpsJE0BC6Q4KtR6DbeaiUqEM4hRW2auvr7daURCt3l/2vrmfUJMKBeLGjx+fPly+JgESIAESIAESIAESIAESIAESuMgJoEbwZz7zGUEWT6htfJEjueAun8LTOfaRwvZYWFRowlJ1TfXJo+tEJUYtJwhSWOkO4tMzzzxjhcbROhKWEh3rMe2W0Yy/AZcT3FbNzc32SDSk4KobC6JUXm6e2SAhPOGR2lCEHI6ppUuXClboKx9XnixenpLS1+4gviABEiABEiABEiABEiABEiABErioCKCuMB5sTiCYTE4Zx59nsFStYDsnCKQ4kgYNHGSpbKiZVHG0Ijm8NMtiR19EpLxh1QCsUPDmm28K6kVBWEqIS2kXC8Eq8V7KGPLy82wMSPs7fuy4H4Xz66Oqqkqi0agU9y2WSCTSIT6sXjB2zFipq6szJ1SideK86rATbiQBEiABEiABEiABEiABEiABEiCB7hBg7Nkdar1yDIWnXsHajU5TRCUsOzlx4kQrFP7+++8naiaFXo8cPiKHDh2yNLfQkPYWUvGwGt7186+XHTt22Cp3cCzZ+6Gl3IAQnSBg4V9qnSfYHfFAkfPde3YnDoWLacvWLSZKQVjqrB07dkyOHT8mRUVFViQuUcAuLl51dhy3kwAJkAAJkAAJkAAJkAAJkAAJkECPEDgPxSePzlMEgh4B8cl2wlS7T5Z/h2efPGWy3HjDjfKLR34hP//Fz+XQ4UNmPcyJ5JjbCPWTULgby1Oipdd76tuvb6LWE1xPffv2TZ5Hbzy4mA4fOSzN0WYrCA7h6dCRQ7Jp4yZbrW5wyWATnWZdMsuEryeeeMLOXVpaKstXLLf0uWnTpsn0GdPNzbR61WqpOlFlQhQKj1dWVcri1xbLypUrbaU9LInJRgIkQAIkQAIkQAIkQAIkQAIkQAK9TgBiEw0PHw9zEOx6SP+i8PTxPo5eObpPnz5y2223WWHulxa9JD/60Y/MNYS0NhT1httoyuQpCRcRhCOr8RSafkmmTJ0ity68VTZt2mTFvlPrOGHb4088Lvv377elK3Get956S+BSgrh0/333y5yr5sj8+fNl46aNsnjxYnNPjRgxQg4ePChDhgwx0Qt1neCmWr9+vY0T48bYII4dPnzYCop/9jOflXHl43qFEzslARIgARIgARIgARIgARIgARI4DwkEcag3ht6BWHL06FE5UXVCBg8eLDBqnNOtg/Gf0+M9g8FlLViw4Dvzrp53Brtyl7NJYODAgTJx0kQZM2aMlAwukYGDBprQc8UVV8idd94pV199ta0Wh/S6fv37yaWXXSpjxyVT33Jyc6RkSImUlZWZc2nevHkmHKHV1Wrdpbp6KS4slvLychOZkJ6HmxDnmDx5sp0PYxhdNlqwWh5qPhUWFsqlsy6VB+5/QObMmWPbItkRycvTIuNajBziFoQxuKWuu/Y6eeDBB2x/FClnIwESIAESIAESIAESIAESIAESIAEjcBbFFdQdfvaZZ+V0HELsAAAgAElEQVT3b/zejBYwUpyNtm3rNlm+fLmdasDAAWd0ShyDrCOUwUE8ftaa6goNjQ2y5aMtsnPHTovxC/oU9Njp6XjqMZQ93xFuCIhMCxculKbGJnM8YRW51AZn0/gJ49uvXBe/iSEifeELXzhpYEjlw8PaKZTmzKxMS6lDWh9u1qzMLPvyIR0vNNtn+jR7YIyNTY0JIeqkE3MDCZAACZAACZAACZAACZAACZDAxUWgh9O2ugoPQgoydCyeVsPE2WofrPzAytY89OmHpHx8+Rmd9sNVH8pvfvMbefCBBy0O76j11qp3tTWacfXSS3Lg4AF5+OGHZdDgQR2dvlvbKDx1C9vZPQg3SGerx2Ekp3rvtCM9A6UZjqUzcS1BFEsXxk57fu5AAiRAAiRAAiRAAiRAAiRAAiRwQRFIF0fg4EHR7A5bLwtTKA2zb98+uefue2TU6FEdDuG0G7sxRpSgwWJdKH2T3tL5hPch/mCsqKHc2y11DPh8WlpaZMfOHVZeByV1erJReOpJmuyLBEiABEiABEiABEiABEiABEiABC4EAt0QWzq8bNWbOhWdOjyg+xvTBZ2qyipZs3aN1SKeMXOGZeecaUvv60yPS90PfbRbYf50nYCV1nC2zKROspPs/W40jMU+h1Mc3t2+TzccCk+nI8T3SYAESIAESIAESIAESIAESIAESOACIHDixAlb2bxf3362+vmhQ4dsVXK8HjJ0SDth5mjFUasP3L9/f3PgVBytkOEjhltNXzSUWjl2/JigcDdEEtQMRi0jiDvpAkZlZaUtboVjBg0aJEOHDU2mvakQgtXS0T9WYEdpF4wF500t84Lz1NTUWA1kiDl79+w1Z87IUSM7rYe0ZcsWWbt2rS18NX3adBs3FtWqqKiwYyBI7du7z0rLjBw50lZ4R8NiWdiOjB5sb7dSvO0hAncSFutqaGiQ4r7FUlJSYgtuWVMeWAAsschXiojUUN8gR44esWtFjeTSEaXtakAFwStVIGptbRWIaHAjwZkENuCdWoep8nil4DMbMGCAMQ4tbO/fz48J27HKPVa7P1ZxzMaNzyxx7sTRPfOEwlPPcGQvJEACJEACJEACJEACJEACJEACJHBOE9i9e7fVHRo6ZKiJJW+88YatSo6Fq+ZfN19uvuXmRPHtN998U1Z9uMqEF6x2vnPnTrnv3vvkoc88JNUnquW1116Td959RyBmoWEl9qvmXCU333yzDBseF6eammTNmjWyaNEi2bp1qzQ2NpqIs+DGBfKpmz5l4snevXvl5UUvy7Lly2zFdROeSobYAlnXXndtQkR5++23ZeUHK23V9EMHD8mq1atMhMFiWvfee6/VHU53CyHNDiITVo0fOnSojRPjeeWVV6zQeKw1ZueFeIT6xnffdbdqRm3yzNPPyPoN601Ew8Ja2B4W84I4s3nTZquHtPmjzRKNRq38DcZx2+232QJhEI2C0yl1BXoIfTg3rgUpeBCeJk6YKPfdd585srBvO5eUClb4fN5b+p59VhC6cM0FBQVy+WWXy6233iplY8rsujZs3CDPPPOMXHPNNXL33XfbNjRc7zPPPiPXz79e7r7Htx85fMQ+vzfefEMgCkJ4Gj1qtOD7cSZldhKdn+ETCk9nCIq7kQAJkAAJkAAJkAAJkAAJkAAJkMD5TADul/fee8+cMZMnTTbhB+6ZZcuWybp160xowerkEHA2btgoj/3qMVv5fPjw4TJq1CgpLCo019GLL74ojz72qAlWl156qTl8lr6/VFavXi3R5qh89rOftVXRIdD8/Oc/l+3bt8tll15m4tS27dsEhbenTJliKJ984kl5/oXnbRX2mTNmmiDz/rL3BYW20e66+y4TaDZv3iy//s2vZezYsfaYMH6C7N6z20QVpJBB7EpdCQ7OrtVrVtu2S2ZeYn2gQbxZvHixvcaK7iNLR8qhw4fsmuCOwrXi+idOnCgQrv7jP/7DruXhsoftmO3btssjjzxiYhyuHf0vXbpUHvnXR0yE+vIfftmYoqU6iOD2eu3V1+SXv/ylccOYwGrT5k3GbcaMGXZMQjzT57FYTN555x352T//zPo2hioYQkzCZwOh7otf+qKJhRDj3nrrLRPt/OToTGTP3j3y+uuvJ5xq+KwgGP7kpz+x67nqqqtMEHzzrTeNMV73dKPw1NNE2R8JkAAJkAAJkAAJkAAJkAAJkAAJnIMEIITgAYfOTZ+6Se666y5LJ3v66aflRz/6kTlg4JgJjiWkg+H1f//6f5dx48aZ02bDhg3y5FNPmnjyP/6f/yGzZs2yPuHi+fv//ffmBIIbByuw//6N35ug9cD9D5ggU1xUbGIRRCGIXitWrJAXXnzBVnD78z//cxlfPl6qa6rl+eefl5/+9Kfy8isvy6WXXSplZWUmbmE81157rfzJn/yJiUYQx/7XX/8vWf7Bclm4Y6ELT/EaRhCNNm3aZALPpEmT/NOIp8AhRQ9C2pe/9GW5cs6VsuWjLfLd733XBJrPfOYz8uf/959L6chScwX94Ac/sGuGywsCFPZZvmK5uZRwfN9+fWXN6jXyne9+R3635HfGa/YVs228qWlzKNyN64G76Jvf/KbMnTvXxKS1a9ZKUXGRjS/hksrMtNdwID373LMmDP3xH/+xLFiwwBjiuv727/5Wnnv+OROsbll4S7KWVKjhFH77lSd+Qnj73e9+ZwLX1/74a+bSamxolCeffFL++V/+OW3vnnnpV9MzfbEXEiABEiABEiABEiABEiABEiABEiCBc5QAxAY8rrziSrn99ttN/IELCWLO9OnTTehA6ps1FS7gpLnxhhvlyiuvlJIhJeZ4gugB8WLuVXNNFMrJzTHxas5Vc2T27Nl2/I4dOwTuKuyL1Dq4aOAMiuREpLy83ESXEaUjZOPGjSYmIa0ODqPMrEwTtHBOCCrbtm2TXTt3JWiijtL8+fNl5syZlhKGvpDahvpPqJsUGuoXQdBB7aaZl8z0GkpxIQYuIhyLMUEkghBUPr5cyseV2/VeM+8amTR5kolMEMLgxEI62vHK4+bGgtMJ/SLlDS4vpM6h9hL2Rx2rvfuS/BID0idwSoELruuK2VeYuwwiEq4d1wPeqWl5OBb8IHpdcskl8qkFnzI2YAS3GNIawQ4OstBM6EI9qbSW6rxCyiRqX+Hznn/9fPt8UFMLaXvmXuuFRsdTL0BllyRAAiRAAiRAAiRAAiRAAiRAAiRwrhIoKiySoiJ12cTFGBSkxmPPnj1S31Dvw1YBA9sg9kDsCA1iBxpqJsE5FRqEF+yLQthwLUGswQOC08BBAxP7hSdIPUNfEGBwntQGkQspY6tWrbJ0MjS4gSCSoRB6aHn5eVYgvElrSUWboont+w/st9XsMMZQVNzejF8vxLe83DwTwtDAwvpWYadf/2T/WdlZlo4GZxIeqGeFB64LrqHly5dbTSo8UL8JhddzIjnWJ0QknCe4mHCtqCWF64KAZ60TV1LiGBW7IHLhGDirQsvIzDAxDedFkXO0RDHz0GeKAGXpe/GGYvK4BhQgHzQwWYQcHPHAez29CiGFpwR+PiEBEiABEiABEiABEiABEiABEiCBC5dAqvMFRbRDQ+oZHDwQMrIyvRYS3jPBIk0cwUpt6KelteUkUC3NLfZedpZLDTger+EyOqmhawgz+l76+xgP6h8FUQfHBmElsVJc2KYCT3pbv2697Nq1S6677rpEUfD0fdq9jqNIFWjwPgSY1G0QfPAaog0cR0jHw7VinBDn4GCaOnWqdZ1eXByvIcqlX2tH4wrOp/C7o2PweWEsCVFQeRpLLZieaGFbKv94CiBWEoTICMcaGj6n8P1I/W50NL6ubqPw1FVi3J8ESIAESIAESIAESIAESIAESIAEzkMCQURBMW0Uo0aKGdrePXstRQ5pV6nOmo5StyC6QPyBsINC4+ac0oa6TTt37bTXcBqZe0gfSBXbt29fopg49kXKGnSvwYMGm8MG6XRIjwsOJPSNBxxUeISWLgxBIEkVTLBffV29FRWHCIMUtTC+RCf6xPpJFdTiz03ISRGy8BqPcI7+/frLgP4DzOl1xRVXWG2lTltayhuOg6MINa6QGog0RzQ4uiBw9SnsY2JVEH/AB04wOMlQIByOqrAyH1xQe3bvMcFr+LDh1g/SBzFW8Gyob7BzoXZTxdEK+5yCzojC5+gX/eE7EBxkhw8fts/QWtrYfWP3f1J46j47HkkCJEACJEACJEACJEACJEACJEAC5x2B95a+J7/9zW/l9jtut/pMWNEN9ZTuueceKS0t9euJO5LSLw5FvVGYe8mSJVZjCXWdIHi8vvh1KxaO+k1w/fQf0N9WzsMqeq++8qqUDC6x4uQ4D4QvK0CutYpQV+nV116VsjFlVncI4sdTTz0lqEWEOlSjy0bbENqJMmFQcO/EVZLgMIJghYLmWI0P/bVrKYJKej0lCFHmzlLxBy2ITeE3xCGkyE2bNk3efudtWfTyIksjHDlqpIlc+/ftt5Q/iHkQiCDOpQpcKKA+fvx4effdd+WZp5+R66+/3tLosGrd8BHD5bbbbmufnqfjQa0pXAMY/udv/9MKgUeyI/L+++/L67973fhDXEMbOmSoiXSrVq+S3//+91JWVmar5S1+fbGdJwhtWBEQx73xxhuyaNEi215TXWPMkdqIYvE27h5sFJ56ECa7IgESIAESIAESIAESIAESIAESIIFznQDEi5WrVsrGzRtNNEFRcQgYd9x+R7Lekoo0qcJJuCYITw99+iF55F8fkX/5l38x8QIiCwQjiCSf/cxnrXA42sKFC83t9P6y980NBRcO6iOh7hJS1VCcHKvIPf744/KP//iPJpZUVVVZXyj8jZXjIO6gJWoYpcKFONbOuiSC1exQ7Pvuu++WkSNHpu6deN6hsJLm8kl1OuFACFxwGN14441WXH3J75fI3/zt31hdJ4hTcBXhuiCkQQSyY1KKfY8dN1buu/c++clPfyL//h//Lm+9/ZYJVeDx4AMPthtnEMVGjxptKwLCnfTEk0/Iyg9X2hjAFFw+97nP2YqA0N4gat18083y2K8fkx/8ww9MQAzpk8EphZPgOT4XiHOPPvaofLDyA+szNze3nejYbkAf80WWLsf3nXlXz/uY3fBwEiABEiABEiABEiABEiABEiABEiCBc5nA7l275c0337SV1SCCoB4QxCC4lD794KdNfEIxbTTUIxo1cpQ5moL4g+1Ih4OgM2bMGKtplB3JtvexGhwEqRkzZyQcM0jLg8MGBbtxLqwgd/nll5tAMmHiBEvtg3uqdESpFPQpsHOPLB0pt9xyi9x/3/22T2jNLc0mjOB4pOgFvQkOpbLRZZb6hhS4/3r6vyyVDcfD2dNOl4q7mjBerOAGt1Jq/xgLrteKbsP0o4/cnFxzbsHphPEjfXDM2DHm4IJgg+uCkwur8s2ZM8fOCRGnNdZq48R5IMTh2uBsAg+kz6GWFkQg1WTk+huut7pRYI7fuEYwgfg1dNhQmThhoiDNr7Wl1cYw+/LZ9nnhc0NxdowTnyP6t6LvKiwine6G62+Qmz51k0AsxGcOTqhTNWzoMBsH+CNFb9zYccYL147tM6bPSBZATxDq/pOM7//d99u+9Zff6n4PPJIESIAESIAESIAESIAESIAESIAESOCcJ/DG79+Q737vuyZc/M//+T9N2IDYATEjdeU6XAhEDggaiWLjHWRfwVGDOkIQYLDCXKLBPZS2P1ZfgxgTRJf091FQvLGx0VaFQ/pfesM44SCywuUpfYdi2hBUPljxgfz13/y1CVTf/n+/bSIMnErmioofA4cX+oJLK4hsievVJ4lt8f2NA7brCnfpDSvpYaU6CF75BfntUtQwLpwH/aWzxbXacSoQ4bjQQvFxO0bHl9pw7WCIzwwME62Dz6Wu1lPr8LmiJT7LuKgYjkUxeDDH+MG8Lea2L7DsycZUu56kyb5IgARIgARIgARIgARIgARIgARI4DwhAKeOtQ50BhNgwva0NLRweRCcUPfIyiylik0d9Gf7oaX2lXIMxA88OmupIlHqPqmiDgqkQwxDnSKkvJne1KbFwYP4pAdC0EkXddBfR8LSqbbjPbiFwqpw6ePGuNIFp7BPZ9eKa+zsOiE4FRV7IffEuTr5XFCoPLV1dm1wqxVGkiJWTwtOYQwUntK/HXxNAiRAAiRAAiRAAiRAAiRAAiRAAhcgAaRloSYQ0sFM5OlAIEpcdup7p9qvq5x6q18dx/gJ4+XhP3xYps+Ybill1iA+nfJCu3oBKfv3JJfuDOOTPv8ZjpnC0xmC4m4kQAIkQAIkQAIkQAIkQAIkQAIkcD4TKBtTJl/64pfMDXQqd1GXr/EcEUBQ3Pykley6fDE8oKcJUHjqaaLsjwRIgARIgARIgARIgARIgARIgATOQQKoeZS6wtk5OEQO6QIk0L5a1QV4gbwkEiABEiABEiABEiABEiABEiABEiABEiCBT4YAhadPhjvPSgIkQAIkQAIkQAIkQAIkQAIkQAKfCAGskIYHGwmcDQIUns4GZZ6DBEiABEiABEiABEiABEiABEiABM4FAmEFunNhLBzDRUGAwtNF8THzIkmABEiABEiABEiABEiABEiABEggTgArvWWcIxXB+aFc8ARYXPyC/4h5gSRAAiRAAiRAAiRAAiRAAiRAAiQQJwDRSf+xkcDZIkDH09kizfOQAAmQAAmQAAmQAAmQAAmQAAmQAAmQwEVGgI6ni+wD5+V2gQBl2S7A4q4kQAIkQAIkQAIkQAIkQAK9RiDWaz2zYxLodQIMrXsdMU9AAiRAAiRAAiRAAiRAAiRAAiRAAiRAAhcnAQpPF+fnzqsmARIgARIgARIgARIgARIgARIgARIggV4nQOGp1xHzBCRAAiRAAiRAAiRAAiRAAiRAAiRAAiRwcRKg8HRxfu68ahIgARIgARIgARIgARIgARIgARIgARLodQIUnnodMU9AAiRAAiRAAiRAAiRAAiRAAiRAAiRAAhcnAQpPF+fnzqsmARIgARIgARIgARIgARIgARIgARIggV4nQOGp1xH38gnatP82/GAjARIgARIgARIgARIgARIgARIgARL4WAQsxv5YPfDgNALZJHIOEQgCEn7ji57ZiS6YchO06b4ZGRl+ETguPE9cVnxnbO/w/XPo+jkUEiABEiABEiABEiABEiABEiCBLhOIxWPJzBD3icZ/8TAx0VmIN0+KGbt8ugv7gBBvg19nzy9sAj1+dRSeehzpaTqMf3FjErMdMzMypS3WKhnYHgSnVn2vDd/yVhefbIKAqBQXosK+ujUD24NApf2Y8GQTSbhDsJO+zgoilvaN/U812eDQ9ElKN7GRAAmQAAmQAAmQAAmQAAmQAAmcewQgOMGU0GE2TDAgpMaAIVxk3Hfyh5nKRJ8bPuxFViezOsMtFJ7OEFRP79amwpAJThlZkgHBqKFRoidqpb6qWhpq6qStuVVys7MlIytLWltapbklKq02kfiEkqUDyszKlqzsDMmO5EhWxD/KmO4bbWmWpuaoPbJUrCrs11f6Dh4oufpb8nL1SIhVeteEm6iTG6gtBnFMz6fvm3Ke3s6yQNUWU3cXxhCEtY4mztQxpgzZjsX+HVxG+mXxNQmQAAmQAAmQAAmQAAmQAAmcLwQsrsRgNeax4C3EjfELSJgVEL8Fs0NafIf4FM29DhoHhpjLYj7EUTAvhOfnaVBlho742M/TS4h/pOfdLwpPZ/sji88DsELadz3aKI1Hj0nlzt1yYPMWObh9t1RWVIm0xKQot0DNSZlSH20yMUlMCFIflM8JkqWiVF5OruSq6JQbidh7jbpffTQq1Y11Ut3QIK16kr59i6Rk+DAZOqFcho0fLwP1efHgQZKZl2NzSKwt6b6yTsK9qJOLj7OH78r4+LsuAmE6zDjDw9qrYol0RLtANhIgARIgARIgARIgARIgARI4fwk0t0Y1lssUtSpIRmuLxpVRiVXVSuOxKmmsrVcjQ0yysyKa+JIhza3N+mi1nBv7g3w8HsvQrJgcjSWzI7kad7rhoFVjw2hzo5oYmqWlpcX+eN+nWI0MJYMlp1+xGhlyPJvGxCiPExFPIpMn0UK8F9+QCP9Sw8pux4Td/MwSgpse31F4GxelPDMJMafHnbZZ20nX2M1hXKyHUXg6m598uMH1i54lemOqO6lq127Z9t5y2bVqrRzZsUdOHK2U+saoZGdEpE92jupPbdIU04lEW0Qng2x1SMH51Aw1W2+GLL3Zs7S/bH0P/1raWqRRJ5UanSjqdKKobWnSCaZFClSgKlTXU+mE8TL76rkyfd5c6T9quGTkRvQoTfeLp/7hPLipsA3zSLrTKdx4Nsd0dMOejmfqJOSXcLojEu+beASRLN4HxoLJ1hX49G7SBtedsaZ3ydckQAIkQAIkQAIkQAIkQAIk8AkTQLxmIRFio2iLNBw5KpV798nRjWpk+Gi7nKisljZ1KxRm50okO0uNCWp20PgQR2mUZ/EkBKbsTBgZciQ/N0/3c+EoqmVfahob5URTgxsZdP+BmjkDI8OgCWNl2MTxMmDEMCka2F+y8vIsJoToFGpMBcEmIArhX1yj8s2JjT0EMjXG7HbcFw7032G8YWvcNtJDA774uqHwdLY/c73JkXsLQafueKVsXr5CPlj8uhzculuyNb0uKwOadZbkZGoand7AGZlIEdN0PP0H4QnbvOEWyLAbPGGL1C2Z8X0hSOWpIyonq01FKFWvdeI5uPewHDhcqec9ITGdoC694VrpO3KYZORo//E6UW2YxDCBaYMa7ip2cmYI79mEgrsR/1PV7TSewU1l/cGvhK4SE4O+1vOe6vhEd1CZkJKI8el5E8e0m8F873BOE8/8xH7S+HjThsiXJEACJEACJEACJEACJEACJHBeEcjWeDFTS6tU7dktW2Bk+HCNHNuxT6qOHJO6pqa4kSFi8WIDHFEahCGeRMWVmKbjQXhCuIfXEY3JYGZAjNeq7zWq+FSnpV6qzcygmTfaIpEMzZpRI8OkCXLJ3Lly+byrpP/I4SI5KikgptN/Fu8FpSZOM+2lb+1w45m5ik7K1kGP6A8xZif92knjA0vEurqpnUsrHJsqYtmB3uKRZcoWPu0KAQpPXaH1cffVL3NM3UhoGToBVKgqvXHFh7Jry3aJNbRIflauRE1IiumN36rCUbaJR8k7CHeDu5wwQUBYQWvvVlLVOkvrPKl2hMkEjil3R+mckJkjDU2tsn7dR9JU3yTNdXVy6YL5Mqis1Go/tcU9l1mqfJvrSW86bIPABLGsrc1zh03o0n3sOnB3x4UqH4tt7LihD8xumjJoRdVtdvD9wwQQNqV2YN1h18R59EgT5PQd8AyTCHbCWBOdQJfG0bgQP09qv3xOAiRAAiRAAiRAAiRAAiRAAucTAdThtShQ4576Y8dl67IPZNmrS7Rkyy7JbUb8AxFJ0+fsEdHcl1YVliA6aZaMxmCIw0IcmWpiQJcwOSCGhAgFkQqCVI7GfRCfMjSOO7jvkOw/UiG1FdV6rphcMn+uFI/SWDIHhgkPA2MwC3QSENqK7DAU4LeOP8OC2hDTxmPDjj4Mi5H9OMSNrcoAxyNutX7CyS1mdRNFIjMm9Bc/rxkZcP54PHvy6TxwDKl1YKT4/JLicefJx3DL6QhQeDodod54H/eM5uBW7jsou7bvlZqaRhme39eEIaTJZalrKV9Fp0JNteuXE1EROctqxMXi6XWQUlxT1id2f7rSEwQX3ENNejNmq7AElbq6uUXFpwzJ1Tdy9eau1lS+tWrDrK6ulsOHDsnUOZfLkNLh0kdrQSG/F4o1akvZObAaHiYRHQC2ZaGWFLahmDlEMdN1dBDxm9CEHmyLbzdxCG4q1KeKi06aNCwxWD3VddWsKn2L5hyjKHprXJTDFdm5bRLBtKivbJ5pszzjRrWKtqoKnxHJ0nzjYukzYIBk98nXseJcfn4zaykcO38gFCYM28JGAiRAAiRAAiRAAiRAAiRAAucXAQhAEJ8Q5hxTI8Om5avMyKBFmTQ8y4u7mTQzRsWYfI3XCrTOU36Wl27xK0V8paKUxk3+R3rfmvrHe03EUyODlnHREK5KS7lE9ZzYF/FqXWOLbFy/WVo1Ha+xtkZmLbhOjQyjJSM/R80BiMF0YHGhKGTVuA8AopOey4SheGCGA1DyxcQwCyA9tgwfCS4SsaY2vG8Lv+tYkA9kXQQTQtxAAdEp1K9CDOuxMgJDfYHzghv6sn4xDpxbnwfhCrGniW9aD8vOi70xBC9FE4ZtG9m6RIDCU5dwffydTUzRbtpUDKqvqpQmLfyWrxMEbuKY3nhes8nWHdAbPGZCFNRYFHvzL7+n6cECiZ3QG0QWuJ7wHCl8EImgZiOnt28kT+p1xmjUVDv0h32LVVxC7actu/fI/uMVsmbNGikfPUr69e1nq+iZ6KSPiE5S2baynvYJ0UpFsNz8fMnO1eJzaqlsy47Yfhm6sl6GKup9i4ukWPN/UfQ80fQeN0FJz32i8oQcPXRQWhvUbVVfb0XvmhrrTYBqUeEJohIalHY80DeuzBR7nTkwATQqtxN1NdKkdtE+OpZhpcNk5OTJMmD0cCuYnj9ooE16bsHEXwOUCfiYOOa8koPjMxIgARIgARIgARIgARIgARI4fwjYyuMI6tSFVLX3oOxWp1NdXYMM0oWp8rNyNE6CswlGhojGgxE1MmRr+ZU8X+xOLzMWU9kpxFt4HRdYIDzZH+818wY6TDSmxcv134nmJqmKIgUPxib0m6U1oJplzYaPpKq6Km5kmC2D1PlUWFwo2VozClFcJtwQGsNavBg3AyC2tNXYES/qcwRq2i3CNDMrWJyM1/H9sc0X2HIBKEMFoCyNG9W94DGkGhoQQ4YHLsDK2iR6ck0Jxg70C7GpWY9tVJEOMSrGUqBjLhowUI0MBTomH7Ptav+QqeOuKmxj6z4BCk/dZ9e9I/UmsjUYUHMAACAASURBVLQ1OHYamqVAb/yi3D56a2SrQNQquSry4IZvQlG35gbZXx+TAr0BcpHDazcgbhlNUzN1GEKTDwOTAurBQb/GPpkq9cImGdHjIDTl6E2NYuM1KtxA2UUKX6YKOlGdpLZs2i5Hdh6QPO0A1kcUmcvSmzxPJ648nRCydbul3+n5Y7o9pidFpm8jVGI9f7a6s3J1jEVFReZAQgE7CGjoB/pYk05WLTpBVldVy/GKY9Km42jVGz5LZy8tRyfZmOD0d1Rvfp94vJaVuZ30ob3ZRbbo+SAoIXUQ15aprHYVFsnWDzfJwCGDpGzmVJl63VwpGlOqwphyUEZGzBhBHIvDst7YSIAESIAESIAESIAESIAESOD8IpChsZdkalzUUC/1lVVSV1OnsWKOPnKtPpP9Ad+EJSw81ar1nfT69Lll0VhgBIEJbh/EV3juEgteI5a0P9zr80hGjgpXrdI/J19NDKKxapv+dqNAwsiwa5/sP/aCGRnGjh5pJoRIpq6kp+eHyGSGBo3ZssywoPWHVZSCkSFLV8aDkQGmB+yHGr7Yt2//flJcVCxtyLDR5kYEjV41TkacerxSV4M/fFTa6qNqYqiVBjUzRJuiuqCfrtqnK8HH4GjS/SA0YQy4XBg4Ev3o+9i3pqFOmrXPvIICGTZ8uNatKpeSsjIpLhkg+QMH2Orvavgyx5eWtvIQ3GJfxJQ+Nhsg2xkToPB0xqh6ZkfPNdW8UhVPMlSA0TkDkojlz+apvpKnNxmsjRCeGlSIwep0tS0ZlnqXqzcx9tOEMxOnIEBhQkFDH7l6LLxSWKUgiE+6h04YcFS1WJ4uBBv0idXvInrzF2k6H47GHNKqQg1ErhxIPXBNtWpOr95YEX2OszTr6noQkJr1Ua/pcVWaLohCdRgD0gKPZqibSc+NfWHdDDnCOGdYhc/ziv29PjrJ5OgD50QfrVoIXVOFEw1n9RxkCE8qiNmkGFMOSkAnUatfVR2VwzV7pUJXBKzYd1jPmytTCgskb/ggmxhMpgMjDMpRJU/AZyRAAiRAAiRAAiRAAiRAAiRwPhFAeRGN2xDyxZpikqMKSX5OgdV0QomVHAgtGYjX1Kmki1fFNG5CvIV4MhkUeWDkMSX2R9aJZ56Y+KQxoMeVnmKGdD21H1jMhmwaxHdwVMHQ0FDbqEaGbXJ45z7JUwdRRMdmjiqNW3M0Ps1R0QkxH84BgSmmxohW3Q4jQ5PWg8qMZ9zk6m8IV/mFhWZkwGizdMxWt1jjZsSTlVXHpeZYlZZtUeFNS7ZkaMysCX4WsyK+btH+cE0QnnA+xJMYh6fWwd3lGUCIJRHTtul7e9U4sXPVBuk7dLCUz5wik6++SophZMgPWTyoBwXzCMJLik7dvVUoPHWX3Mc8zpRY/ecOHhQWV3eRKbt+IzeosFOv9smoij1QroM4hdNiMkhqKG6JhDCDmxEiS1CtURMKQg1uPghWKDgOe2SeCjwNrepa0hszW29wFDHH5IDz5+h+sGZif7isYKXEc/SBMeJ93Kg1OolFMpp0covqOdtsIjNV2aQePHyZTh2N9qfOJj0Ok4YLU6nn0fQ9FdTg9MLxrq/7VXo/eO43uE+GGLeLclGbWLJUpMNVNmuO82HZvma9jJ49VfKHDlKlHMfaUNhIgARIgARIgARIgARIgARI4IIgYFGexkJtSBfTK0K85kYGLE7lgkudOnpQFLyhNSo1amTAH/0hFiGfxAUnoPBAyUudoB+YCGBkgE0Kf8D3+LJAj0W/uXq+WFtU0+9ghIAhINdiRLRWdUShdEy2Ck0q+5h5IVcDsuwWjf0g2sTjQy12LI06tlpdNQ8ZOXgghkVa4JE9hyzWg8AFUwUaXmO8iP2wH2JV/52hgpqOSw0QffS6siBm6T7IkvGzQUBDD4hNbZM19GVxqXYPs0f0RKMcrN4jB7bvkWNag1mjX5nSt1Byhg0woSlRMxhmhnic6z3xZ1cIUHjqCq2e2DeIIHAGmTvI/3nXvsQlCqIhbQ43ik8KbaoGa1qe3sjIMcUXHpNDaL6fO52Qe5vazOao/djkpO/5TQqhKdRSQmk2r6mUuooeCpEPzM2RQWo/zFHlullVZbiYsL1enU4Z0qSTBKybmJSSQhPO4a9woaaX23Dg4nLBzAcIcQyvXQjTIuHxiRDClotnfhVBSAvXjAkVz3He45qbWxXVyUWBIX2xPtpgdaRaVHU3SVqbuZ3YSIAESIAESIAESIAESIAESOACIIAaT15EG/GUiywwIKDSCIwEcDu5AKMxpAor+CM9RBuk2UG0CSVcPKfF482YpeBps+yTkH6HFx5TBWEKNYORRYOYUM1WVkMYWTR91KGEUi7oHw8ru6JxKGI9uKU88wYxbIbth+OwCFaVpr3lZEbt1G5kSMZuiF8hEGXDfYD3Nb4LohHiX8SFOJfHk26kQEzpji2PRIPaBJsCrtdL07iRAQXTUQc5lHFBRtDRXQdkx7rNMmbOLMkdOtAOD+G1h5WMLe3D6Eaj8NQNaB//ENw0Xq/Iil6n3NC56kbKULsk7q9sKM46ccBhlKG1oKKxLH2Om9itikFUwUSBf9jPby4XtFzh1S3aF24R2BfhemrSgnFwEeHUfqzbKSE8DcpF1aU2cyAN1PzbAcV9LBc31qRKtO6vw5EYLI2auoebHA93HuktrifC5BDGgAkqjEFlLh2DTR9xMc2VZji6onptGarCQzTDdSfUcIwyfm9jW/J6MUlgsoKKr3yw4oLlL2sdq9oGada6VUBq6jTnho//dWUPJEACJEACJEACJEACJEAC5wQBhDeIjRDLIT5D3IMYDNuy4g6lVv2N/Twe8zgLYk+Lxl25KthAAMI/NMRfiAkRqXnZE68XnHqxEHjQNOqyPiE2YdX0DD2PlVLRxDg3FXgZFfSNeLKv1hoe0qePpeA1qtCUg2wbzaqBkSFTjQxI20Ns6317lo1n0OCacA0uYmGb60/IoPGYE3EpNoZMHYhfcEBB5MJYvPk1wvSAWDKim7EF2CA6VWol9mq9aNRaBoHGZq0jpal80eo6u04E0mas0IOsaLmrT/G++asrBCg8dYVWD+wbvvT25cXXHpNCeNgNhQkDIosrzRCoMJFA2W5shZKsN6S+BxEJN7g33CYmT2uPLtDgPMEt5TWf/D3chMjz9feQepepxccj5jjCzYrz+s0qaslslJY6HVODFnxToSemLiMsPNdglkgIZ1hS0x1Y4eZ2NdxvcIwHwpGPya2aWKHOFWq3e2JyyI/bMVE/Cop8uJaAO7xG37BaokZVg6n3mCQxqfiEgGtqQXG5+iYVyNAPppTkWEJ//E0CJEACJEACJEACJEACJEAC5yUBCCIaz8H1BIsS4rcWi3tCRgsUKZRLQWqaO5rwB344e/DHejcKQDzyuNONCBB60IP3k8olmAkQXyIDBqKTx6teaBxijB/l8d2AXKTzIV7NlP55uTKwSFfby8mTKGoyYWhmZGgxYQqxLcSg4DqySDBlCHBvuYTmI/K40qM8XBuewQSBMjUWP6vJAWPzPk6OA/EeGt6H4+mEZs/UqwECpga8BTGqVldeb6ltUiA60HisG3iEWD6VD5+fGQEKT2fGqUf3QlG1Np0wID55ji3cR8HR4zdDEHIgGuFmwg2PQt6ZzbA2auqb3gdQtH1pSFe4MUgcjRsQhbf9lnSLIvZHX7ipsHoBJgj0g+U1h+RrSp06nSIqZmXozZ+vkwXudxRnww0IC2cWVkFQR1RGtqrSsWwpUsFnECYvU85VATKVXdXuoKBjUoHkhAHpOM0mGT8n5kpYJvNUcIrA74gxa19RdTA1q6ilw7PrgGNJ5S19plMI3tdzHW9SZVwnllqT4yF8YdUEdYKp4g4RLNbYKA262kGGpuHpUnvWt3XGRgIkQAIkQAIkQAIkQAIkQAIXCIFkoWvIMe5YQjwGQQmmBQgzaJBjolq2JaYxU6PGUTAewCWU2QZDgP8RP2g9EHpCROnHehwH8QexpJdLsUjNHviJGKxYHU2o0dQHhgKN4TyLRdSsEJXWuhMSaaxTsUmjOo3pWjUebdQaUUi1C3Fum4pkPly4sWzY1nAGiF3huTm19DpwtUjZw/kKrHg5ltTKsP5CHOyjM6lKj8F1uagF8Q0OJ6z23qwOMM/M0SLmOjZzfmkcGa2r1WBYBxzRXi2gRWxqv9i6SYDCUzfBdfcwd+/otxbCk94euIlxw7tSDCHHFVgXnnwCsW2aHlenBds8fxcijubPmkrt9ZnslsKNaI4mF53wG82VY58soOzqf5sQoEIjl9ZzctU/pXd5tq14oBMGhHRMRnoOrESQBVFHHU9tqgJb0XLclNo/hKcoxCy8h5PZ5OVCkk1H9gPuKC+k3oiCdBiAVnOr1evBUcinbdF+W1RYa9Oi5z5sqE9wg+GaFICeDxNJdXOTKtO6XKZuylHhDNcBeydEPEx6zbqkZvXBwxKtqZGcwnyoX5ix2EiABEiABEiABEiABEiABEjggiKAWBKSiseBFnjFrw8xFJ4jewaLVXmZl3qNuaDjII5qVusRRCo/xmO4INagkxBT4njsA1EmWRfJhRxbiU5FpyF5+VKiDwhayJzLSxgZWmyEiNUykV0DAwQWpdJSLnkaE8LI0KoxHswHNhKN7ZDX424mj3UREeM/rhHxL8JN7BfRgDVP+4R5Aul6MEM0q9AFM4PFwejQA1SLSZH106SxaKW6nGpbmvTh5WdyM3VN94yIXR+4tEWbpLGqWgUodWipQcPNHOgusI0j5q8uEegR4cnrFPkXoEtnv8h2DkJQ6mXjRsKXHAoJ3oeSjIfdI9bwHNX5Icx4/mlE6ysFwQk3h1f2x80AIcuVaBxpean6Gql8EIrCOXAj242tj7BCXWtbkxWfw6TklkcXsnJ0YojoA/1GVQFrtn1cvErehL7SnavLLpzh/KGF/cL1BStl8n1fqcBTAn3Sw3uBF2yTLsRhvJg4dTU+nRww+bhVFOZSv/ZqFZ6OHDmmk4UKT0MGY4ZKHQqfkwAJkAAJkAAJkAAJkAAJkMB5S8AKi2schCyaoIW0WfkR/4s7Yij8nR/NIkmLL5GdoiVT9A/9iPs0ejORCA/EjIi1PKUOJgBfqRz7I3UNfXlchlXKPQsF/cEAkKOxFowMBVZcPO6kQh0niEs6nDasaqf7ZEcg7mi8pqaFGIwMKP2iGSs6PDMwwIAAQ4Ov5u6DD04jqFY2Fj2nHmUGBKQFZqAEi4lHntkTgyFChSf9Zc2S9IwLPAxekB2uplpd6a/a3E4oyO4il7ms9Hmr7t9UWyuVBw9IS029RPoWQOTwPnBOhpbGojutR4Sn7pz4YjzGhRK/cheIkFbmN5Y5iPT28Lxbv3mwJ3QTPOD2wQ0G9xOeR8zt4wXYsOyli0y4ocJEof2pio17w/N/0VuQgKB04yZzBxVsjljG0mpJ6b9azXNFwy0OCyP6Rm0lpLqhGLhParaL7WOuI6jPvinxE1fWXozy80NpxjKXmOCgsie1IRzhPJKTJSYgdOmiGCYccMQxQYyCEIWJA8fgfHt27ZbDu/ZKUfloVdyTQlba8PiSBEiABEiABEiABEiABEiABM4vAhCddMT407xZicxg4A/EQ4id/P1kXIXtFmtqMFmvv2FYQIyHWCysDgdhCHGWmyIQ2yUNDG5k8FgRvboxwGNBiFEeSzZ4PKZGAQhSyEZBzJYDQUqFKYwhqoNrRiyocSXi2qRTy8eMbW7C8CsIMSE+IESSWK3P3VshakyaHiwW1LjQWbhY5qmEiBOTqYdhP5w7NPQZStNU6WJVRw4fl6YTNRIZPkDdHF5YPbEzn3SLQI8ITwk1sltDuLgOCvIMxKA2velsikCqmP72m88ni3CT+f4uqviN5jddlgpMnv/qNxL6wWSBSSHcRH4rYUrCtBEmHn8d3sNkgBvNVGP9lx2v0RRcV0GM8tdQtl3IgeiTFIzwGbptM5zbjtM+sQ/Ojd8ulPm1IN0uZu4lF8r8ejEqdz9hYgwM/Lm7m9CX5w37OJIThk9OOMfxQ0fl8L79Uq7uLLtqXJtfMF6xkQAJkAAJkAAJkAAJkAAJkMB5SSBhJYCzSYUa9zF4sIOYLUPjMPwxPghILu54hgrMBHAbZakDCEXCkTWCmCumwZrHlujH+8JPxHAW98VJJd1TvjIe3kefwcgQ0vO8iDcKfvtiVngN4wHKriDmxTXgvHgf2TvBbYV41ONHz7IJJgYfE47BkV4DGe+h4Vg3QWDEvg1v+Tn8NfZLiktekN1i53jWkcpOOj4/BplGu3fvkf2798qE8hE6SK9jHEfAX90k0CPCk50bn6l/R5ND6WhbNwd6wR2mN15MFVs4nnCD+c3hCi9u6CC64LrDjeM3umM2e2PcJeW3HxTpkAcblN/kjeb9JJVe3NBQqiH0oEc/HyaqUDfKVxdAZX80nM+lKR0tUvdQnSm+L/ry29R2tefYhP590kmq2egHzilMePgNtxJauGaITGjh+pMCVPLLBetmWE3P93UXlAtoerwenKEuLlvtQf/BPMpGAiRAAiRAAiRAAiRAAiRAAhcKAcSRSC+D48n/GI8/1Gv8AzeRxlwQhCCsBOMA4isXnhAIapymx2N/xGt4L8Rv/tvjJ88w8aDeU/hc/EERcpwTYhXiNbiFYpZR4xEjfiO+wwJQoX+MCc1jRz82mcHiEa0VPbc+/TxIXsHYQgkWrIBnkSjGbnWEcXa4oJyBmyVCbIuzeT8eY7rZAvtAckqOxffDT4w1UwWpysNH5dj+A5KhsXDIULID2LpNoOeEp46G4J9nR+9ctNsSSHBj6o2F2xhfZr+BXH31V7hJggATbnz89hxdOIXChJKp9j+/OX11u3AzY5u35M0XRKKwggFuvKSCrM/0dbAkwqqIuk/YAze1O41chcYkgYkAN3FMxxImGYzQ0/iw3cfr04NbI7HUpefVRm2FPaTuBcuku6t8sgrHBFXbJ02k/qHeVK6uyIeV95ITSVwfswkQy3PqcgkJ9Qr7BafZRfvF44WTAAmQAAmQAAmQAAmQAAlcMAQsDtNYymo+xa8KsR0yPYJxwQUXvBmMDnaUCUWI37J0MSmLt3QhKxyHOA4xn9cHxnGeTePCj4s7upedzQUixK9ewgWxHNxCWMlc10K3MeFcKEiOBocS9sFxyayVkFHjGTI4wvcOryEG2eGJhmuE8IWi5yhBE0QpXCPiV8Sg8VPqMXFRzVa1C/EpYsqIxZO2n/bv8bdHxfZK48lYNGrnzNCYHedIjjk5Fj47cwI9JzylfSEOHjyouZFHZNjwYVJSUnLmI7rA9+xIAAkCU7hpkoKTw3B7ZBIw3k8q2Hrz4j7SG8L7htKN47C/H4OcVmzC6m/h/DiXTUyqQuttZS4m3GRwPEH5xjmw3KYXoNObT7dDaEIfNknpb51WVNlGXrCPE/25mwm3tU8CLibhJkdtKuT/NtnKdHVa1K1JJ8p04cl78ps/jBvHgkGu1rUqjuRaETj0j2kTkpJNGPoMY8JkF1W3UyscTwnvqQ447fsZzsPfJEACJEACJEACJEACJEACJHB+ErBAyISR8Af7ZPzl23y7u42wr9UWNuHGhRpk0UAoQuzl7iSPC7Ev/vgf+kW8ZVugUMWfB5EHW8xtFY/J4BrCPogNG9QQ4GYHHO0mhhBPmshlER0CSog7wYuE+M+vzcfh+8Gw4EaGqMWU6BvxpF9/KM0Sv0Ybo7NBtk6IqXMzc207VnJv1eLnnquTGmvr3tpvDPEkfitb9EThybB1u/Wc8JQ2hGXLlskTTzwht9x8izz44IOSl5/X7UFeqAeadBJ3BfnNEgSX5E3mNwgEIxRng5USk4bfeFjhLSOGmzRe8Ezv4OBgws0bbq5kb65MQ6jB7eNpbknXEPa3fXV1AExY1c1RE558jDjWc4GxXCVskNgHq+phPFiUAAozJhfLKdab2wuS+0SDfeGeaopBzEK/utSlPj+18OQ3OdhgcmpWVRoF8FraMFmAA0aL92wq8Nf6tKVNRS0dO2ymVkvL6LEoHD5aNhIgARIgARIgARIgARIggfOXgGen+PiztE6T1wt2zw7iJrTw26MpbPG4yU0Ivi/iMzifLL1M47cMxHXmhPIUPf/LvRfrDv2hLlQwO3ivEJdaLO4M+8ChhIwYi/803quBKcBErRCfisWSoai5GyjguMpIZMJghOgPsS1MFS7+wD3VqgYGiE6NJxkZcIW+XxDcnFGIexFPwuVUHGm1BbRCyRePNeNXpdeO+LFZC1G16nlgZLCFukyXirstvFv+7CKBLgtPBzTX8YOVH8ihg4fksssuk8suv6zDU0aborJ69WqJqkVt1qxZMn3G9A73O5ONBw7oOT9IOye+WUlhMtFNfX297NyxUz7a8pGNEecvLi6WsrIymTZtmpQMibuv9PioihOrVq2SDes3yKhRo2TWpbNk4MCBpxzSrp275MNVH0p9Xb1ccsklMm36tFPu39mbmCCg6ELUwWX47W9ykb5ycck14VBzyW2PpkLbjRjvWW8+n0hwo7kSi17ckujHBEy42dAgC6UKXn5De5ofJp8GFXLq1ZGE1Qlwc4cJC31isonoDZmrqxMgOxZ9oeE99ONpc36zQ3jCNghRSAvEpIT+4KTCA8IZxKfkcbgy/2CTk6WPGdoSvFlNsagdB0YQnPyanKCT1HPqdpW7zHpqUlpg5V3xJwmQAAmQAAmQAAmQAAmQAAlcEARcWEH8BfEHcZHHZ+HiIAohhkQB7pa46QHvBRNCFA4CaxCHPKUMEacbH8J7IfT29xF34uHv+krpHhfifY0TNY7EquO1mu2CTBdfyMrrTVkWjZonYGCIZMKk4PV7UfIFhcchVkGo8hixzcwL/tpXgIfjCVk02C/dyICwLzVrBiP02BdM2izFDiyKsvPicSwyfzyWDLEySLRqHNnSrAYMxNp2kRSdQOHjtDMWnmpramXdunXy3PPPyeuvvy6HDx+WP/vmn3UqPEFomjlzpixdutQekydPluzIGZ/Orqmurk7WrfVzLl68WJC+92d/9mdy6aWXxr8g7S9927ZtsuilRfL2O2/Lli1b5NChQ9KsCmtRUZEJT/Pnz5dPP/hpmTJ1SkK0WvreUvnpz34q06dPl29+45tyzbXXnJLn+8vel3/6p3+SnJwc+cY3vtFt4Ql1nYI7CYMJQhBuBHyx7af+CJa+8NxXhjPpyW5gswba3KJiDG5iWxoTt5yrLTguWBchzAQRySconMUdSRCM/GZLKtNIhcONGxrOnaN5fTl6HpV9dDMUYPTaYgq29+kClE9Gej5938ZgdaBwvqC34/p9QgnCF37jn5/Txxryi9FHmHDcxgnBDasCwsnk54D4laEnVsnJCu216SSFXpCXy0YCJEACJEACJEACJEACJEACFwoBCCYoe+KpYh4r4doQc4X6t3jt6W0uPgUBCnGVuYNMPArxnopTGtO5MylsD6vXoRf/hz49ZrOf8VItLgp56hxcSWpk0AwXuJNgRvAYFP175gyyWGBK8Pq9HrviOiBWhf0Rn/piVH5tnl3jqXVuaPDsmWQGjceXPj4XoHAVYawYNdg0a3YMMmQQS3qs7HE3jsP4sbodStG06fm9eDsggpHGlAbMY1rsz3bmBM5ICdqzZ4+8+OKL8vzzz8uHH34ox48ftzPU1tV2eqaysjKZOWOmvPbaa7LigxVy6623SunI0k73T39j79698tJLL8lzzz0nK1eutHNCrGmoa8D3xxu+oymf+/vvvy8//smPpaGhwdxNV155pRXw3rp1q4lmH330kTQ2NsrXvvY1GT16tIlHAwYOsH7fe+89uf7662XeNfM6FLVwwhMnTpgQhr5uuOEGKRtdlj7s077Gam74wuJLHGt1jw6+4F6fyG8M3BC4GWEFzM6Aa8ctjhBhIOikN0wcPl+oEKPH2Q2kfSTzYrUaEzbqzYbmajReuyUSUg32xb9mnQDgRoKzqFHT7Kzv+FG+5CaKe+u0YMteYnqAqON1njA27G896Vi9RxeifLLxj8s/Mj83triQFH4Dj+8RRuvnD0clJzyrRWXikwt3EKFsL+Xb2NAkzeq6y9PJ01Xs+GXwFwmQAAmQAAmQAAmQAAmQAAmc9wQQ+aAGEy7E46FkqIhYDEIKYjasXOe1fj3uhCgT4q24GUJFFotMdbU7bxCcEPMhFvT4C+GkhZTaM4wCbhpALOgxpJkE9H0IN40qOtWq6AR3kjurcCCEJxebUFsJqXZoIbpTWchEJ4hPbrLAeTCeYGTw2NlH4I4rT8cLjii/FvDweNf39NeIWz3+9HjVs4Y8gwbn8OsOKYNm89CxeIxtHXqj6BQH0fVfpxWeINo8+h+PyuNPPG5CzZw5c8xNhO2JD6CD8+bn58ukSZNk5MiRsnnzZtn80eYzFp62b9sujz72qPz2t7+V7Oxsueqqq+yceIRcTNwX6a2qskrGjx8vC29ZKJdffrmdG6KDXYP29/TTT8tLi16yFEEIT2jTpk6TKVOmmMi1fv16c1UNHz48vWt7vWP7Dlm/Yb09h6hWPr68w/1OudFuHmgjnn6WralrRVowG2pvjQqvuMFz1boDNRjWRKSV4YZt1sMgHkX1+x/vIe4gwivk0Orv+ISBCUFNhDhL/KbDTeZFwf3WdkeVC0M4Pl5DSW8uKMnY7hOLjxFqM4qPo2YSGm5ar/HkN7cLX+gnVVH2iSkpXPlxmOxwbJZaOi0/OS5spTqr7CTWvM/wPEx2YcLDdkw2GA/GjDQ+TBaZ2mdtXbWKjA1SoK+dV7xL/iIBEiABEiABEiABEiABEiCB85QAnDhorRqbRa34dch6ybR4yEu5ZGk8KZqp4gswIRLz5pGRu6I8DoRIA9EHpVHa0Jkek60GCIhOnm6HqCzu+LF+4qYGjedCrIf+vLeYmRd8ESl3JyFODbGeGxngtsIK5e6mQqofYk2kAbqRwQWnhHFBGQ6icAAAIABJREFU3/PaTYhTXTAKEpRFu9p/6j/PKkr/cN3thPgzxI4hVsY4Ah2k+pnYpjExDCtNTY1SkNk/FV0SZfop+PqUBE4vPG3ZavWSrrnmGrn5ppslJzdHHnnkEUFa2+namDFjZOzYseYmgvgElxAcSB22oA7opw6hCPvPmzdPbrrpJinIL5BfPPKLpNiVqkekdAaHE1LmrrjiCskvyE+8M3zEcKmsqrR6ThCvUKcJwg9EKYhHOGbJkiWyZu0aWbtmbafC07r162TDhg0mWuEY1I7qasu0Ytz6XdZzZ6jYVBDJk0F5+dI3t0Bqoo0q7mVKYY4LUccbaqWxolmO6RceDTcJRBfLpNPmKw+gzpJvSKas+SQAkSfs40ek//Tj/GZ1Z1LoA8fhxk/c5PocOri7jCB0oT6VT0KYAHDD+piS58ANDBXZJz+3d8LJlaMimNs4/RZPik4+kYUe3E2VOma8n/pA/96vTRImwLmjDKvatahg16518r1pvxNfkQAJkAAJkAAJkAAJkAAJkMA5SiAu5CC0wYreEY0v++Zk6SptOZLV7JkoiLkQN9ZoTWO4iJD2hv1cKPI0O/8jv8eYIR4L9YdReykrI2IAEPOheYZM3Bnlm+ynx6LtjQxuFnHTgjmhEKMhZrWYzf9l23hQ9gVOJ41bNa5DC+fz2De4mCCOeQuFyaNaJyoIUPG34pkzYc+w1eNEjxuxYJcfBTHNHVXYz6/CTQ3YX1MFtXZ0kxoZ+iD+xNgSA/NxJnvnszMhcFrhafyE8fKVr3xFJk6YKKPLRsvyZctNtMHjdG1E6QgZMWKEVFRUmFuourpa+vXrd7rDpLy8XB5++GGZMH6ClI0pkxUrVpz2GOww+4rZne43ZMgQKSkpkY0bN1pRcfvm6ncG4tGM6TOsuPiWj7aY4HXTzTedJJCdqNI0O02xQwrgnXfeaTWrutXiN5QlqenNlpOdI33yC2VgcT8pUnU4MzdTilSIylEnVHZdnhxqqJZIdZWJN67eYhLBreCKsKvPLsbgktw6CMslbiRfLSC4lzDe5MSBfW2L9QdXUxCwghDlynHIycX+PjH45OGWxlSF2aaQoIrZudyNlKH2Tjdhup6cHA8GkPweuZDl0lIqW98/TFGYYPzhk0a48ZN9QYRqUeEppqvz+SoE8RXtOEekYuVzEiABEiABEiABEiABEiCB841AvA6T1lhRq5MaGdS0MFjjx+IcNTPoam8RFaGwLTc7S07U10nLUaxW3mSFuBExBbEldXU8IHDxCTWOkEnisVeWFuOG/cD39VS1INIg6wbxovdnMo6lyQWhKbyH98M+WnJcDVXqwrLYNqQJ4uwenCO+C+Nr/7HExxOvK4zavp4F43uFc4TIEudOF6V8H7i4kGUU6g9jv9AXXF/oz+PsaLRJWrXAOOJJN0QwmGz/mXTt1emFJ01dQ/paaCZGBNHpNOz79e0nQ0qGSCQSkUOHD8nhQ4c7F55S+oILKTWNDV+aVLGroy/S6S4bq9uh0DiEJohfqXV/kGqHB2pArV23VlDTqqysrF2X23dsN7dUXl6eTJ82XcaMHXO6U3b8vt9TlmEGgcSqN8EFpTc1UtmiuqG2Pir5Ea+dlJ8dUfVarY7SZKKR34gOCzdmqnCDE4YbEL/heMIe/giA/XZ08cqPxuRgfdnnGm5XP5cLVe6c8okgbLfMV3tA4IIUhnOmThT+PkYVv2j77f3jZkc6YbZaGSNasBwTEGiEKcKvDcf6uNE/rJk4xi2fOtHFl+nEMd6zWyhxTGOTpic2NaEDv65w+b6FP0mABEiABEiABEiABEiABEjgvCNgCyeZmIPIKlMFpogaF4qkf59C6dMWlRwteZObE5E8FaXya2vlkJYgyayp1NXhfLVxxFkhHQ1iU3sByvtNZqQkM0zM+oDyK/H6UHjuf96P2xV0QKlikxsifBt+wvCQap7w9z2ehIiFFmLJpADlgpO7rRDQQeyCG8vj3mTMGD7GZCyLLeH9jsWs1GOSx3kMq+Kbmhha1bCC1fbiIWk4gL+7QeC0wlN6n+2Uw/afa/qutordoEGDTOjBCnMQnyZOmnjSfqfb4F/U0+116vd379otu3btktLSUnukfnnKxnghdKych0LmH6788CThCSl4a9eulTFjxthKdoWFhac+YSfv2rX4f6uWr2vRqdikubDNrVKjxbBb1HmUrbm6eRFNocvSJR/VETUwr49UahoeKvZjYsBNamKc3bp+k/rzINLg5FgaMiwPiVO61TE5LIg0TrbVJg98mKkfqAtJEJNSdUb0GW5GF8LcZWVnVCEILfVcfga3errDSnOCVTzKy/LxoG5VXixijitcV2iYJMJ3DaPCCLH8ZaiHhf0wYUIt94kEijnyjb2HJhUZW5WpHWsCHRsJkAAJkAAJkAAJkAAJkAAJnN8E3JDhMZqGkRrlZWuamqaQaQmXjFi21ldSaaZR3U0RjzVz1ASCesJuUHDxBhGbx3jt4yR7V2MnfyQNDIgbfXV1jxjDUd5nvNxJWjwZXEhOG1EhRC19aIFxuJ08myYUBg9xoPccYkgcG9L0kiP1hblC6Rak3kGAg5EBdo1QOgb7o7g6GuJTX6EdRc19mwt3nsrnY8PCVW6DwHswrrQggyZ+XYwp/ZPs7s8uC08O/sxPV9y3WPr27StVVVVSWVl55gd2smdXz49u9uzeI+++964VDp87d65MmTylXe8QkSAmQVTasWOH1a9q1S9ZltoT0ZAiiMLj+/btk6uvvtpWzPu4LVuV6Wx1T2munRoONe9W7Y+YOHBzWHE1dT9lZWVKfl6BDFD1uljrPVWr4gqXj08SfuPiZsdN1U4QjA8OQg5uGijCGSkrF5ikoxOKp+N5P0nRJ1V8Qr9QckLV/6CIez4sCpG3wO2k54F4lWVuJFd+ghruvbk4hAlMPU56XXA55ZqTyycGHwOG7dcTV4/sypJKNV7lZWVJYXaupSKihe8DmODYsJJfq/oksS1D98uADZWNBEiABEiABEiABEiABEiABC4AAqhu4vEd6iPpqnL6F34YGeo01a5JF6fKaGmWfHU8QXfJVeFpgKbiVZmRQcUV03gQH9mf6I2G//R4CtvdAhC2OjAXklzEQVwXYlLvx/dJfZ50I4WIEP3huck8JkJ5Wp6LP8lx4P2kAOT7BwEoGR/ClIAG4QkGDWQTWc/abzgesTWMG1hZHuNBDFmQhXrKWg/LYsQgVFkekvUX4skmjb1bWmAT8VHTy2Aout26LDwlXSjtBYrORlBQUCB4NDQ06BL3/z97bwJl51Xd+e6a55JUmmd5kmVbnjHGNtjYjGGICYEkhu73kpBpJau7k9edrJe1Oq9Xv9dvJStZTV53ngmEpN+i0x0yETChCdAGAjbGYGxssI0tS7Isa7JmqeZb0/v/9v7Ovbdu3VINlmVLOaf01b33+864v+8c1f9//3ufCJI9W97ZztcjVWbL688yqZgnA5IXfuELX7D777/fg4K/5a632KbNm2YUT+52xHHC3Q7Xuq1bt3q+54oA69XxoGZUMM8T3i1YZKnBWjq7rElB0KfGCdStCVcas2ax0S2aIFNaMBApEQOqu43JEbvSMUljQmGVcHGrbhqiKQghnfVFhUkbbncpn6uY5LdLXRA/7GDAK2WpNVz0YmGAQIpW+Bx3gusRNDwWi0Z3tUPxVJE9wsSHEiluBGonJjfjoDwp6ol66Wd8Tq1wviCxio6zwx+pVa6JbdppIdXDOcYU24TGgjMlFo8YT/TY4zwpZQLKzZBTtkC2QLZAtkC2QLZAtkC2QLZAtsB5agEEBE6sCFe1ya2uQbiSAOKjKHTkOePiCe1Mx+Z3jQJJ7Da/orvLjgz3y4smKKWgUmYaIEQLgdVoI1zyhKV857nYQY9SQVmhNAKbAjsrO85V6g6SqdJKeNQEooxrFfIJvFbpm7v1FVjQ2ys8dMB8rRI7QCi1aYwIElBEMf7kPhjEUWBM6gAj0k8SLbTJbj3N7Y4nHSvyo/pDvRWYkrxjir88SWxopdp4WH4ypwVZYMHEk+7NglyXiInEcfz4cd+ScFFpgW2mNkYV4+eb3/ym/eVf/aUNDg7aPffcY297+9u8P7WJ4OLXXnutffnLX7bvfve7fiTi6dHHHvUd8Qh6jjKqXvna+up9JoaT76YnVralvc3WXrTRlq1ZZQO7Dop8UgyqkXEb4Zomw5QkiFNyaxvXBD8yMKRtKSOoWbPLBZn0yeUtJlBid2l3fLLJxnCJc4KI60Eqcc2Df7urXrDciWVmMsaExT2PeEosIJqo2i0ANdNYUNo+LNhiSB/YZSZrEEzRDqVYRlhwYvKTo6JgYpHoELmGcimII8qniR4STi+h+kP+6JUV9aGQCjfD6gB3ERwuyCeuM44RBYPzGE9OgMVCg4Isp2yBbIFsgWyBbIFsgWyBbIFsgWyBbIHz1QLAMniYpjZ50HR1WlNXmwAgwgWhRMW5bVYYk2bhtEZhInBVa0ubdSnwON4mofJB3TM9gSVTAoOB48BUpt3tuIKIgJArCfeB45o8BAuYT25pUhyBw5wQQ7hQ4EXCoIx7vJVUf4R7qfZUSe0lVZLTXp69iEPsHxgJ6qUghgjdAsFEO0EegfdCyBBjpDw1BV7lGng3efmgfML9kLy0n+rhFYzL67jwN4HWqd97U2DKTEK5ORacFkw8wbAuxL+xEXICEkEPLsdiUrrZaUKkz3XriufCCZ7vP/Z9+9M//VN3nXvve99r9/zMPb7LXr0EmYQLHeTSE088YXue3+PSOrZRfPaZZ91N753vfKcHFl9sQnGT2FYWirUXb7a1l2y2J3e8YJMDiu0kr1SWgZLIpuGJUeUVETU5op3t+m1Q6h0SE3mS2aHEhIhJFMqjtBA4USRWmpkpR7OYbloYPHlRfkFeOb9bTCboKRaNcKvjfSwCUg2pTfgqUqiKot2Y7LEQcC0x3kXWYmKzKEW56C9ySMgnGGbsEe3EOEKhlNhmFotxdYKFL52jTOV6kE30g/P0Nx0Ekudw4qmwl7iunLIFsgWyBbIFsgWyBbIFsgWyBbIFsgXOWwu4kEE/LR1ttmLzOutdv9pO7jwk75mSTY4qJnDjmIQM4CKBoxFtXtVQshMSYZSEidIX9uGml3BgBaO7AskFCSEEQCg0Qdxg0BaYnjqF4CaE7wLLVTxn4JfAbfyA11r0i1hOnl/n8crxUgUpRV+I9xvXA+uKWvK2IlG+cpuifYVucS8a4lax8RQAL0glXhNWJC8qpoQ1aSYJNyCfPLyNh0anPzEmyvAD4ebui4q/zCEwbBNSkpGaMqCs3JAFvnvFiSdUTiiPIHZa21oX2L3IvlCyi1IEAv/En3zCHnnkEXvTm95kH/n5j9gVV14xvX2esfRc6y2kEuQTZZ7+0dO2a+cuO3bsmD351JO2fPlyv7Z23dpFjcELqa0yQ6q2u5YusVUXbbLuFcvMho9bi9RFqH+YmEwyXOCGFatoTBMe7iQRN6kD1bsNJNKJa0EApSDkmuwishJxVN158gUnE2wxkxhSaEyMNfUxQUOaGD615I1pGQuKt1ksOlFvxZipb7wmuSPMOK52HZqwoXjCxTB6DIOebgYLBpOdxTGuxmIFgRXB4GKRDDY78sRiEr3gPaThmHybvc7IUj30/D5bIFsgWyBbIFsgWyBbIFsgWyBbIFvgvLNAIC5tqiQhw7pLN9saHT+UkEFKBQkZAm+PCluNTo4JT45K0DBiR0eHbUhBkIJcgQyarnqqxZIQRmz+hMseFA34DHwaeDSwKoqkSpzgoH9AieC45FXjMaWEGcGBiZjicxBZgf4gn6L9FBc43RI8VwLbBqEUKgLwNLgVLxrqjTxhFbA0GDfqb3TFEn2hH4lYIuowLZOXBHakfg5SUnuVFAaHAyxJ/GdSJp7cDItKCyeeuI26wfNNEE8cyeVuvuWq81UTT86Anql5PRgEAr/33nvdbe66666zX/6lX7YbbrxB7O+ZXa1QQ11zzTW+E99DDz3kAclRPOFmt23bNieemhWkbTEpJhhdj/7znDd3ttqqTeusb/0aO3LwtFztmCRBxqTJz8RhsuBqN0r0cSUmTTX7W9sfJl9M8Jio4coWDG41CxMTEvIJg8LOsChMSorZYks6u+Uz3O7MdP/IsB3uP23Hh4d8ASI3LHHIKelPYsvpSSwQcZOSPJKzEyKNtKWniKfO5iCgYgEK8gs5aOpbWgSY9L5LHeottcqiFO55BFiPh4CFgiMlV2fpZ1KsNK52U/S3OkMla36XLZAtkC2QLZAtkC2QLZAtkC2QLZAtcF5ZwLF4gX+6lvTY6s0b7UWJJGzgqDULIxFkOzxgcBUL0mVE2KjkcZAiXEs1Jqzgzvi23okcCRegnCokUeVaIp+oA9zleqOCTEIooP30OOMYMbAb76ebmLhMk1NyD0RS5fUA+sgUmJTPca1SjraI9YuQIR0IEVJ4l0obQSL5eYFmBbDxusGPTcoUP8R+YhMq8HcFTzo5pXzUNaEYT1MIGRibzjOqnBZvgQWzKAshnejWQP+A9ff324YNG6y3p3dRPV2I4umpp56yez92r33uc59zt7lf+IVfsFtuucVaW+uorWomQKMeYsilK664wh588EF79NFH3WWP+FRXXx1qqEUNoLpQ8bw6d6f51bt6ua27aLMde/oFG5EEEjUQExZFkO8MJ0aWSYvfLEdwfklOGJMktpiMRpigTN20UFBXJTFpogOJuAn2OAgtgsKRlnW02mXr19mS5csUK8rs2KkTNrV3j/WLKY84UMGAI21k8WLysqjw45PaFxDexYLBQpT8cJvFmjsNpcWGfNTHdQm7/DOkUwidqCdqpExy8YPhntIiRVNBOtFW9CHajIViXLs6jMnHGXa6QURaTtkC2QLZAtkC2QLZAtkC2QLZAtkC2QLnvQWq8F2LvIpWb1xvK+WV89KBEzY6zGZPzY6vEjsFokJMMCIiJUiaRKBUMGXgt1AcgesSLuO7fnJPSgGVvG+i7vCYCVsGvkvvcbHr0a5xK7oVf0qqrJLw4uDIoB0+PWAnRkccP0KM0acxefxAAKFgisTghO3Awao2XlM/pxQYXMHSdSQhA3gQos2Rp+PDGJvjSZ1HxNBMPYXLX4SAScFoCAkUfQ9MHORXI95C+pmQB01J7otsAxjEU5Xhi97ml/lbYFHEk8dtAvnPkYjpdPjwYXdXu+GGG2zVqlVzlKh/uZp4gghyv9ZgYKYVePrpp+2PP/7H9nd/93e2YeMG+5Vf+RV761vfah3aOW6+aftV251kSoonZtqaNWvs2muutdWrV8+3mhn5fKLGPPDX9LZn2TIPMv780h47ebRfk2PSJ14Du7ZJPthQklJouJAMFhMpVe7zyReVSuIzk85d3XwCcx2FFPJCKZUggzTRE7scJYPBDfc4BRbXlpst7a3WLLKuSQ7CbRPyF9Y9x+XP2TK/9yFPdHWVV4KvbJBPjJW6fMi6DlnkrLE+DLlMcVRjnHAGPgU0p5/IMjkHk93SQPA7AshRZ2UnvLSAVhvTlyKeC3pXPBelsVEtvMO+YDCOnLIFsgWyBbIFsgWyBbIFsgWyBbIFsgUuJAuwadXylSttzZb1duipnTYy0G9dYlvAZaiCpkRCTYEt9YPiiZAq9VPgKa4FTkSNxDk8XWpxf4gZwsUtagusF7GR8FJZLs+ZS4Shl67ok5Bhyo6ePG629wXrPzLqbm+48oENE56dUp7EL4QHUHjF0JfIBV4FR4Z6CqUSnyGwoh7VpPpCkBEkFoKGwK8pTnGMBbyYdsljtPE5xhHKrcCuhG4ZHyl5fKeGFuHi+obLZ+dpgTmJp70v7LWHH37Y9u3f53Fz9u3bZ88995xX/80Hvmm/93u/Z+1t7e6e9vrXv962Xr613HT/6X47fOSwu9pB3nDMJ+3dW7SptlKbO57b4UUf/NaD9vu///veZl9fn9188812+bbL7dSpU/b5+z5vn/nMZ5zowm0OFzmChNempcuW2h2332HXXndt7SVbuWqlx3qCZCKoOIkYUVdddVVdsmtGBWc44YQZtDH/mL+alE0ieIjx1LNsiQ21HxF72yZSRteaRORo0ZhUcLiuwSaRMY2apEyN+EmqoKRgolkmJiRNSompTj68iZQJdzTIqcgZi0Z8YKFoUbtszzmhBQDiqVmKoVFdZrHClzaIrFgCmOhNToilHQF03qtiELFgsIjQBq6C45Ml1YOKS4HTxboH8x4LStoGk20xu0VNs9NAW2Orjz1YaGrVj6pOfebVS0ej6kssLBOivktSPE2xG+CMxbJsovwmWyBbIFsgWyBbIFsgWyBbIFsgWyBb4PyxgGMtsFgQQl3CkWu0aVXX0m4bO3Za2KnYfbyh1aYELCclZGgrdvcu4F/NWCtng+hJyqc4XxE2JEVReJsAsYBg6Tp9SgoiwtO0KL5zY6uiTglPtpc6bEqYDrVTinlMOdRKYN8m1QO1BIFVERqkbtKP6Mv41LhiVsV5sCVYFIyaAocHnoy4wHjnQGIhZsB7Ju1WB65M8DBeA1+HwCLqBnPCQ8BjTIyNW5OEDAXcrLFd/jhfC8xJPO1+frf9l//vv9i3v/1tZ/uc+dPB7fnGN77h53Fju/LKK627p3sa8bT/wH47cOCA9fT02OZNm21Zn4JozyM9v/t5+9SnPuWqI+RttOdMo34eeOAB+853vuOxlnCJ6+3tdeJpWOqWF/e96G5xEA3sTMdRm7i2efNmW7pkaV3iieuQTNT91a9+1dU/uN8R48lTmpcxz2urP+PnMgFSXRb5nxjh1p5Oa+ntsNamNmuSL+qUWFykgi0tzdapA1nhkCZZ/dhOdKp+h2JJgqxJC0ea7OSPc0nKiNqoRRNxaXePrVu73lasWal+ddtJMed7Dh6Seu2YJnVF8cSOc1qW/L7Atie3vumLU7RNSykm1LAGAWEE2z08oaBtRTDzIM4g2eCT1RdfNFk4EtMOOx3ue2k8jC+YaUwfEkvGxfNS0q52aQeCM96YfDFbIFsgWyBbIFsgWyBbIFsgWyBbIFvgvLFAeKzAoDS2t1ivhAwcwweOWae+uG8jfq7ClUw0N9m4drXr0iuE1Gi4qgQ2dChYwZEJE7onibCjixT0GmKGtLM4eAs8yPWiMmGwIJSE+1QGhVSz2msQo4SQARFDi/DuiEoNS3iAsCA8c2KHc8gisF+429FOYNRQUYFZOSCZJiRkgBTTJlIqgqgC8on4VeNTEVmKeMSU7pCrH2IGXsP7BsSacKwyFMnHyo/EId6KCnuMYSWEDMQMBk82q60gqcpF85sFWmBO4gmS5md++mfsDW94w7SquYFxe+I0SqEyOVPk3LNnj+15YY9t3rLZCam2trZ5dW/T5k32wQ980G5+/c3+QMNSBsEQ76lkQg8VCqrU5pIlS+zuH7/b1q9bb+N6oP2JmyUtXSrS6dqZaqeUHdLpl37xl+ymm26yjvYOu+uuu2z5CgVsI+mJrFYuzdLE/E+rvmbc2rrbralLaqemDmuWUmd8nK0bURyJLdYBqQOjy2RiQmD/2DEuAo2nhSKpnKY0M8iHGikpnZhYsUgkgsZFVzEo/40Ec8IGx0oKBq/tOaViay52I7xEdt23d58dPDXo5A8kGvXGrndBKsEis9BQJ21x30hpi0paiD4EOx1bVbLjgiSMuOb5DwHwglwK9VIsXpBQHv/JRxBj83fe/1hEfHH067KTnoFSsVDE2fw7WyBbIFsgWyBbIFsgWyBbIFsgWyBb4MKwgGNxsBAcU0ebRAxd1tbTYW0Neu9kjkgfsShjU62+eRSud0NO3MT4wY31U3yxjxAiVFUzncwC00XpijdNxCVua2qxpRIvgNX71q6y9iW9dkoxn3cfPGgHXjoi3EenA8OieGp0nAe1BLYs6tSgwHQxwCCNaIe4UFPKTH6uQjohZAAje8Byud8JkTqJ1SjFF54zEG68Om71gOYJE4MlaRs7BHkW7UE+CRcLT46Nhqud2zl+RQfz7wVbYE7i6aKLLjIO7k/cJEweD7m7N+mfK3mKhyT1gPhOu3fvdle3O++806684sp5d67cJiVq2/VTPCyVfvC+o6PD3v6Ot/tRTmSr6Vfl4uzv+pb32fvf/367++67jYDjtdsmVhNus9dS50rRl9Qtf9W5Fi0UbT1dUj5poWhqR/yn8+F/i19uuxNP4QcL+VS99WNMuTptVZ1KcZKS5Zx/UgriKCbyhJhjiCMUVUdPnLLdO3fbYanHRkVCLZM91vQtt8s3bNbOe89bv+SGKJ+SZDEZORaxWMCCHGOpghSKhS/8ciGp8LeNXRbSgpdIMUgqlFdpQYie0uFEoMXClBYlrtBvbMK4WDhoexzppZRyk+xqt4hnINrNv7MFsgWyBbIFsgWyBbIFsgWyBbIFsgVeQxYA2xR4zt+IJGlqk0tbp3CkhAytTV3WVJKX0pg0Roof7KFTRECBsyKwd2zuNJ8RgasCdyVcF4KDagzqaFJ9SmTUkDDYYGnMOjs6XcjQJEFDW2ubXYaQ4YX9dvD0kGO3xsIFLoQQFTe7wNoxwKg76k8YnHbkD+WiDEQTeM8k4gls2SjCrDQJWSbvIUFRsCIHrnfj2i09eRChbKIfYNroT+wIiF1oo6RxlDQOFE9J9LEocmE+hv4nkGdO4qlsA+eWpiP4eoST59dzclCMJjvMkef666+3TZs2zW7ONHHqEQT12l0MmzR763WvQDhx1E31+lk3Y52TxULBw+z21L9WTcYeKbaI+i8tpLZ51ARvbtEDD/nUKDKqyd3OYoKXV5k6ldc7BVGTdoWD0tJioQkZiwjsbzDYkEEe1FvtdCjXoRf32UuKq3VkaNgu1xad11x+ua3tXWrHOntsUrvvDSpIOPVywCCnSYjiKQK80YYmuO9iF2m68orRJP0SvUIuGotgkEdRzs/R42InAmqqrgezYEcWDNFMvgazoPoAaPJkAAAgAElEQVRZ9S3Ffkp9yK/ZAtkC2QLZAtkC2QLZAtkC2QLZAtkC57UFAkYG/yQ4B+nU1i0hgzbVamxsC3GDdkefElga06ZVxFkCNyXiKQXkBoWlL/hD4OA8VjklwQfnqs9XeAFCo1BApJaIrQ6pnSCDjpw4bnt2Schw4qgNKfzJqhUrbV3fKtu6fpPiJu1xLAleS6QQ7yF/qAmCLGI2BYYNLxp6ksQMEGiBOVE5cRD7KcK6SDclQBhkVIgZEiHGoOgqeBFxBAHKwZVBPtGy3qswP2x6VdK262MindjVLlLg6oRFi5P5ZZ4WmD/xFHeoDOTL8YpmaeiJx5/w4N7ER7r1lluts6tzlpxnOF20Wc5R+/kMRf1S1aSZK+u5vO7TRqRIIk2a5YLoC4XiVpWGtOObNIfNetj9h3xOrMhXVizthEseOR895j0pSKA4R70+wcrjD5VQTOJw2WOBIMgckksmfI8WIxYbSCSuDUhWWBrDj3bSdu4/aEPD8g3WokWANgiqBlHEXepvtyL8t+uVPqJyoz8EeIPpJtG7UEJFZyoLFgsJfr/lXEX+GHcsgDEexgJZxgIxbcHTwhAsuHKrofDHLdpRHyHv2IExp2yBbIFsgWyBbIFsgWyBbIFsgWyBbIELxQJgn8CB4S6G4qljaZcLGuRb5+5rbMPWKEzUKpezduGi5G4GQRRf1BeAcoZRAk9V1E5B1KRs4K+EQYl9BEaFFCLEC25tvcKHXTr3osK0vLRjSEKGftu2+SK74fIrbN2SZRIyHLcDQ0PyooE0EmnmoJUDhRLCBQ1BjSM8CPzHe1qPPJwLjBlEVODDwNf0K0LBkCMcBZ0UEzmVQsREPdEmsZ0q3kFg0xBCpPG5kMHJqRA2ZNJpxsMy7xPzJ57i+ZtXxWNiNQ8dOuRqpzvffKdtv3r7mcvNVnf1+dnmxZlrfs1eTQ8zdHQjcZzkbsekKJVGrVU7DzTqIW+QNHISAkczjYmSjnjwYzIxwJh4afEpiB7ZjjaYpJgx4iWF4okyrmzSrnGdmtmQT20sSorn1K7dB146fcoOnux3Yqivtd0G5G636+BL1ik3wHapr9pEQPVKnLVM8a+W9/ZYr3x4u7TL4ImTp23/0aMFgRVEFmRWyBnpZSwWQS3FQkFfwuVPiiUtCJEg5XxUxedY3GJ5iIcCKop3qWwDfrwqQt0sWFMaF0Hva90kiwrzS7ZAtkC2QLZAtkC2QLZAtkC2QLZAtsB5awG+nCfukXugKHh3Z0+vtQjflYYGpTSYUJwnYSXIFymQoIbASOBJ0Sj+GuQTww9ihXoCP3rglwKPhaCBeE/OZCmhEALjgSfBhmDKEACEoopzxFhCyDAqcmlIcHa3sOSotklvL4gehAxdCj7eLfFDr9zw6DckFuAVt7mSXOIIIE4fwbMJ7wbxk4igUDCBWRnPmGPHwI0xFrClj0j1oIhy9KhxSQlGhZ4YacWVL/BljJ8xtUhgQf05vXwLzJ94SrdmnobHve43fv03nHQimPfLThfU/U4+rIVVcOvTQ008osmRYZso4ZeqnQOdfBnTYhGLAw99TIwU/ExTyScQUyomZTC+TDhSrdHSDAtCKnaUM98xD2Z63fK1tk5B4Bq0O+C+gdM2JuVVp3YkmJjSrnrukhcLAIsMMZqI9dQuRVSPdv4jaNzU8JAdLw0ryFvqbyLD4nPaoSB2DWBC05/YrdCZZh+Lj7B8xDITC2qTiDh8doPxjoWG8VIikXKQnbgPTmoRa2qVpDQrnvxJyClbIFsgWyBbIFsgWyBbIFsgWyBb4MKwAHQK+CmJGZr0hXu7RASTYMiRkjWNyRtEwbGn+GaecwU+AzeRwFDVu6VDJnFUp5Q3zoWbGZgLcQDlIbIgmULIIHEC4WG0aVarApkfPj1ghwdPO3m1SmKFIQkrdh445K54lAGvgT+XdLRan3apX9rTIyFDhx2Ti94BCRkQGXgSl0T8X4guR7zex9i5Lsae8HEEBCdYeYVUCiwaZFqQWIgxsBqYMZBxBTXTV8ZEo+DdCTFPTcLC1XiSuudJh0T/8++yBRZMPM3Hdi162K6/4Xo/cpppAYKTlR9aJ2Y1A0Q+TUopNj4yKhc3fZ4qOYM9rtcJLRqJWKG2YnqVJ2QooGa2k84Edx2+sLHFpMgbtTtAwDQtRCwcKzTRN4lbWqLd+9aPj9qR40ftpVOn5X87rp0CkCbKNQ/3Nckm2T3gtILVjQ8P2kkRTYNjQ3ZaCwv5D4l8QhrZJTlnj5RcQZTRk1gc3QVQKRbKgmaCedd5FgJIJcbKTgIcTkH5GhhSyRQULxaQwhLKQP+ok7ww6GNa0BpUIXUl+6Rd9pJd8mu2QLZAtkC2QLZAtkC2QLZAtkC2QLbA+WqBQEMiUUSYNEKUCEyVRDw1S2U0PiEcyZf2pt3SxTKx2xvEyshEwkeArMBmMX4HXZ4QNQidhdpIpyF+UDGRAptFWYQMIzogk7olRrhs/VrbtHatNe/dYwcGTvpO4yiicJtLrn68B7eBKRuEf1uVp1e4sV278k0N9tuJ0ojX6ZhQ6qQgnJKQIfBiGncixwIrCyEKP9N3PreI3Er5os8xMt4HJg0xiIe0AXuqDO6CIFTwJMQTHjTutuh0le+75zbIaeEWeEWIp4V3459eiWlMKQ+/Jtzo6IhN6BjUYjA+JbEgvqQNYyJ/FE1f74NYQRbJTm0R34gJMG29KEyJqsglhsXEcmZXR2XSxQKCOgkZIfU0izBshqUWW96tY2BwyBeERHrBTLdr4YhdA2CeJ210cswGRoZEpE3YMeWnr/Rzwn1yFWOpaj2LCV5Z0GiVutPYYqe8IKVYJEI2qV4nJZQvBLHYRbBx3rOgROynRD75AgQbrfFzRKpu95/e85ZHnC2QLZAtkC2QLZAtkC2QLZAtkC1w4Vggwax4FeYRqTQuLDYqIUCTXNXwphH9JH0QO7OJNBGWApt53F9woTBTEgVgFc7yORFLCUuGxUJdhUoqbSTF+wFJjIZFcEEqLWlpsy0q3Nu31NYPr7LDx47Zkf5TcrWbdDEDJFILCiK1C2F1amzUxobH7eTooA2XFPNp4JQdOHnKhQzgw055BPUIqCZyiX7xnlfECrzSF3e/E16Ma2C/FKKmWsgQVkIAwkh5DRVVYM+Ed1OgdAQR9JUYzKijklvibHuPXThP1Ss3kkw8vXK2nV/NzAE9/KVSySfbiIKvtTe0OctLdP7GBm0PKVInlEChBtIVqBW4lWmLRXWDsZyE/2uSYYYcMUkICQKeJi6LgeJySdq4+eRJaxa51N3ZZV39A1ooIugbCwULCu0yISGhmjTBCVDepGPUt82UCkp9blVeWONYvCqLBUtFdYrFIVRJjCVcC+OzLyDKn9zq4I8goJrUBxaGqCstMLEIpboZJ9te4tsMV1XZ/nJa8/lDtkC2QLZAtkC2QLZAtkC2QLZAtkC2wHlrAfek8V3XhLyEw0aEx0oSMhCSKWIjjekKHiwhZIiBhidJQmaBG6OOQJjkmo7bov4ge7ga5BRBwCWeEOaCpFraKlUUHifyfGnr6HAhQ//QgOIF47qGegnVE/GfmnznO+qkbVRRQyMjdmTqhJ0cHPC+ktqnYie+hAf95LQElkVBgRIpvF8gnYKUCkwZoWqqCwWxFnV6KV1UP9hBXXWFoAHBh0fHcnxKLOG8U3qt7Rf+ORNPC7fZ2S1RzGkUT0OK79SP6knMbklKotHJkiYpD7smsWZ3BISLCQZDm6Lrz+xQkDauFPJ/0QhleM/CQJ1BXIXf7GFN9p379tmGpcts9YrV1ip2txVSSRMNX9oRLSpM5DbNyRYdqKTYGvMku9+pnxBDp0WeocZKgedCkhlkWWKU6asvMRQgpxYeX7m0+ATxFOe4Pq4VIQVzS4sJpFcsIITIY5EI9j2IqlhgWUhg9SfkS8xCTL65dmGcacN8JlsgWyBbIFsgWyBbIFsgWyBbIFsgW+C1ZwH/+j1xQxAmglQIGU4hZJBiqFUnIITwomlqjPAqjCLcySBV8F4JtU91rKd6IwWXJUwWeBK3O9qXoEGETXiwTCn+b8leOnnCTvWfdqVQl4inLsVxGh531Kky8q5RXyOWUsSIAje2oYJS/0fGS4oFhZBhwvNVk11gz9SPIIsgyiJBZAWeFAYE9+moCBUij+PfAhMDPSNP4M5EorlNizyORYXPJyTCAOhmLFnvyVjYuUw8LcxeZz8381APf7N8Yhs16VgEmIzNCqSNADLc4CoTJRE20ZG02gThUukclQaxE7/jCkRVTKxK3COfeFowaLdDzHSfiKcOtuEUezOi4OGUh/BiwRgVmYOPbrtWhg758Z4We30KpZa27GQQED4t8oeNoGy0Welf6ht5Ygxxjd++BScrp8bMZGeh0G+1Hb1ncUnyRxY96o9FgXGkXDU20FjHpcKaFPGUFE8xfhaxnLIFsgWyBbIFsgWyBbIFsgWyBbIFsgXOfwsUjiJSDilEi0inQbmtdWg38hERJ4gZWpu0Y7rwZeCowFLjBdt0JmwZ8XeFtQTTyMcX/fHqX/+boKFvOMV74gYfHR23nQcP2sbly21F3wpr027piBkaG+RSJxAozZXKsxMe8ZfAd2aDKndyVLvYSa01pTwnRodVF8qpVr8xkFCQaPQd/soFBQXGDDIpiCyPBOX9I0xMCC+4DvYEb/KKDSgLadYkEIywA5xJn6LeVH/wWJBOExJagCdbVKaCOs//Z+bVGEEmnl4Nqxdtai4Eg6rXtlYpjBRjiQQZFBMsJgjxkoIwigceAiUe/FAOBT0z+0AibxA91bmYwMgdmXKQXJ1tnXKba7Z+SRyPDehQYLrYoQ6XuorbG0QRO9kNTbT6IgNphXLJJ7FII9zygjxCnYXvbepvBJKjLZRKXKMPLGIou1A4sQAQxDyCwUXwNuqPJSONlIVPo/I6Ur8YX1ynXl9otEhMuIwzp2yBbIFsgWyBbIFsgWyBbIFsgWyBbIELwwKCQJ4CT+JXJ1wlYQABxsFEBMkmTArxcJuFs9glLjxZIi5Swk3UEQQNuDKpiAKnVVuKGiBvqlPg0+lf/iNkWLJkiXW0tTnhg5AhyKYmhXYhPvC4NqFqd+IJQcMpCRhOlkYlZAi1EbgxCQ4iHlOQQUnQkAik6EoYIeFOYwe/gpRCDIGQgbYTjgZ3cmCiUH5RPtpN9YFHwzZ61fskZGDckFQ5Ld4CmXhavO3OSkl/yPXMN0M8tUC0xKTHnQ35IpNDLz4l0iRgEjY4mRPHdKZ6erfSdKrtLBO0w9nmYK5ZTE5qV7rHnnrS3dT2HT8huaNiJOmHCUs9iURCEpm2wGSVo32IJxaK2LGAeFAw00GYwS0H2xzEky8R+gW5lCZ9CpZOGcqy1SbXU7noP+OFKWchYS3gcyyWoWpCBhn+ybDdoxNyW3Sf55yyBbIFsgWyBbIFsgWyBbIFsgWyBbIFLjwLEH8If5DWNsXZFaYEI4LbEA40u4BBqh6ddQymBL5K+DG+4K9vE77gT+FMyJEUT5E7CB3fTVyED5wPdXZISNEiAmxoaNCOCFsel5AhdkgPjxk5zEi5NGldysMu6BxgyLTZVCKMwIHSRAUWVs9TEPEQTAS9lAQM4MfA0JBtjLPRd9mjb46bsQ6YmhqFWcMOYETKxTjAuyklko02IZ48dnC0IKJP5StZy2Xym7ktkImnuW30iuXgoXV/UU3UJm0h2SjWlwc8/QTpUmGXfdL4TyVxzncmcLp7ZqqcpRSfUDehNArSCRY8Md4TCjC+/8gxLQb46MJGs/WlmOryznbRcvIDbtOC0Nfa4f0lH+eRUbJQRCDyYJW9V3Kjo/f+lnHrE3naGiGYUDyFWooFjb6hquI10UYhx6SvofpC1kneiB0VxBaLGA56JNRO45JGTkhimlO2QLZAtkC2QLZAtkC2QLZAtkC2QLbAhWiBBmEqyKf2tg5raWt3Egd8FyIAiJUmx3dBIlWQZJBOYKuFf1EfuFRtiuBBMDEhYQB48NSpQXvs6WecsNl3/Lg2oFLUJZFf0j25ygmyKBFfuNwta213TJj6zDXwHngy4cO4Z0EoMSawZxJlBO4MD56kwAqci8iixW1A+5QJuipJOQJx8yliBmODissdbYInpwRwcQEkeb7CXS/6lH8vxAKvGPF08MBBO3z4sK1dt9ZWrVo1d5/ifqbnYe78r1SOyjO5sBYWW46HOGafM9H4sTqZonM+ATURIZXiZ/qiEOytiBVlZ6IV1fiEnp7S54Ko0STCHY4JmwK8kT9IL5NSiLblh6sK00+4wwXxlRaGNi0045MonZRLSiN2uWtWU7Sf4jzFAkBL7EoQ6ipUUYlgIh+LTjDS9EITunChIw/lWTAguXynPF2LZYGcjCtIL97RD3x6KTNFcHEteG4UpSTV9A85ZQtkC2QLZAtkC2QLZAtkC2QLZAtkC5znFgjYJ/ADBlK8YHYbB/7El/PhHZPwEucTvuKVOL+E43ZhA14jCY8XJA0YFComxUyqmCoRNCFkaBZOow5w45gCjO8TB1AS3mR39O7mVvUlhAyTE0lsQLymwLWdIocS8QTGBH+iPkqEUi2uDWwZcgbe4ynTLvEGmDYRWwlnRkgZhAwgxWg78GhQTAKKOlsdMzgwMPVyNChky5iCnU+yU7pqcJv5u5wWY4HZiaeXQaTwrH774W/b3/zN39iPvfPH7IMf/KB1dHYspn/nrsxix1ueoHW6Oo864ZjINs6Dzc4DmmyoeSbFpoayiAWjonpKrTi5og+UT49/TMTpkyFNjvDdpUwwxCxGMN+icn1isRBBekHykChHHl6J3cRCUNL60KDMsbiEax0MOWU5lxalyqT0HhYTNepiclenYKRD3cR52qSvjZBPKsn1VrWJDJO+E+CcVOlnLDzRD3LQdy0gyqcYdc7++0lSXicKQ+SXbIFsgWyBbIFsgWyBbIFsgWyBbIELxwIB6FylI3zGTuN82R87mSNsqIQoCZQVmAqs57jSv/ifiTmr7TMNT05KveSbyYWHCzgQsOVhYvQzrn6AZSGgHJ0J00FNQQ7RTqDNCDAe4oG4rsuegkSKsC2ODfGEKTBdePp4z9UeoVsgnxLxFPkCj0Z5coIdO0XM8T4QY1RGnVEvfUQkESIQ6gZHRoynFDNYeDaYvuhk/r0gC8xOPFVVc+rkKXtu53O2e9duO/TSIQf1fcv7bOtlW+2KK6/wAGJlcF+UK42W7PHHHxfrOWbXX3+9XX3N1WfuWC0pEM+jlzlx4oTt2rnL9uzZ4yqqkdERBeJutb6+PtuwYYNdfvnltnr1as/rRIMSD8Xzu5+3J37whHxMh2z9uvV21farbMWKFX69Nj311FOeF3XWtddeaytXrixnoe0fPvlDY0wkYguxRWS7tojs7en1ttetX2c9PT3Tq60dU22j6TPEjiZBkEHB9E7JNc1ZaR0sGCkxIZyB9cWBs0k6GLcgLR4pHzkS2ZSIqcQcK76bCK4K8eTMOD66aqOiQIoFiGtcbmrQrggq57JF6i4WqdQur5FiMeO9L3jFfeFzIqZisajsWBeLZLoeO/pBOjmLrUWI/vJKC4yFPrGgxWIULDYkGQtVgxa5kREx1OxGIHe7BvW3UQtSTtkC2QLZAtkC2QLZAtkC2QLZAtkC2QIXjAUclIWQgXhEiBg4ws2MzZtCyZMwE1iMxCtYilckAvHeaaIZpkl4kgtgVNFaehfxeKsJoZLEFCn2EnlDyFDQTMJjY7ruO7i7N0xQQBFfqfDEcawXODewa2wqBQ4M/BnYNEpGN+k/3jyoniKxaZVMIpwbmDY2yoKcClUVuYK4CiKpGrTH+8CvGquMMqk+B2FVwZ1FQ/llARaYnXgq7P/DH/7Q7rvvPvvOd75ju3fvtpdeeskDbC3XNomXXXaZve1tb7P33f0+u/iSi6c1C3lz3XXX2UMPPWTfeuhbtu2KbdYi1UqZl6jOzWSpvt/FNRjbHc/usM/d9zl78MEHnXg6cuSIjY6OanvGNiee1q1bZ9dec629/e1vt5vfcLMtXbq0XPM3vvEN+6P/949scHDQ1q9fbx/5yEfs/e9/vxNGtemBBx6w//xH/9luvfVWJ5Kqiadvfetbdu/H7rUB7fSWCJQW7epGPZBN5GW873j7O+yqq65SYLfY/rG2jXqfmfccTpbojU9kEVsQTkw2Z6C9YCiGmHAcEyKAnCfS9RQijVwxUUMFlErGIhOTNa6nGiG3wvBMXt4jb+SME016F4xy9JzA3uywNzap8963YIb1zt8H6RR1R48r5FPUUPmdxkH/KRdkGLR5QbhpISJP+PaGTbATUZ7cJmUiy3uufkZcqLRNJlzdmIjC8dKYVggINi1yEE+pHJXllC2QLZAtkC2QLZAtkC2QLZAtkC2QLXAeWwBchCgBIInSCDyHK1tsxCR3skLJVCFrIHOEwVQGDJageMWtLRRGFawXYoOE8hx/OskTwokUAwnc6KKAAieyUzl5wbe0PSoOAWwXXj0Jw4YaietRb8JoqTUwKmOgD4Etgzir4E/6QkiWamIq4eDYwQ5RRair6DPCC5RSiYCg3wkdN/o1iCx590jAMKQd91IIl0mdZ+fAnBZngdmJJ1kfgunrX/u6ffzjH7fu7m7btm2b3X777VYqlezpp592UulHP/qRS9B+/ud+3lasrKiJLrroIieEvvzlL9v3vvc9e9ePvcs2btpYkBNzd/b4ieNONn3mM5+x+++/3xVGtA/B09vb6xUcO3bMdu7caX/x6b+w3c/vduXVLbfeEs+Z+r9v3z574oknnKQgH0TV9u3b7ZprrpnRgaPHjnoe2kDRVZ0OHzns4+3q6vLya9eu9ctHjx71g2tf+9rX7JFHHrGffP9P2lve8payAksDPmOCByFLsyZDq8aYGGIe+qByooJE1Ewnd7hWrwGmzvTzERspJnRth4KlJn+w4fEuXP4qeYN59ompvtECJFQQWYn9pdVUOlwEKZ/Iq5jS0xl02k6LkY/RGfZQYSVCCSLO1VhKIQFNdSSpJleCDa+QbA1OUJa0WEDoNSbdpteSU7ZAtkC2wKtngc//PzfNq/H7XrjB/uKLp2fk7WxVbLw6328cH6j839XXPX2tnVHJeXLifVfusXfcGGpjutzfcr0NtrzOe8+XQfXSpY2fLp9eOr7P7vn0XfWyzThXbb/edv0Rq7+Q3nxtp12+ZaPnPXLkWfu7h6JYdd50P67b2mc3XxFq6cHBY/bf7j/qmevl5bw2+tEftDPv2Z/f85ANNMffUwPjK+yR/dui0Vl+37T+GcXQiLa6x4/aP//0rbPkPHunq/te+zxWj7e2xTPlfbnPbGr3Q+/qtXtuO25D+/bUNl/+/OO//sis1/KFbIFsgWyB888CgbIgRTjCKwS3sMBPaTwJW4K5AsNRLoV3CVEBeeNaoLpaW0AOBSEVhBDXIZKqc9N+ihXshFiRoi0FGhf4I0g3sM9JHlVKAPBK8pwuLAhXQf6vVAuqqoCEnpU201jifUGiqb5GhBwQRTogu+g3idcUCyp5zkS/kughCCrKKBCze9BMaNMtjx0sV71GKatyWpwF5rQchNOP/diP2R233+GuamvXrLWSgob94Ikf2Mc/8XH7yle+4sctb7jF3rTyTeVeoAaCxNm8ebPt2LHDj40b44+3gpuIvDwEleexXP673/2uffSjH3V3Pdz5PviTH7Sbb77Z1UW9S3o9IDdk0a5du5ygeuaZZ2zX7l1BPKmWmH6qWg+buwIqPfzww/a1r37NLrnkEieRapNvs1gc1dfwKYW42LJli/3s//qzrqwiQXwdPXLUnnzySfvs5z7rJBv9IX3ggx+w1pY6yKCmUR+65l2z1GBsPQmxwgQJiWMsFvyO8SRDhdE4F8xyvFJVMNUx6cKwySc2VEFB0HiTSuHjCvHjc8sXHq7E5IZdTjcnFhNfApzGJgZVBPJOZBU5YkHwqqmbRUj5mPRBPsVIKvLNNI4gn2J00bM0rtHJMTH2LBbor1iQYlHwlUpHMNRxTiN0EistKMPDw+5myb3zxc27Vedhiyv5d7ZAtkC2QLbAa8wCzxxZZndPPmcjjfGFU8Pwi/bE0y3+hVe9tLFP58Pz3i//1RMX18s25zl37Vauzo6+ct6VKy/X+2fnLEuGrq7l+h1k0LwKVGX6zBPrymQbhBLE0s4hfalWJ13a+e0y6cRlyp6LVE2YnYv2chvZAtkC2QLZArNbgJAi4GmEGi0KUVIhljgd5Iwc8RxPoQACKzkRU8Cj2WsOJBhZIxB3yjsdm1IRuLLiTZPyxaZUtBfEUuDNUGEhYkibSoE7Q8lU6Rj1JaIpCRmi3ijHmBNWDSEDnxAmhEiiGltSF/GNQ6RQwcrkT/GpsEllrKGSwnsG8sk9t0Q85bR4C8xOPMnqTTLuXXfdZXfccYdtuWjLNGkZqh9c3x577DF74YUX/HiTfspJ5SFqOCB8nnn2GbvzzjsrdcSTULfn1PuFL3zB68Zd79f/1a/bnXfd6W504YcZxejD1Vdfba9//evtsUcfc7c7T/7QVBqAAOvo6PB+3P/V++2Nb3yjve6m+MY0daA8Gapp1JreUQcxpXAxJKXX2267zbZu3equerjl3ff5+1xVtf3q7TU11PsYEzV4lBSviSkZKwGT1UPE6eP0Ca7PVQwyNVfkkBWSJsYV5E/16sKkq7YR9ZOqCSJOYY5oV65qnoPfsTAwgeNzatszlJMvaGoljSUtDHE2aqM92oYVn2jQRpt6T5Bz6pZ3nC+c9ICdFmJhSIw1pBMNBOmE/y558RvGXoz71OBAfCOuOtlmNKdsgWyBbIFsgfPLAs8cWWLNk5IGFUs4RMwl6y+1gfH1MwbS3XzELu18rHy+ffK0PXMk/r+ekXmeJx7bcdxzblzdZfc98KK/r+W8xmGppEJ7vMhLnkNHR+rm9ZNzpFqyjTFDMFWTT4x1TevOaaTT2RjvHF3zywNDFd98y3MAACAASURBVJXWfPLnPNkC2QLZAtkC58YCbPYE+RQhUELV5LvVeQI3JXzsKM/PxrvAnoncqbjceZZZE6UqAoYQAASxFHUHUguyB9e/JCIgYhL6hikJAlo8zEpgYLBdiA2CGEsCgxQaJjoSAo1aLQHiCZRUEGskz6UO+HmwpYQT2lSvwLpRvyg55UxkWQglKAOeZBwooxAyjAwNB5asbXRWy+QL9SwwO/FU5N5y0ZZ65Zz1W7N2jQfrPn36dN1vH1E4QdQQl4nA5P39/bZ0WSUGU72KceP7ype/Yl/84hedaPrAT37A3vnOd1pnV+fM7MXcWbd2na17j0inNJdqckJQXXftdXb8+HF3+4N8umzrZWUlVHV23PKqA2HPbHTmmWXLltm73vUuO3DwgMfBQoH1pS9/yUm37p7umQWqz/gDrEnCIqHDXeLUBx76eMXNLA4+xw4FcS0FPQuFVO3gmfCpriBvgsAJdRFl0C/FAhAMdaidYuGhi2nxiXo4QwkmaszoKMvVRCLFwCqyzugTY+InkWecTXlCiqnx6SRB8Ma1FV28BvmE8x0kFAd9joP2kGnioggb3WAdTa069C04CwvG08FzeeLYcRuXQq+5uS1W1lozRZfz72yBbIFsgWyB16gFUPG8+8YBfVcbKuJLOx+2QyNbbWCyTwRUuLataX3W1rTvmDaCnfubRTyF4nk+Q8MNLCl5eMUF/tDxIfviw0PTip8emU684C0HGdPdOZ18otBIlSvdXH2gjmb9xfz4/iX29KmNtm1zg5VOn/RikE/X9f79rFW09i61v/rhDfbQ87hmTlqtS9usBRd4gT5WD0kmm+b2WUvKLbD6nD1bIFsgWyBbYBEWQCggsBRsin/zH8QPVYHDIFJczKDTITZwNFa0FGKEECRUytXrBkgwYgCH6KCCWavr81bVTvxfSY0VTMm5aDdalYBAGWJn9IQnQ1TgY0KI4D8pRTtcAn9WY9AKwRQBxIO0or3wJgo1VdQZLnhRPvAvsYIru+KVJiWGEGHXKFvCXwwO9KsrqisJGTKeLN+RhbyZk3iqW1ncbSebOHBlS3GXqvNDMhGomx3o2A2PwORzEU+HXzpsj3zvEVdQvfvd73Z1Ul3SiYaKflQ9jTO6mxRSr7/59davh+ZP/uRPPB7T7W+63W69bWYchGpFVXVl1bvlzWxEf3h1tNub73izEdD8s5/9rBGUnfHOSTwVY2hqa7G21rZgqPWgJzVPWjgSaRMscvqjN8Vsiik5XVmUJnXqrXPSzvoyuZnskDeuLHK2l5QWm8prcpODH0sTlonsi1Z50qX8cSItAqk/rH+hzgrGG/kj4eSC4oJMC+njiGKKMdE5RrQTXSofxBs7IIhoUqC31A/6HdtnNtlIk8bWEtt2NkipB0F26tRJO3zooI2Iqe7uEPFU7m8x3PySLZAtkC1wgViAmDsXWkpj+svHt9hlF79kFy87VR5iLclUO/al266z/+ur44qvFMqjFLOpNl/1Z+JmDVXZEYIJAscDk+qvpdqYTNVlE/kEcZTSQt3RqKNUsDq//Zcr7Q9+c4Vd2vtMmXyare+QTjsntykeWMW1r14MsNnKz/d8PdIJsq06LYRom2+7C80XcdFwkay4SaY62o8+6W9/fKGV5vzZAtkC2QLngQUahYGacAlzFBVKohAqBN4KfInXCGRQiAIYlmM1L1ULlvicjmQA3OSSuCGuBV4sWvW6q2P9VgwHhkxKJCeG5PoXKHJ6u5wNPBlXET1E2RAk0KdUMvBtbMzlqiYXMUC0oXRSbCZXWgWOTe8jxhP4F2yK6iowJecRMrh7oBgxtBan9AXQUQkZCDTexB8DtSaqDC+/m8MCiyOeZPChwSHb8/weJ1fe8IY3uLKpnApSguBmK5avcGLq0KFDfly+jRgJs6cXX3zROHigcWW79LJLZ8+8gBu/Zs0ae9tb3+YB0Qk4TsBy+sLufNXJFU/FFJi94fpX6Oull0Z/U+DxSy69pH7mmrOt+iuxXeRI7OIW0sjQF5ExJl0QMNE/nziykU/3wg5MnNT3Cqsbk9/Jb/J6iagvJnXlcywETMAgpMgfbHHkh6hKrntM8iCtOBeTefrtiOWrdnaSl3aCvErjSotK7F7nbneFyotFgx8WkOg3BFS0xILEAjEx1eojahahVRIb3azLJSmfTvYP2skTp2xMaGFSpBZyzqbscufPQU7ZAtkC2QLngwUSefPv/nat/ftfXG9b7fGy8mm2/vfK7f5f3ztuT+4I0glVDn8rzidBUFUrmhZCHlUTR/NpqzYP/SQlRdFv/sFR+1/e3G0/efnecoyr6jLNVrL28dP2V9/ZYP/1HyukE2M422k+pFNtnkTa1SrEznbfUn3VirV6QfnJ19e9xbPf+0p1ItebLZAtkC3wKljAoZG2RG/RzuoIPkjVWNDfF3AOjIV3SS3eTR40oQCqHkTCdJVz4Lhqd7wkkIgcCTfyKrTmJFURc8m7EUHDI5xKBT1WsCr/hyU8HtdDwBA4F7zLGGJXutSn2F1vTHwRLn0IGErCjiXFCnYSCdTq5UQmCS+ibqL9hIVbG1vkQdNs7YqPRZ8DZ1NXg4inATummM7Dw0PWyc71GhZKqJwWboF5/ik2s2J2cnvwWw+64ok4TNUEUYXQMFdCcZw4ccKPuRJueZA2xFMikHm1koodbAhqzg5205IeANz+2EVv5aqQ3afrSakEYXL99dd7nCl24vvq177qaqq73nJXZC2en3rBxefqc7pOQPXlfcuNV8ZA8PE5E+3qaFWZpQrk3lZs0RhbTYrdLdzh0vOdCBufjj7pNAk1KZgF5Ek+sOSLFPGdfALx40G2WQBiwKF+CullkETkj6WoorIKhRVlVNInaiKwUvDwIK1ovzLiyFN8Jsi43ka70xewmPhqQ/WnxSSYd+fqjU0GE/mUqqduFhzONzWMWaN4Kbbs5Pq4FpvRMS1qOnfq1Ckb6D9tS1bqm8+IHFfpYH6XLZAtkC3wKliA3ermk36w8wKUMc1n4EUeVDu4bjmhoze//cdm//E943bp+hEbb2yfQUAR4wj3uj//HyV7cm+FdKpV5ZypCxBUteRTvfyQRNRL/84WsZL6WU3g/O1DnfaF773O2N3vqlUnbftauY9buz1zsNOeOrzUPvf0dldi6X9X7+Z8lF31xnOmc7WEUhp7dZl6eZLqqpoQOlM7L/datFdxl3y59eXy2QLZAtkC54UFCnAEJoJ4AoeCrcCIECwuFBDsCyIKAqYSxiUQH6OsxAOO6hw1+vADtVUUSGC9wGlhnfjM/0GBR+Ns5I/6K+CQHNM5m3QttRqChkqJ6IHj12kCi9QzXiuEFGNNQo30CgFFH/lMvYmIir4Epm1VnKn2plBJ4U1DmSa1NzI+ZSdHB+3Y0SM2OjJqbRIykBqFOXNauAXmZ7V09+P5s53P7bS/+Iu/8HhJ1157rZM5fX0VSXO1uxq74nEMDg7akJjCuRJ52IkM4gn3tep06uQp+/zff95d2WpjMUF+/ct/8S9nEE+pPA/+8hXLPVj6Aw884KonyCcCgK9atcqzJdJpGmEyV4drrjPZ6buPV+OYT2IaNLe3WXt3l+9EMCmmBckfu8dN6Iid7hLZk2rkZiSFEzcobk5M5pAjMsnSklHNesfZuALRQxnagKziPeNHOcTEhPhigYLkgSFmGcGWTgk5UZQY72CSKwtY/BFcGX+w19MXm2grkWxII2mjTUNPjDUxrUoaCLGb+MMau9C/WOSIURWsNMz9idKI96m9ifGrHu0qOCVbjpe0iwP2TI0nUq5QTs3nHuU82QLZAtkCZ8sCs6kxzlb9F1I9kDHVpMb//Y/X+fAgYkiQMRAwJAKJE9MpETH1CBLPOEdK5BNxBGdTPCWXuuq8BBlfQEgn78WtN1xhb7xpm7/nT57vPLrDvvv4j2YQWp97eotIpjN3/LVEOi2E7DvzqBZ2FfKpPUnHVLSWGOTZuP0NVyys0pw7WyBbIFvgNW6BJDho7Wyznm5haGEhKCPIJxCZK330QwI1OpLTOQ7gEF4kZXhU5KsecsKUEEBRS1wN7BgYkDPgyXjlNx4s0QYtgM3CGz1iCwcejd5UhAxRL31NmDJc7uikzhSd5HrCtkEkycXQcZ02mnKMGgSTj8/rCsKIPowppAtlKM9PCCDCLoRx6RABRQKPI2YYFyg9dbJfQoZ+CRkkcDn7ouIY9D+B3/MjnjBE8ZSdPHnSPve5z9nf/O3fWGdnp73//e+3171u+g5x1XZrFfPa1tbmgb1Lo3N/e9vMFpBS/UDajAzHN5apvp6eHtt+1XZXE02KaIAo2rVrl+9+t3PnzjMrjAryjCDjuNy56umrX7Xbbr3N3vXud5W7XA4sXuFyFvQYjIyO2OjoqLW0tFhzy9zm9cBrTBTyajY2SCYp0tUnDAmCB8qJyRQEUdwIJpJfw/l0WoqJnW5YEESVxWfmYGKgIYNkcYDcwYUNf1d9m6vPQ/pGF2KHiUa+CRXhMzvFERAu1FTBUNPvWMRiAJVFjmUvseXRC/oWi0rk4nezj7PBhsUo949JueQSyXC9Y9mAgIqA47GINmnru5aGFhsSYQVZBUG2XM9cixbcTpF53Z3dHrid1XRKnfPd7XxhyilbIFsgW+C1b4Fa96vXfo/Pfg8hMWrjK0HEkGYjYxZLOqXe898G/4NXkxivv+4K++yf/dt5DfDfffSv7fc/8dly3t/65Z+wf/+//dS8yv7ER/6Dk0993aGomqsQf8iT92yneiqmWkJpPnnOdr8WUl+ti+Vv/OLd9m//5fzuw0LayXmzBbIFsgVeNQsI1oCdgJStbe3W09VlbfqPwXGP8FFDsWMcpFD6Dr6Cz4LMSecT/ozP8UV/Im8QABDOpDZxPQgl6g/xA5iPOhKGAxVG3KXAl95f4T7CuyQCrNZ1L8E18GLg2mg8YlbRiwIse4ciIHk1/nVcqf8a4QwmpGAilEsisyK0TRoM9QShBqY9JhxPmx3iJOh/h1wX4dMmBDQJ2dKQPWjc4otJczMj1FrcF+I6feUrX3HSaULEwD/78D+zn3jfT/juc9MS968ok4gRbjrHXIlg3BBMbF14RLI2CCgILlLvkl5774+/126/43Z/1iCePv3pT9uzzz7r71Obnrl4FssqpuLpJbj5XaieHnzAvvWtb9nXvv41u/HGG6NIwaL6Q1lnYs3V97HSmJ0+ddr7jk2WLV02VxFdT5OItwUzrdeQBwYby8RlMoYvbPUkC5InLRa1jZUXF19ogriKOmKBSmRWGipttmkyrdBXhq0iwpoI0q1zh/pP2VGRgOOyD7JDmGfpoPQjFhgmeQoVEgopauJgEUu9iXsejwRjIAd/IKe8lTJpgRoSu3xaO9ENT5S8fcimUbHOLDTNUoA1ufKKGlRWVTWLfIJMatdfmC165VaP6FnzQHFagBuLYK+ev+rZrLVX/pwtkC2QLXAuLIDrUUosT7XguF4fagF+vTzny7laEin1+0w7sdUqWeqN9V985G4piK6UomV7+fI3H37SHnrsafujP7tvWhHy/u+/+lOWSJ569SWi6fc+9tde/uYbt9bLVvfcg488M+08nyGj/Dum4i8v1Dj6fqWc7njDlXbXrdu9HYgn0nyejfnkqdvJqpOz3ZOUpR6RV/tM1stT2y6qMAXSqD19Tj6jLsuk0zkxdW4kWyBb4BxbwAUJOhpROokdaiQGrpZbMNeU4gEmtVHgMHBgYEFwEdAoEU50u4IrA9NxDdIKHEU7gR8TdRX5HR0WWDuIosCuxJ1iB3LKQeIgaGh0kAiWRFoROK8RDxyvGxFE0R99jhAx0bbjS+9tJaUQMtNOqtZWYUA2szotsqhfmBLXuQrxFKFqwtsHAozeSMBAMHH1akJkGG0ta9XGXxLDtAtLdnf2WKsHbYfIol+BN6e3mz/NZYH5EU+qBfXRP37jH+2Tn/ykHThwwD74wQ/az/7sz9rmLZtntsFzWqRSqWRjY2Me6Az101xp9arV7vrGDd27d68f27aFDJ2yBCrnSAkyqtq1r7b+soKpqk9Xbb/K3QNxt/vGN7/hu9Hx1J2pntp6630+ePCg7T+w3wm2dQpuunbt2nrZas7xkAcRk4igoFWYBnFwnUlbmeJRRWX6VV8LdRQlmeRJRkgJ6mExicUhLRSxmHAd0mltb5ddtnaV9SguV5tcBofHRq3jhT02tG+/nSpNFMHYwuUulE6qsFAaBZkUjHEaJGsQ/Yj2g3hK13hNRBjv8UNmzEP6a3x4YkyLE1LIKQWIY7Eogop7MPHw1aUMfSDGVYcaYqEaUr6TYyPOSK9s0iLRKT9n/tIvFsPqtvP7bIFsgWyBV8MCi9lxDNeutOPZq9Hns9FmrdtTbZ24tbGr3GJcxj59729PI5xS3ZBQHLUkEy5tJBRM62/8cG1X/PNsRFO1mqkeWVaPxHnosR+JAPuR75KX7n+9fBBP5zLNdU/oSz1CaTGkE3Ut1BXxbNoiuTRCJPI85JQtkC2QLXC+W4B4vyQXegDyRJQ0cAj38DE8XyrkUOzmVgWKVTbwYgUfJptAVqWYwNQElErkUsqTcGZ6BZuCxzr0N8ty7djeKhFDswicEDL025GhEX8fyijhOIHIRhE9eNJ4f4XpAsMWLQSEpJdOQiUsHMi3ehyV9+5eCCbULnSnhWOHi53SIZ9G5WYXYo5kk/gihHMliRs6RNy1qiOMp0mviB/wlmnVzvMe4xhzCy9nWJmegIW9zot4gnT65je/aR/72Mfsqaeesve85z32K7/8K3PuUEdXcD0bGRmJmE2KfzRX2rJli23fvt2+8Y1veAypBx940C6+6OJZSStc82B1ZyQ9f0yYal9Qf5J1HkXVW9/yVnvwwQft61//uqueIMim5a2pMCmnKD9beuz7j9n3v/99j2l1+dbLbf369bNlLZ/3hYJ+FQsHEwWyhYee6cXnMtvrEy7G6m5qxFjyXMEqJ1IpTfpYBCqLDY0m0onXkDR64z6Zeloa7WIP0n61LV3Rp7hTrTagey+e3HYdOWYnSwPeb+9TsbCwYPAJW/t65+RRGCn6mFaMmYbz/musacxeuRILA8TT4Piox5piMQr3v/DbhceaUCHIKOpoaSxZ23iztWlRaNQWmC0iOftWrLRLr7zCNl5ykWKFdYR9ifM0sxup2fyaLZAtkC2QLfAKWWA+BEdqmmDdCyGfUC9BLqFu+sNPfq6sFqI+VEu/8Yvv8+u83vNroSRCUUR+zkNa3fNrv7vgkf/Bb66w67p32OS+H0wr27jhGptcumnaznpf/k/dVho4qXhVG6xx4Kj/3dLevMds6Srr7O60t/yruUMRzNVBbIygaL5pPjGpzibpNN9+vdL5UK9l4umVtnKuP1sgW+BcWsBxGBhRWBF2BEzGfwfpy3/6EjgN97MAQwmDgcMCCwKTEqYO4ipAahBOifQJvFk5l9RQUQexdpskZOi2y1avsm69EndqaLxkrXv22OkXD0iBNCa8CDmGCkr1uNJJyif3aqEzoMyEHyuvgdMDCydvNyfNyrgziCmu4ZUDlix5PKcJV1rxmbAsuNkhakIoEkRakoAQ8kViB5UGi57Qf8vg2pXylkLI0CASDcYpQ8nFP9lzEk/EK4Kgufdj99p3vvMde8tb3mK/+qu/alcI1M8nEROKncU2bdpU2aEunqm6xZf1LbM3v/nNHgAcV7gv/sMXfde8666/LmL11JbS3a9LPFXlKyuZqp4UVFSQTxBFX//HrwfzWrgCllVSqQ6Vm0sNtXvXbvuHf/gH27Fjhyu06HOXgoXPK6ld/HAJYjYmVpZJSKpmc1NwtmKt8KtO7PjEhHkNv9oYYpqCUU8sEOGqV1ksUhuooKIuJmqfXAQ3bta96ltqjYpTNSLy56WjL1nH0z+yhv6BgliKsqG4gjgKaWRanLgaQ6A3acHgbBBpabHgDIsd46Bfo85Ec4z5NphqzJYv77MVIpF6ZctVK1ZYj9RuE/rLekz+CaVxLSAe80kLhXwNOju7rKedYPY9tn7jJrvossvsossvtR6NaUoNZHY67lv+nS2QLZAtcK4tMFIjdYHQIH5SchOrVf+Qv7twk56rr4lEqEceQTBBNu1/9L/PUESRP52HoErubXO1l65vsx/Y8UPaRKR5g3Vu/11761vf6pd+53d+x5588knboL+wNlwZuf/wExGz8rOf/UM/cfr0afvH//IWs4E9yrRFZ+b8cywqmuV3rQJplmxnPI0aK7l+cj8gps63mE5nHGBxkXudU7ZAtkC2wIVgAbDiNPczvp0nbpKwJfGTYEnAWEEuVUac6JPAciEiSFcT1qRMEjFwzVVAqisO8GMQPeCrhDXJ19PSZBevXmPXXHOVhAzLrLGjzQa0Mxwk0M7DR+RBk3zMwzMnlFURxgXUWC1ioL7kwZP654OakQIPcy1h3bGpkg1NoHgaU8iWwJit+tKnsbFFtBTbZ4n40q51kFKSPdjAuNzqmtrcpa5RJFN7R6ctW7bcLrvySttw8cXW3ikhQ0VfMaMH+cTcFjjjXzo8tN975Hv2sT/+mCuDbrnlFt85DlKlOpWVQjXIHjLl6JGjHvSbAORp97j0vFCuHqHzuhtfZ+9+97vt+eeft4cfftj+40f/o/30T/203XLrLba8b3kQUHrmjhw5Yi/seaH+7nE+WURJQKqonVoyqbOrsxzr6Ytf/KIPp9yfOs9zuQ6eax0opPoH+u3EiRO249kd9oX/8QX70pe+JKJkub3v7vfZja+LuFFz3wJyiJAR4ULk/Aki6E8G28wE5x2qnvGaFSMYbDoTKUiqWBTIH2qmIHWoBXY3LR6xO120mxYNro2obdza2FmPMUI6d0ot1Cu3u672zjLplJRS1IupquurEE1pMQpj0icWgsQsl/tdqLjY0Q7pJeVxuesQ6bV64zp741132HWvf71iZi3T5O9zF8BxFlPJJ7GZu9phJy0kzVooWCzaW7SzoALrdbBLoGSevqiq7Tq3tWy//CZbIFsgWyBb4JWxAEqcat6pnnsa7mfNWsdRO5HIT7mzEb/oTKMixhPudtVqqDPl5xq7zxHMe/L0If2n1jsj+1VXXeXE07lKZ4N0qlWYuTtgTSym2nbqqaHO1ZhfTjuzuVC+nDpz2WyBbIFsgVfTAu5BI6wI9h5XjNxxYTpXE0lZ5JSMe5mEVw39DDwWPQ6CyXOVsRq4MrmsVecHS0VomECeoZ4KGivtaIfiaZlC4SA66Vm+xKa0XfmIyJ+DLx2yrqd3WMPAkPeFuuRs46+okoLV4XP0g3aTYqtauQXx5RhZr1Mi16rjPCFmIJYTJBdkE8qlBrnP9fUtsWUSMCyV19NqYXWw7ZhsVJKQAdEHcZtouaW51Xo6hCHBvz29tnbDBrvk0sts89ZLrGuZ/r8PiE7XclqEBaYTT2HzcjUH9h+wv/3M3/rub4ODg75b25e+/CW7//77pzUFU7lJChOUSheLEUwIv1/bDkIO4WoH6bRG7OcZU9E+AcAJWk6bn/7LT/sueuxad9NNN9m6tev8YYH42aPYQ6ix+OawXW58HOXEUwzZoAdztsDml0kRww53jz76qL3wwguVsurHNFKMfimR51P/9VPuBjhaGjXG58STVE7PPPOMrVy10j78oQ/bhz70oXm52ZUbdAJOE0euYLwGU0swuNjOEbVT0QUV4X38YR5cFLnEGCM1ZKzUlW6AmyBmSMrLYsEPn4k/1y2iBjc2CByCeR8SUbhHUsjNF12kwNxytTs2ZKePn7QmkT0RqC0IrOh79MoDgOt6p4LZIZ3kc8rL5CdFkHlfSvwzp6cKppzxEqQ8XAybFGuq0Vb1rdBug++299zz07b+4i0Kdq4dBZxIZIWCTJQNCrvx2ZM+lx++OBOLbcpfnMsv2QLZAtkC2QLnzgK17l8pxtG2VXvtyks32YHjI/bwM+0zSCbKnfHbsbMwhGqXO1z2aoOQn4UmXtEqaskgGqsOXj+fxpPKqbdj2NYs67L1S3bY95/fZCdHKnE5a9s5H0kndhlkZ8HsZjefpyLnyRbIFjhvLJDgj14nRbZMiXEa93AkYK7AfGksgdnCW4Vz1YROdSBvMGWIBgJXVoQDgesSORReL7QT2ilwJiIGQqX47m8FRutQOBTwe49UQ2DEFLs4ypMNLBwYlxYjtlQ15qS3CVMG7iMP7+gniU/UgIKJV9roEJG0etNau+2uO+3am15XFjJ09/Z42BY2S3MRA5gSkQR90zdehPJplQiiU0KGTpFVxKnyWh17FrjTW81pIRao/E0X93JaWVcUiWyBOEJRgvsbR3VKiiLUUDCbF18i4qlI+/fvt33793lMpS2bt4ht7JtelselarLwkHDTOX3Z1svsl37xl2zjho3291/4e3vsscfsz/7sz7wfXXoIIMHG9XXomjVrXLn0zne8067YJvl0Goc/iTyMImRUpgF2oya1tbfZ29/+dieN/vy//bmTSC16yDiqE+oo2iTQ+ac+9Sm/5PEZRHQtW7bMVq9ebe9973udeKM+7DDfBFdCz2BjCb7eJiKoJAdUJnjsEhc1kScF4nbSxh//iPDkQdqYfPojPVhoyoQhKMOkZhIqGpYrnzj46dRfm0s1kfjs212OjttLIp527HjOJ92YJuPuvXvsBQWT75ebXbsmITvFpQkOYdWpwN2tklQCDwjwPSak0D82oUUlFrsx9iyIW+r9CNKMhYEUC0Ra9OgD/WI8vXKPu0YLxCVyWySwGyPFJtMmOxOfwyvDkMU9xqhefSxIvE27K8aF/DtbIFsgWyBb4FxYANUSQcNTSqTIuqVH7Ybt1+nvg5W2ciU7kR6xx3ccd9KkOv98+phiNc1GHBHDiUS+eom4UCkAOUHHF+pyV6/Oc3HubJNBb7z2Mtu4uktf+vG32sP29R9d6sM42+2cC9vM1sZ/+M9/nXe2m804+Xy2QLbA+WkB4R3Hk3wp/Sv4rQAAIABJREFUDzQS4RP4nI8FNtLIQGFgrQSJ+UwCm0HiEGOJ7/cDWE0XMtQaBrxJOeqDX8K9rkUubGA4wqXsP3LY9r+439bJZa2ptckGRoZs8MRpx6rNEilQvrnAbdQTwgTKyg1fsBLMyZdPya0v+hpjiRjBcY3zSZCR+pgEEMRLXqmYxe9897vsxz90j63bvNmahfGbFA+4nBJ2rB1gASX9NFATA1f+lKnNnT/P0wIV4qnyXJaLrlu/ztU7uL7VqoZ4kP0hKMptkBTN1U5V6fk9zztxtWXLFo97NGNXu+o29d5Jp6q0fsN6+/CHP2zXX3+9x2La++JeO378uKudIEZwa7vk4ku87su3Xe4kUDmpa7feeqv9m3/9b+xqBcueTW215aIt9nM/93Ped+refvV2342umuCgnt/6rd+yo0eP+gTmWosIog6xtktFkEB+bb18q4+T3fuKeVy2zbRB1XxIk17UqhRGbQqQrfKasNIOaRGQPFA/zdqKku0cIYhSYoL6lCfGUUEuoSDy6VdMlqSAql52qKFdJFeHJjSv5IeVZnIu09fQzS1tzpQf01iPyB7PPb/bjsulsEkLQa9URyxMMNlM8nb1eVlXu60iDtOSPhsfHLIXDh5WfSMsRQVTPnP0qX8VQ1XyJLlkM7sgih0nNbhMNGJYlccfK2N1wXrVTW/cV+Xpz9jM3uUz2QLZAtkC2QJnwwL1AoqnsE241UE6pXToaMRAWky71cTRrTdcWQ4wXh1YnHrJV5vIU+16hdvdYtKm7j2LKbboMq8kGdTVtVx/Z6UYHNPdJM9HpVO1kf/wk/fZo0/scPfKnLIFsgWyBS4UC4CT3GtG+Li9rdNdxsbHgmRyJY/wT8KciBKAlEkQkK5B2Di5gmDDDROAEhe6UCCFCIArlKdck+ruEh5cLvEEbnNgyuOjU3bk6DF77rmdvsPeqHYbf37/i7ZXQoYBCRlQPCFkSLAWrNst4qpDOJMW24T7cH0bUP+ToKJUgEfwb/QqxgO0q8SECs+fUFGF0mupRC/Xice46LKtiutUWGA+WLAGLoL9m2DBcnpZFjijih0lzwc+8IHZGygIjuLpnJYPomr37t3utnXHHXfY1q1bZ68nXalzPyF3iJfEgcqp/3S/vzZLaYNkDx/Mukl13X777R6Xiry1KiZ/aov2IKY4ZkvXXHONbb9quyR5QQTx8KGg8qDmVfWUy1Nvss1slVadd5JLdRHMu0kTtLFhXEcsFvDNrvTx15jkFHV2GKKpaCcIJ3IXyiAfXDJo7Frn7LIqQY3USWR+5T2mXQcHtNPACpFel4lohLxr1mIwPCIbK9/KJUutS2TUmFRMp4YVaHx4WPmlY8IXV7R1+7hc4KSaWrlxjfUfOWGlAwc9iBuseWzZmRavuQwRwc/5Yhwmu1v+te1axEhBrFVo5hn8URpmeq33QHpNylDvfs3VtXw9WyBbIFvgVbbAQlVAr3J3PT5TiteU+lIdR2jv8T77zo+O2M1XrPTXQ8cVpFtpMeNEoZRiNaFc4qhNXK9VMkE6vRwCorFX4QMUq6I2sfvvXIn/6xebXi7pVLv7XXK1e0yKMxRPpB8e2OyvBBmvTrXBxqdfPT8+1T4H50evcy+zBbIFsgXmtgBET2OryCdhs1E2avIUGIvXwGZlwFSuEJxJAialcChRsoInw3ukAqRQJSFi6BLZBdkzJIkS4VKWySMIsUlJ/9kckyfNiZMioXbvtMOnB+ShYyKp2n3H8kFdB8v2Cv8ul3fRSmHQFYrpOy68uffQYfV/1PviXjk66GPEd0rdTn2pqLMSucYVyuAi1yIhA/GACQdDeKDFpoS558NbLbaNC73cdFe7mc/hGcfv7OosIP/gwYMeXBNS5cYbb7RN2iltQaC/DkHQhiJoZahgztix4qL7aBKZtN646p07Q6WNmkgcnqr7Nls9s52v10Yxp2GamYjYFfY2bIvrGdtAyt0sPfFVdYSqaVL5m4vFIhqO31EPeUiQWYkVRr44qsBrR0eHnXzi2ppNG2zzps22SzGrDr70krPMvYrov0SBxYcGh7WASMU0POV9ZPe54eExGxTJ1NrdYRtGNtrJ0rAdGhwQ0y1FmiZ3j5hrXiOGVPIjDgIt/I6rjeHUGr30/Mu0M12Hdqnj5jnLrHpS8tFwD0jztfNC86fG8mu2QLZAtsBZtsDxgfn/4VMT3/ks9+SVqW4u0im1imsdR0oQKtUpxYJ6ZXppZdLp9z7213VjO+G6Vy8e0LDEWdzD1g36Qm3fDg8y/sy3P2kP3f9Z7+oN61rtbbetsH9977g9uSOUXF/+T91WGjhp9//tB8vD6fTd7BSTqbtTv2sYnnKu6W/mQzrV5pmlqmmnIQUh/z5x37PF+fhSr5oIfKWfRfrdXEjiagnIegHp5zOunCdbIFsgW+CCt0D6Rh5MJPFAk9ROLSKgJhtDMFENlpLaKcQMYRnIGD4HDkvnQtVUa7uE+8GWbAbVpvZo9qiw5Omxkq3SDnaXK0xOr3YhbxKeGx4ekipqylYtWSZFU7tUWBP6UmrEDg0Nace5Mce24M1OiRrWaEOodZuEJ6WWGla4ngHtrI7SCoVUkE4B+kL8lIBdeo2eRr7Gwk2vSZtjdVtne5d7z9DR6jHWjq3u5wLz14HgdbPnk2e2wBld7c5cVDfvDJTfE48/4e5x27dvt9tuvU1b3HdXyIK5Kub6fAmFM9V1NuqoV/9ZrTe4WfE+NjE2JnKn5MoqyCYmNTsSsKMdZI9LIF0DWZlkwdxGXCQmGzvMsX1myBeTrLK6w1EnpNOgJvmw2HBIrTHa04Tv1raXzQc7beDgfhvqH7Je3AlFACHfZLFi8qOWGtcuAMRyOj02ai2HD9vyvS/YqBjqY9ouc0hbUy5rFdvN4udugMgdg1CLxQ2CqTIG3sVOfBGPinLLulgo+GO8fvJ1YKH3YaH56zedz2YLZAtkC5wzC1TvBnfOGn0ZDc2XdKpuAlXNuL4NqR7rQkmOpFyCREpxmpIbHeQR19ff+OFys5BKpNlIp/mYAGLphnV99oXvbZiWnfEMlQamnXvHv+LzbCLzV5d0oqOo06rJnRhDLRFYfPk2H+MsIg/3vzTLAw8RNSQz1e6+t+BmNARXq+eULZAtkC1wQVlAyKgIQ8LOdgTOhqBhuYvd5iKeb+ySPl04kpRMYCvHa0U9kEIhXkgAiv8TQhjhcgGBVxRLeM4kIUOTJE0rN6y1zYqntOu5XXZIoVuahDmXSMiwTHiyXyrhUWFI+kb94FCEDP3jI9aiL2HWjw7ZibFhe2moX5hyXFhSXkv6gwBvHTAlKqYzEU9cI1wNv3HnW6oYza2K6azt/tw+SYwx7dY7q1SMcRasuGDMeUE9W2dvMLP9FbS4For7NiYC5dChQ/6f+51vvtPYWtjTLDdzcY1dOKXcLETVFxFUEvs7IZKpNIkcMNEzFcMFQ42hKwm3Oyd3dIqc4YubmOooy0RLk43Fgskek5MyQVztUgytjr6ltmTtSlslhnrvc8/bSeI7qWyrFFW43kEKtWkRaG3EHZAtKKfs6MCA7VTgdcgzFhAtU94WP8kFMBaJ6HO0PWlyLPQ8sXhFf8nHwtIrF8p2STFZ4Jyjqn529H7Bj9KCC1RbOL/PFsgWyBY4exb40Lu0Je880g92lsqKmXlkf9WzLJR0qkduMIiFxhFKJBLBw6t3pcOlKrlVQT7NFnx8oYa74w1XlovIk9/+xbXTa8AOX//2M/bQYz8qX7j1hivsjTdtO2NT7Lg2W6pVMdWzUW2e2eqa7Xwid+pdh5RCQP5qJwiyxZJPv/XLP+G72uWULZAtkC1w4VgggSLCrygMizDTuHD4iIQBkEytCvgdeCxcz9hsyndxKyJlp2sgqyQOAKcRzTcS9bJDXAJjlZi7YDYCiROCZVDkU0kEk28qJblyT98yecS028n9gzaqXeARMSzt7Hb+p1ltIWJoH28qlz+tOFDNR16yFS++ICJqRN4zw/KuSWqnwKr0J7BxUmhFHCfOhTgDrBsEFedQZC3rkgeNh+WpAwTTEOtdSw9InWIXzrNz7kdy9v6M0M2rdr27/obr7Td+/Tc8WDcBuGeQB+d+rK/JFpkgUwQT16Tm2WbixAQKlRMKJ5TnST1EniCQmC3BRKOKIrGI8BbFE2QRedN8CTc9XNaSn2/snBeudwRwE1l47JhdqbaueN0Ntmb9epsojYl82mVDkkNONbfZuBqC4Aq2GYllkzPRw3LB2yNZJHWPKvRTk1Y9FFolKbfCFzdIr+gmC1i420X/YzzJd5dxEGOqS6STx+VKLHSe+HGT8+9sgWyB894Cd29+bM4xtE+eVp43nzfE00JJJ/LXulNhlHqEypzGKjI89NjT881azkcw8mqyaj4V3HXrduM4Uxob/2t7/MnktmZ25y3b5r2bGoqt6lRLKNWz0Xzy1OvvbORfdd5Xw83Nia5CmERogOpnBfKpr3vhqqUHH3mmngnyuWyBbIFsgfPaAumLfsdMApHjEjGMTRC+hQ2kEARUvGWKr/udjKpOKfYRGI3NqsCiJHJFTO1K/hRzmCxg0HCXQ3SgcsJ+e17cY91Le225YkUPKWbw7meftVMDg767OrizRbGhEDG0yx2QzbOGJxpc8XxEBNWOPc8jX/CNrKi7saFVR/QlCLMknEhBxkO4kFwHEyaOsg22BOJJHjSYBlJu2rAztgzDnsPfZ4940s1LDzGEATvRcXiqvtG1N/0cDva12BQTHfnelGZMk75ORCUm6smNltzlmBfEPQqpZBg03PBCuRQsdfXiMH2kaTFhESEWFAsItyHNPtoZ1QK1ZOUK237tdXbJ9qvtxPKV9uLTO+y5HbvslHar69S2diOaxRBEsOcdTUUNmsUjWuBwu6OPsMv0jbaCeJpyqSOkVHV7PCvkd7pMdQZRVcS3UocaFE9LVfn1hfvUTR9//pQtkC2QLXC+WaBx0zVmL54fvV4M6VQbeBwyhfg+i4nrlIiaFI8pEUnVrnZYsppg4j35CUS+/9H/7i53tQlSqjothKD60/9+37Sx/PGn7isrhpIrYG179T7Ph1CaT556dXMOe6NmHtFf/bVebtyT9ldB6VSraOIPVfpY/cxAmC30WUGB9o5//n/al//8/5jNHPl8tkC2QLbA+WsB4SlUTyTIphALmGMsFEvgPXZIh9Tn/XSJAmXAdhGyJXYZB4KFO13CmmBIEB14LwX6dnc4x3QNNig3usPHjnsw720SoazesM5Kw4P2wnO7bUBKpk7F/x13ccKkb0QF0UXZMXn6IGR4/uhxF1uMCJcS3xfcSf8nGyIEDWNjoyz6EDvtcYZE38OFMPBzxDVuZ5d07UQP8xQUBCVzerUscPaIp3TP693PdC7ueIy1+v2rNfrXSLuYolGMb4MmR5Mmx2TDqC8GTGrEjjGRorOVhYIJl+ImhTF9uXC1U2VgaZrFcgJxRBn8c8NHF+a5o6nFyaJ2BX0jGtvw8ZM2cvK0TUoFRRwvFoZh9WNci0KziKul+kOUHQyI79Q4FotPcq2jf5UFqNKPYM5ZEIKYSrsq8DmY+MjLYkOf2bmwNKrKc8oWyBbIFsgWeM1a4GyQTrVEw0IHizsdbnaQSJBJ9QKC1yOW0k54tFevTL1+LIR8qi2/0LLzIZTmk6e2H7WfcaHrhWU6i0k4YVEpufSt6eu0LauO2/DQcXvh8Ao7OdLqMaiS8olXSLGFpu89/qyTjPO93wutP+fPFsgWyBY41xYoYz2+5Nc/x5ICZHEeAUDE/k2bTCUsFuQSAoAKngRCxlHZ6Koa2lOn41a1lbxawHghbmgUoTRlS1astKskZNiiHeN79y+3559+Rjvd77EDCs3SrcDnkEpj+j+CfqF6Ug+9/Igg76DIp5KWdgQLYEpwKxtaNet9CBkq634ESg9vHnAzecedqMLjhjGDWyN/jCF+u/qpelDn+ob9E27v7BJP9QxZTTBV3+R8w8vW8qBuYpTZgY8tlqU49AmdJIWYKtzreJeYZyY+frphYCYckxZ5ZBA5EDpcS6miLKJMi5qE9e6WCx2TnsVj/wsv2hfv+7xdpN3txvV14u5dexR3ioVHwcRhpVkatEjwuVlBzFPbbYr3BPuc3PnIk1wDyasSzpgH+RRud9Er6uSv09ixLvxzWXgm7OjJkzaoBQq/YgqiCGPsYYeqYeW32QLZAtkC2QIzLLAYRciMSuY48VognVIX7/m137WkcKrt9myED4QVAcdnK5fqma18bTsv53NtH7CtvjieljoIe1iV5pNnrj4d3H/IbrvpCvup971trqwLug6pl+JrLaRgUjHd/aaNKrbR9uz5ll6P2sm968qudwupr17epHardy2fyxbIFsgWOB8tkL7EbxSWbGmTe5rc2SQdKBM4CRMCp3gPqvID/zOHWikHJBRXZibaQOCQNr0CP3ph5Ud0AKkElmvRKyFkBk4ctxG5zxHHWEhTZRucXIKcalf/OoqD4OTugue78CVSKwKKI3iAKKMNdwPk1T8hdIjwMYlYixjC4Z3DuckpqagUK2pMu+0501QMy0equjL5NPMev9Jnzi7xVP85faXHcN7Xr2ffpxFudi0KtjYpsiaIpIinhDwySJt6Q43px2SLoOJFfCd3ZKVeET+qn0nGgsFvXxR0nhhNPagPPcj3lEsj9x09bCt/0ONE0phiPE2xQ54TQ0z6cJmjbxBAbY1o9KWU0sJBoo8csQDEYkDZ5HpH274Dgs/8IMooxzn6iJRyfEq7G8h179jp04otNahsuB6qpMYXzHyQVN5gTtkC2QLZAheqBU4etuahcak8Zu7uWc/FiHMQEcldarGKkPma82ySTrWky3z7MN98Kfj4mfKfSQFzpmtnqvN8uPbRj37UNq3pOetdrd1FcLENdHWtsImj+xZbPJfLFsgWyBb4p2MB4BWASr50bcKTU74RlPCc8BUYLNzkyARGDEwWCDFJVIN8chJKAgOwH7guPGnSl/+OJIUl2WEuvFgQG/TIha5NYVKEBG3f3n3295//e9uycb2EDCO2e+cu7VhaclGCYz2JGUK9RN1g0MCZbSKeXGfgODHwJFiVA2IqVEzh3RP5it4H5C3jSc4yBja8OgKeHBz08U+6HQLDZtLJTXzO09klnup1P56delfyucICTh3JTo2aRcQxGOO9262YSUU+GN+YnOma4kPpZ3qudM1rLbfAu4izBFsd5BNttkDswHyplh7F5iLAW//wcHmCwyanFEwyfrYsGExc4j3xCAUx5suY6oqA5VGqotSqyCa5EuqstKjFYuaEldhpiKwpxYwak7udE9T6VeG3y93Jb7IFsgWyBS5YC0yePuTEU3vrlrpj7O0YtqvXvWCrV2+zh57ptEPHh9z1qKTAy3OlWiLmbBErDz/8sG3YsMGPnLIFPn3vbxtKtIWkpNS774EXDdXT4OBR23t8uVdBkPGcsgWyBbIFsgWmWyC+0A8SBuCEkIEjCKPkRhdf9E8vCX4LXBiKKTBf8kapuLRB2gQGrSBOp5+EJwn5C+6LHc9pU7udHz9u//Nb39YmEJ2O6UqjUhxNImRoVnuQVYE9o98SQ4iQwgMnxQ8O9VW4+iXSKWFaygSeLcbrwohIYE5IsfEpYUiRTBBPx6W4GhyU6krjLIIH58fnVbTAK088vYqDOx+adm5ZE7c6JVaXyctCwGQPX9cggZh0/MTEjbKxYES8JBRMTNoI9F1hqNOOduSFbYZTcgJIn5msnU1tit3UIhlkMOS0y44ITNyIHYXskUcmlFhcJ8RCooVYgCCepicWgcr4YpEJtjy1HddjgaQO+j42om00tQOC9JHW2CpZVuGjez7c09zHbIFsgWyBV9oC77nhhFnbrdbTs9LuXmn2ifuenbHdfT13O0ins0U01Rvjvn37MvFUzzCvwLl/99G/lkqaoOwLr/yVfAZSb4i5xfP2B39837w7mJR6EKk802YrvGztLojEe5pvImt14HQAWU7ZAtkC2QIXsgXYIXxCQA9MWS1RqCiKAq+B/8IzZXqIFjDahONDrKQ6Ck8a/4QoQK8hSIh6EA+A9iC7IJFsfFQx+kZtVHGLYxd0VE3kjdAsQpbKn2IO4zYX63IindIO6GDN1Gf6FO1TT3jQuJhCP9TFe66QnwDqjqP1n8e4DkQMUY96gKohp1fFAov4c2WWfvIwLPY+LrRs4jEW294sQ3g1TjuF5BMgYiYxqZgYEQCO89rpzgmoIGQgm2IS6prnrbisRdlgrxNRkxYHbk4wxFwXceQTPs65v6zOlcQGR5wl2o2FAT9cAsDRP9pNcZhYhFA9pcByfBNJ/YWI0fsVKRjxIKeCdQ/yKZjqCbHSHgdKY6QuYk/x/vSpk7Zv1247cfCgLVuzWhdaccdVwuUOtivVXzSTXqqejcTnzZa1pmT+mC2QLZAtcN5Y4Ad7Ju2214lxOkNK29GfIct5falewPBzOaCzGfupNkg446gNul6bB0Klu3NxJMq5IJ4YA+0shHiiDOOs3k2vnltnPXfT2e49uyWWCubpddddnne1m81Q+Xy2QLbA+WUBMI8O4vuSAiZFbN4mYbT04+STwJDjNIGjCKESQwXbpXdJSFCgTp2Oa6meRNyEkIHWwoMmYdEEwdi0ivhPiBeghUjgRN+djvZVFDIKXAf2Cxe6qI9RgDWDRIr2K5iS86m3EFngykCevoO748nY9GpS+JJyoyODIWRQ0PIG3A/ptULYZPIp7Hiuf8+bePIgz0qz3qhZeIBZB0R1qUxt2fTk1p5PldU7X11f9ft6HUj1+4DqZTj35zyGkZRFU4rEn9zVnITRRGLSskNMWhyYSLwPAgdWKCZrNRvNYpAWCEZTee9TbtrA3TXO7SAfWvfZRaIYhNO42k9KqbTAsCAQ7C0WAhYVCrM4hCwy+heGDSVWkElp20tfhlR/Mn1lwQpmnTL7jxy1r97/P6V2arabbr3V1mzcaK09XSKg9MjSFMz4/8/emwDZeR33vT37vmAADBZi506C+yKK0UKLokSRtCT6SfKT9eQXWXH8yrKebFeeK05ScfklLidOJamUbFlKniS7VIqqtJimFHExJdPWQpEiCVIkCIArQOz7Mph9ff9f9z1z79yZAQbADDAAzyE/3Hu/5Zw+/X2n5/b//rt7KkRpntxPtJlb1kDWQNbAXGlg56FO27FPrFC1Da8c9lcYTqXtdJgwE3s49U//6S+/ZU9+5vO269mvj1/ccPnH/X05kHLqvV+YV5Tm5kozLNdVOejEeacLOs13LYIRVbMVBC0PsUM3p9se/dq/Pd1L83VZA1kDWQPzSwMFnycBQ4FChZMbfjspXOA7AeYEc2ioAAQFkQHwprSKRVwLuAOYlareMenw7cKfw2/EVxvReRF9U2RLARgNwkICCCpcRzTLoBxZgCdatf4LNlXIRh/4mongkFhaRcCJq8J3DY83+b6psFVAZcjENRAY+OGN1+5jx2z7q6/YZddeaQuWLddOzZmuBELldvY1MGPg6VRF2yOmyv79+23Z0mW2uHPxZMDqJABBwBknOalUqHRqrJkTixtP7YnPOUtHfamQ7V9I7PCgQCeVmGTRsOgEQwWNEaBGCxjwqBS95jwWfQJ3QHsdnHL2UCRhixA90GQlZ9MhPmOEUAHvo/pchMNhLGBKqZCdg08VSizH1zs3C3qPIQrwiOujFCb5nkh+7swnB8MSJTJkRzoMF10H+BUMLd4nMIzeQs4KL6OJgRpQfqfNL2223q7jtvHZDbb0ohW29vJLbfVll1jzgg5tbdbU1qaSoTIcMiIVU1Dnp8KlztJtzcNkDWQNZA2ckQYqW5facGPHJDCJTrHllJd/6Mmd42OUhyJNF4l0NpguyFLeyoGU8uNv1c9TsXnKdQWgWBoqhq7OBHw533V9uoDq7Tde6VP/0ZMbjTDA3LIGsgayBi4MDYTz696dfCj8SicAFfwrd7iUYyn8RTxANvwwQJpgHDljqKRF7ic6wROM/tP5ADo0fFj3/rw7+uJNYiXFDwQUjRoUqWJE9KbwP+Mc918FRJHfqVLH8DVTvyF3yOcDFcYPqWPUCB8MP5gzQn7mgDx4oyHjjv377Ac//IFVibhw0+1vt2WrVovIUCiokX7DcAJG9B7j5X/nSgMzBp6c6cQ9ZJvBvXnqyafsm9/6pt39/rvtox/7qDU0NMx8Duo/Fs80Y51IhhnI5oJMd148p9Mfn/ksZnRmzFPLR4DL0OCAA0++JCUHAMywo8ZsiETmfwAlsvuLQijEmIU3qkWdgLoE6KRQPa8GwHriakeAA9TiRgJOUYGAuFoMAywnxoqcUxgAFjD9Bz0y1F6Ix1VfAYYFNJWMm8+n0JABuR3QcglihQMy0W8Yu0CmY15hZEhQt7Cu3nNLbd/6pm8YkaUrltuqdWttgYDMRRddZJ2qlrD64nW2eu0aa124UAzLGT/O4zLmN1kDWQNZA/NSA+2dDjz1DnZNKR45blK4EcAEuXFKG6FK5a08qXj58dn43CdZusoSnJcDKbMxzoXQx0xAp3JAkXlnfZ7e3X/HLVf4hU9s2JSBp9NTYb4qayBrYF5qIPwq0KYx+U6D/b02MjzovhO+nufgldz4ZGy05LcFuwiwJvy6FMoGCymBUuE7BmEhiA2kRgn/LXqj2BT+pvfq/iE+JUm+ITlFvqZipMuIfE6ibKicbgKl3HesVIRNCYEBvxD5Qx6ETn5pgpziNfm9iXARDrzGZnxt/f0DtmXjJus92uVEhotWrrYVl15may672FoWLrCWtlZrbG2xqvp6JzLQALGYf26zr4EZeeqHDx22l19+2d58803bf2C/npFRa25ptnVr19m1115rixZH8sdS8foH+u35559Xbughu/HGG239NTP/dWnnjp22ceNGO3r0aBEAKiwUH0PP5woxYK66+irr6OiwI4eP2HPPPWfb3txmV15xpd1www1W36AH6ATOiHxOAAAgAElEQVRt86bNfk1tXa3deMONtk4ABi0BOCe4dNYPYS7SxsM+KP3WagE68KRFw9QTeBN0RGJY04Jg4XNcy9YRaBYLYXCJ3RRxtLEwAZtY3jFahNBFXiVd4XuhQqqwnWsi+op3Y46EcyAh0rxGuF+RXYVMcaOKhotrApyiVwwJiDvmJ+Rgb+g9jofcJKkbAp0vzAtZt7+507a+ucOqlGx8tK7GFizqsJtuvsne/8v32A1ve7s1igGVEevQZ/43ayBr4MLWAEBTb1loXZoxoNTpskLmQmvzSZby+X3pjyMMsHz/mXz+rT/6xkkvnynoNB9APBLGs5U39m3fvt1uVzj8bbfdVn44f84ayBrIGsgamGsNyM1yzgD+l95UEDmi7wcj5DTS2PiHhLgNyLfE/wIQCh8SLyyRGVR0SmAQvmbRDw5PDfICxarwywKkSlE1kAXCP01EBsAo9/9UwEr/y48NcIo+kINjjINfGLBRjCfIS8cgVSRSQpAcUB2AWJIrqTJAKfoMAM09Tf0TxIbwLxGDgliL6hrlVw/bNpEYdm7bYTXKPbVw2VJbdfHFtnDJYlusPMKdK1fYyksvthVr11hbB0QGEpVn8CnpezZfTwo8vbTxJXvggQfsJz/9iQNPBw4csBFR+FpEU1u7dq29//3vt4985CN26aWXBpDA3Ve74fob7Prrr7ef/vSnfu0VV1xh1eTn4UkonDPdRDa+tNG+8JdfsNdee01riFAtPZ7OmonG53e+8532mc98xoGnPlVAe+SRR5xh9YEPfMAWLlpol1122dTdq5vBwUF77LHH7C++8BcOnC1XzKcDTzzAsHEYagZyTj3Aqe31xQ+zSONWw9jR6zjzCJMgcUB8tRT91c0EMp6gcRQjEAh1CmOLftLi5HIWM4uySV5BhOlhDKBIDkcIHkYCY+Dhf2HYwrQFEyqNQ5K6ItIchgC2VGDbSFxUZnxKMbmF3nSY/mnIDOdrQEPQp2NWhdYky8V5A0r4cLSvy948ctQqhobtomXLdP8udcSaxHK5ZQ1kDWQNvFU1UMqEeqvqYL7P+3wCndDlihUrpqxU+OSTTzrwlFvWQNZA1kDWwDnSQME99h/zx13lIAtAXgB0irQs4YsB2tCSP1n+WiwyhUsanlyRYBC+ZPJNGTCxqgCdiFgJugRHGLcQJeOkiACZkBGXr+D2uRzRT/Rd9CdjMoBLjAdwRQ/hLyJX+IT0W+4Xpz7qBDIF26sQ0cPgwhN27dhlW7fv8KrpFSIydChq5vobr7e7Pniv3fj220VkaD1HN/PCH3Z64En3pr+/3x599FH7q7/+K1u8eLG94x3vsIW6OTCRXnjhBXvxxRft9ddf9wf9N3/zN/2c1FavWW3XXnOtA0LPPPOM3XvvvbZSCaJn0rqOddkbb7xh5Im65NJLbOmSpeOXAQxRCnf16tXW3NTs+zuU82fRokV2/Phxe+KJJ+yu9941PfCkh3fXrl224bkNDmy9613v8r68pVUwPtpZeuMAi4AiAXPV1TUadKiwEGMRspjLWxiKIiqTjAOLj9MTm4nXieF1CeRR2J2YUSDYkecJlhRoNlXmoo9+FSIguThI9Ziga4pVwkBy5LkQhhfGJ0AiB8g8eR0GLxLNRVWCBJaFcRjVOWOVoNtATInWiIEJVDtVPWDOYZDC2BA2GIbNrFFg2aGBPjt+5Jjt27nbursUjlICTpbrK3/OGsgayBo4nzWQwqsALfr1a2Z5zh9nOclWnwm7CCCBjb+xt9566yR1TQdATDox75hWA/MRdAI8yoylaW9ZPpA1kDWQNTB/NSCfz6EbAB0iURQuVqMvAmPyyQh1A3jBF/Mf8+Vn8cr5QWbAZ2M/fpr2u1+WfMsAnQJYChJDVDIPHzP8UHy4AIPw0erFFEokCZKW4zPK2xT4pTzGzqjiKpcWj89lCeAorkuAUQLDOCeBTvFa9HsZB1BqtDAvemS+RWCNc91z9TGpshe6MGsQ0aNZ1/XpD3JXX7dtPXxMKW+GbdXqVXbxZZdbc46gmbPnfXrgicdQNxVA5/7777c733OnXXPNNQ48HTlyxH76xE/ti1/8ov3943/v7++66y5PIp5avWIlYTmtWrXKtmzZYi9veTmAp8kYyuTJ6RwYTq2trfahX/6Q3f2Bu/2hSbS3Kj08HQs7bOnSAKQIqyOUD9bVpk2b7Lnnn7P3vve91joNYrl582bbvGWzz405pX7GBZmJjJOlPoM9WAtRAmtrfTPrG1+McBVrtdoSnZBBYtkmwwHEQ3I1gJvSFgstFnEYpWQ8wkgUk48D5kCjhOYYQJGqDcj4sAE4he7DcFGeskqAFQ2DwCYTNP7K3uKih60WY4dkyMj50TgPQ4KzNCxEPgFe42PDfZJc5LQak2yAYIPKfB7Grdaaq2VklJC9X0Dl0IBiThgsLO/4GPlN1kDWQNbAfNPAolvvmFKkv36wWzatYCPfNPv23/WOn5cAJV6bMZpz1EZli3/3d3/3jHp/Kye+PpHi5hPoVJpge6owuhPNIx/LGsgayBrIGphfGogIGsmEX6UvCmy9o1HpA18QDww/K/w4cgZH2pYAgpgLPhs+XPiTQWQAcMJPG/Mf/rkeFzkIDglkImVLhOIRRRN5hcO/qxIRoUJRUoBLFaMAP8N+rZMTREIIQIwdMWYATkwhERX8ZL+G84NNFUBXAFy6Tl+HgqVFH+FnErpHkSz2gx2Er8r8mXfMI4gXRP3UOJGh56iIDGJC9TiRgUikHEHjyp/lNj3wpJtcV19n73vf++yu991lyxTOlNqyhmV299132/PPPe+hdITfsZW3NWvW2Lp165yF9Morr9idd97pYJY/tSdpfp7a8uXL7eabbz7J2WZXX3W1XXXVVfb00097figYU9ffcH1clzAZdTkogAJw6rVXX/MwOzavjHY2G/KU6oC5Av7U1lldDYynaCx28q4VjQKnJYcj0GmMCTG00Qror/qPxcn5AQQVjUQ6U73qWGocx6gMqy9ALMYOVJy+A5lOSDHgURUGQNdH3G0wnDizWsYHkCwWOfLEAscAuClxQyMEmol5i9lh1PzR0EIflHHqVzwuvSA/Dflaq2s9DHFIYFgAalXWOzRoPd29uq9KzC65C49NdJ3/zRrIGsgamIcauPNTO09JKthM50tr0G8nZ8K6Ol/meapyzifQCdnfygm2b7/xqlO9ffn8rIGsgayB+a8BOUG4hO5PqkhTZcWA+0v4Ul5VTj4WBaXYRwsPDD8xfD4KWgHUhP+XphtAD+eEn8dV4YcB/tBSypUEQI3h5wnYwh8cGYPMgC8H6BR94cul/pK/mnxdXqPfBD7RPz5nyBMsKPoL/zAIE8wp/E3241MCgPUpxjCRJCA7JL8WubqHRtzvBXhqqlaBLSUh7xP4NCR/Mre508BJv80uVQKuUtApidLU2GTNzc0OJOHw8yspjfcpHxOhdVDzDx48aK+/8bp1gSJO1YrPTxyNZ8nfswBm0gCoCO2DkQXwRJ6oqdru3bv9GGF5gE5XX331VKed1X2+mMTiIrwhAJVAkdOCZqmzsIr0xQTsoB8WFTqPcLTJgsdKZcElQxFMI+5bGI+4JoE5gSh7YnMh04NCy2EahfEIFhTnczwQZqTjMUomJIxXoMrkfopKfIkFVXoe/SRDw7zJNbWgtt5aa2pdDzwGHOcZKDK6lP/JE+QFUMZ5PHtjgXbFVPK/WQNZA1kDF4gGwJxS9bqzMSUSRec2uxqYb6DT7M7u/OvtXbfNvNjN+Te7LHHWQNbAW0oDDuqEvyxvzRNj19TVKdxO+Yvw0OSeJcCF1Csp8sTfFsCbifoqOuHhYxaPJj+Ua4s+qnw1JzkE8FNMRF5RSEhe9DXpL6JagpGEnxmfiz4lo7ncCtED0CItjIcBuh8bUTCRqDzIFiFtjBFyFULpNP+aAsqBvxst5GyoqrEW+ZqSuOBrVtqggKiu490RQTNRIfnTLGpgesbTSQbZsWOHvfraqzYgZPAilbZnK2/t7e3W2dnp4WPka9q7d6+1tavyWHlLzwP7A23wMwCwigyf8otKPuuaGjGFAJKuvPJKe+qppzwHFbmokEFP1ngDdHrppZc8vI4wu9K8VCcYYc4OjQNrkhEAZVhxsCxC5c92tDYBNbHYWejEu6ZFnIxNILoJxCkVln1R3rIIXKWQthovGxnVDrgG7IYbwDXEyaaYXHIuBSJdALk8XC6ArIRucw2GgP6CLYWxCBCL5HYAlOR2ihscliAZQ17JM0VsMNf2i5ZZX9Uv0AsZGCtAsWBBBaoN+MS8WpUXq06MNUC7YNOVPkzMJ7esgayBrIH5pYGZMpjONGfT/Jr1W1OamYJO3f36216iotbGyNn11tTa3Mz6z770gJyxYOT9y9/+2NwMknvNGsgayBo4qxpIfk+BgIBTpS8PkJrcO5RvFyBTIivg00XFuwQgOYhUALAQPby9iZMogk4BMBV9zvAbY4xEgghmU+oJ1hHn0y++ZfiDkY8Jn5d9sLHC1wxQq9SnTdEzzDT6SileiuSUIDrEteRzYusbUVSM/giPFKJnAL7oASAOPxc/s1oV1Ovkfw6OqtCWlJWINK6PHEYz60/yzIEn6Z9qdv0D/V7d7tvf+rb96Ec/8rxNd9xxh12ssoS0FCLHe0LYyKME+APotHffXrv8issDe5gOH9B+RzZ1s3t6euxHP/6RYy/1ogzSz5IlS2zturWeUDwGZNB4C3uJjfA/Ep9v2bzFbnt7scTv0NCQbXppk7366queSJPwvHPZYo3HMmJNjGiBDGuBsCxYiJUFhBYDQQvAKJZihNCF9AEYlc4kAKm4pkgtTEwnRgxmFe8EMhXyOCUUPAxV9BHMoyGBQWNalMF8wgDwKzxGCGCoTu+hbiIZ9y6xttw86FynVpJEXK/MhXlVCoQKeYooOddxLn0BRCEbV4SUcZMBpup0iHHFpHSdyEoUDUWpGvL7rIGsgayBeaiBs8lgmofTv+BF+uynPzQ+x77+idNNwEfpXs75498/N0DI2WC48bz3Kg3jfGj/9X886AzCDDzNh7uRZcgayBo4Ew04NlLowAEZ0CZPqC0Cg7OLJgJPnBqhaUFK0AnaE35WOpZ6LI04CsZQADb4YeHv8ZpyORFWV+npUBibMcJnjap6ADyJ3cR4kWhcvr2YR7CO8P8gMkBYwLfEr418UuEBwlwKAI354D+G1KR8MQFHtERm4Dr8SPohguaoKtnjv8b8QlsRyZMSrnN+tRhQY9ZQ8D1dBxl0cp3NdpsR8PTiCy/a448/7iFzCXh67rnnrLml2X71Y79qH/zlD3oi8Klae1u7HyMh+ZHDR+KUtEqmukD7PBGYHlpC8773ve/ZP/zDPyhWtc6BJ5hKt9x8i91zzz22fv16q60jGXe0ziWdznriHIAnWE+lwBPV7EgqDksLtpODYOeiTTH/FK7oQHVh4SXkN4nIsbg0DAX7i+ewGPXJjU5xAAwA7CQWYEoKx6/oLNuUZA2wKJDsSusW8AWoc1FrizU01NmQGFaH+3psu+7fvu4+7ztokYS/gRbH+fUCg6gSgBGSOXORMSzIxzjI7rmdCr/pTg6hDBAL2WJOzCGBbDGmw1clugt0nfGkD3JITaFXFyS3rIGsgayBrIFzpoFSIGYmQpxNUID8kzNp/IjW0VH4weskF9x3kuPz6XCuZjef7kaWJWsgayBrYGYaCPJC8Vz8r9SGlf92RJEh7JvoS4ajFNXOObvoTwLs8Glyi70JZOIVoIiWSAxOAlDztChyOwm9CyZTSuyNLxr7AIGIbIGYgGx1lbXyEVN+YO0hDUyhv+SbxljhH3IVuZnCF5U0YjYRWcNRzo9wwpANvxRAK5hO9BIgGwwr9kelOxhXBV9VZ1QAUk2tCDrI7Qw1MDPgaeOL9ld//VdG5ZO+vj7r7e318DmSecNEIsxtvKWbVQABqDjX2Njo1/X3l/30N43wl15yqf3qR3/V9uzbY1THA37Ys3ePJwyn1PPPfvYz27ptq332dz47IYE4D+o1669xuQDKtry8pRhuJ7k2PLvBAMxgaV137XUz/hI5jZhnvJt1lfJh8aBX6lmvFUjTKKYYiwp4KFBfFkQRPU5JwROqzCuLN9ESA2wqiseCq9Zg3qP+4V2FACX65xPHE5LcMzxktVVjdtVy5fZascyqGmrs2GC/bRB77OlXt9nhAeJxo+9kaBgPeQmVq66ocaCJ/gb0D4s5EKEwgE7wHF/QxYclckaBgsdxDEoYkZCXMwG6wmRECIIDacxHB8sNcHH2+V3WQNZA1kDWwNnQACDGd7SVt7MJJJWPfbLPl1122clOycezBrIGsgayBrIGzg8NQN6gkpxeg3CALxlpWphACplLQA37kl/pBAZHXQpOfGHG+I5cl65PviRRKgFiCQAqXBKvFQpzG3ICwkUtTVbfuNAGK4btSG+PbTt81Pb39DlIxXj4e7xCZKgfq/EoGnIwJXAr+amch/8aTCqXBI/S+4kxAwwDuMLPrNR+5pXkLni/fi5zTGBUzBc/maxSGgEdyN8sBfIKasgvs6CBGQFP1113nf3O7/yO9fb0Oni0/8B+D1d79tln7Qtf/IIdPXbUPvl/fNIuviTC7UrlamxoFHOmwRlPMwWerrr6Kk9KTpwlwFUCnl5//XV79NFH7Tvf+Y79r//1v+zidRfbmjVrrH1BMY8TLCaYUIQBwniCrfXOd73TPMxO1eyQ+6677poXScVjAWvhsOgIsZOhIM6UBZdiXcnDBLpLSUrYQCzEBDA5cgvqUtLKmUTgPmzJlATAxAVFIwEIFcAO/Y1aY62SrjU3iHql6wSCtTQvEGutxUcBGIrxi+PCQgLYgtoY4FNUCawZqbDeYYxCjDdaQc6mojEL4IzPsS8SmoM8Azo5PCYDwcUhvYZ2A0V1A/bRAKOGZNxGqILHCbllDWQNZA1kDWQNZA3MGw3AePvj//bAvJEnC5I1kDWQNXC+a8BxoDK3xyNA5EMBniRGj/uN7ksFaJNYSkVAJjQBiJMAGecijfuXEfoWZxV9uACj2Bt+WvhqgEjhu5GXt1YnXUmRshVLraKxzo4P9Nkzmzfb06+9ISJDVDsP0CgmAhiE3DCVCH9LvQ/IPx5magWQyTkNhXEDQEpyhU8JAwr/kOvSNeFXxnUOsOnUYG+RBD18YnzoUbGhStMGxbzzv7OlgRkBTyl3Uhq0p7vHAZxvf+fb9o1vfMO+8pWveIW7f/bpfxYgUKl03FitDvJDDQMOzKARVudJv4vPt7W2tdrll19uKy5a4cyrv/3bv7UNz23w9w48FRp0+Ouvu96Tnf/iF7/wDeBp+/bt9vIrL7ssAFNTgWQzEG1OTsFAjEo/Y1pVNTIQLDiQXIAYmE4srqKhCBEwGCnxehG5DWSXBZWQXM7G4MTnYE1hFFAtC7dCiZJAj9nEN7JmAU2LlQC+SWGNPYqLPd591OqaG+2Ywu0cjRYwRv4lFmta+ABiLNqWGoFU1aqkIGPBGF1QPSXLgJAn9D4EnqRRPD8VYJfGD0gp2Fewo4I6GfLGHEPOuM6l9j6YDzG6XNM3qMp7Ggv2WMkjo9PCkGmwUFr+N2sgayBrIGsgayBrIGsgayBrIGsga+AC0gA+k1f41g/+bA2KPhmurnUgB18pCk2Fv4ffViQxJCVEBEx4neF7BRvJnbeyFgAPbpYf1dgM7RXW5eNF1IqJyKDcSfIhR+UfWvWY3rdZm/x5xvZcve6eBWMp+Xwwj/A1GyUkvi8gEsSGPpEZCJHjGpdLA6dsT0k4z0UlWUgcDqkDsoSLh9eq/fyH75j2QoBIDR0NKupnDIJE9hvH9TLbb4KXdiq96m41NTd5iNunf+PT9s53vtN27trpleR4LW+DA4OeU4mQObYZt2mwAmjxVK6rUkznoUOHfCtvHGc7fPiwvfLqK3b40GH72ZM/8zC91atX27XXXDttTqryvubqs4Muhc1hV6BcAXMUj5wI7MTiRg4SsAH4FNHhWDqAMAA88Skk5hMLM+0tXVycQR9RfS5MD4nbiHWFcdXcVG+LL1pqqy+92JYKwGtqabFqD/+D/lhlTdXVbgwYs06dLFSercX1dba0qcHWyKAsUW4oQCjALM7xpHJa0IzJFks/0T1hfMUcOTfAp+JcmC8bDSQ6KJbMNOY8oL77lPAeNt2YM6VKW1F3ZQfyx6yBrIGsgayBrIGsgayBrIGsgayBrIELQgNwFUYFOlVog8hQLyIDETRBXoiq4FGcKgEx4Zc508edyJR+JXmURc8ykRrSKz4bG9fQAHY8h3DB12uS37hQPmHTghZVluu3PcoTffDoETsqIgPAEGllWpWqBxmjj1EHmCgg1VxTYQsUfdMu4KpdqX3wO5lHgEdxdviSwVRifAe+9IoHCahF9XP2xbySlGk++IsJ+Aoga2B0yAYGFUEzrEoYPq/c5kIDRcZT8dkpjjPVvni+/JxVq1c5kAPzBse/v7x8i84hHxT5nQi3I+zuTFulgBFAJxg01TyI2srbJZde4snDSUr+/PPP25NPPWkvv/yybdu2zT784Q97Dqh51XjAtTIATggvDNgFRlEkT2MRcyuKLKa4CWPK7B+gTelsYC4FAEM/seiCMcVZgfpGtQBApmAwUSmOWNlh29c/YLu7jjkWtmrtGuscWWmHjhyU7rZ7CGCvBGmqjhhccjmt61ho1+gZWKnXWlUWqOwbsKEeVefr6lF/qoIoMA3gCYCKADwHnmQZMR5BxwzZk5wYMdDoJCszd+BZ4xaBq7gGYK1fYXb9gwM20NfrFQFra+viYP43ayBrIGsgayBrIGsgayBrIGsgayBr4C2gAVg+FYoyIYKmSo4cbKdhmEEFtk94k/FjfikLKEXQhIpSaF0RfMGfjP/wUT0QT6cGe4qIF0gBkXIFcCj8WDIytYiosmTFSoFHZoeOH7OB4QHlEa5yEKlBfiFV7aiaDlDUKrCpvVZRN/U1tkREhoX1jZrHqHUrXGYQH1n/QWKopqR5SQtyQuwLAC3YVPKonczAf8l/DF8THzP2hXvJeeGv9iqncf9Ar/vjEjG3OdDAZNSmfJB4tsr3+udjx4558m5aWxv0ubZ4ptlRAKioTMdGQm/C8U7aNB4PyZTxlTq2a+cue/PNNx1koHrdkiVLJnW5YMECB54Yc+PGjfbggw+6rE1NTZ58fM3aNZOuOas7CmvGX/SPL36y7gud7R9SpTgtwljIkc+JJU7KMwxHscXCj8Vf3Bs5ngh1Ky7MBOowjqJdFfsbidfYH9rm3xFrFlOpTeDT/iOH7PlNL1mfcjL1DgzZKzvetE3bd/gCbhews1zJ4lnoGI9Lli+xS8WMWrK4047s3mvbDu637uN91tU3KISb+F1ArxinKEehEh2T95aMXDCkAJ+QFVpoaYhgnBkAHOBacLWgRgro0liAdhNbsf+yA/lj1kDWQNZA1kDWQNZA1kDWQNZA1kDWwAWhAfwiZyTJ4QqfCD8owtWUbdvniC8GFSDAKKcETEFiCHc+YJvwu8JnDJ+VcTy/r4fsRboV/NYEQuHFHZT/uK+7y8RJsDUXr7NlStdy6NBB2/HGDo+woTU7kSFYS2sXLrD1K1fbusXLrE5hdaO9/TaiJOQQGZgTDCaIDOADkSJGfrPGgcFVmmglZA4wKzGyUhhfgFDoYeKmOu2eTsaBJxFpwBhqaoSW5TbrGigCT6WYRmGY1157zTa+tNEWis1y9fqrJ1SBA8j5wQ9+4AnGAZyuuPwKW7ZsWTyBBX+fnDsH9ZAR8nbjjTfaosWLTjqBN7a+YTt37HQm1YqVK5zdlNrevXvtO3/zHXviZ0846ETSc16nauuvXu8JxMlF9cgjj/gpF198sV1//fUKJRMAhoxTzHmqvuZqH8M7cKRFV6HQNNhcw1pUJOOuF4uM0LagRMJQmpxhH/AnkF4kjAkFal24AeOCJ3ZRSiIOGlzh5Syjihy5m0RrXNhm65cstK2HDthhAYqbX9xoe/cfsFeVR4tqdo2KFV4iBJpQwEMKoRxVXqWawwdt6OWXrF3g1FElkN+154AdHyS0jpBBlciUccMwObSl5yGAsmA8FSQel3IckS5B5xOwBk00mFwJaQ9wDqYWTwh5siaBlROAuvFh8pusgayBrIF5oYF+Mbp7B8sB84mitdbrZ4eT/0Q0L+aThTgzDZAO4Gw0qg+mRp5MthO10vNPdN58PMaPeoRU5JY1kDWQNXDhaaDozEI8wEPCF8InGlTECTl2I60K4XacmyJglOtIZjH5WBMd4ugzhdSFf1nUXMrfZPIj3dsUoBXAT4rSGbU2MZZ6Kods7+FDtmHjC9YzNmhdSouyfdcee3XXXvdBm+VTLmtoUgcqTqWwu0uXL7PLrrjUli7qtEM799iuA3utTzmlj/QNW/c4kSGANfxnomfkOYsuQQ9FvzLyGGP3g8yA/AHIIWzkNQ4vGV3pnZMdghUG4DSk9EBjArlymxsNTP91VvfijTfesK9+9avW09NjN9xwg4NBgDagqFu3brV//NE/2osvvmi33367vec977HmlgKjqQDowHTav2+/h9oBEDkwdaKmMV95+RX7+v/8upDGGg+JW7pkqbOB6Gvzls322GOP2b69++xjH/uY3XfffcUxU7/xNDnIRC4nzk9fqu644w4Ho2KJnFvUCUxEz3oBLNEbAWyVmnOdPIyKSiq3YSQCeALZHR4DnWaSWl5iLAE4xefChAvzD8bT9PzARLdEB4O6j70KVesbkfejL2YLFK62fFmnXdbWFMuUfE+NTXbxyrVK4K2Ea2QHVyLvN/fvt4MCHo8oxG1nzzGr2r7V428BpKBDjozyXpXxlEiuubpB80gVFTSq53NiFkHL5H0wuRLtMd2X+EzMX+whbFDXk5i8MHfollA7a6Btavz4gllQRH7JGsgayBq4ADTQ1S8K+lsYfJqvYMxsPFpU72VL7VwAPGpAQ50AACAASURBVOUyzMa85rIP3Ilbb7zS3nbDZfbUc6/YM89v9iSz07UdT3/N/ui/fNP+7Eu5qt50Osr7swayBs5TDZT/wM5n/dpfIb8oiAXmeZPkNjmRIfzJ4YLfFf5kEXQq94vDv3TfSz4i26hSvATDqEhkwO+rgdakdlyhdDXyzToXd9j6zg57/eBeO3L0mG3ZuMl2799nr4lYQjU7Quw6lfcZeY7iX8oXrRbpof/lTbZgxzY7duio7d6zz7r1w9zwKJXe6/xcCBlIVZrDmHHxh/EWSUGDZCmPFXsjN3AwvTg3iAwFH5NZaX6JrSVYy+dRDrYVduaXWdDAROCJu5meO72SKwlW0QMPPOAAFI494WpUqOvu7raFCxc6+PPx//3jDkyVt927duvB2W0tSk69ZvUaP/9kjap05IN69NFH7bvf/a4RNgfrCeAJAGvlqpX26U9/2n7t47/mLKvpGgnQqV63Zu0a2yjmTkdHh4fZlX7Jm+7as73fgTAZBMCTWi1GqywYhQLAVLwlxeTiAdZwpHQrlzyMhZaZDgTi65CVgzdcx4Izz8M0PDbs+ZJqG+tVQbDFc3MRvrZMoYwXifYINN6n/E/d2kaee9427dvnyeEGBUZ1CyEm6XhrTbWPUiMDQWU7NwSK9YWFldhMpG/iMWPcFDo4bhTIEaVrirHIYUjiitACcmNXCRdkD+F4NULK0R39TGiB7JUrJX/OGsgayBqYdxq4akWXXX9tEYRAwP/5UJfL2a8vX81BHT2ncs+EHXOmApYDIRmMOVONXjjX49p876v/2t5z+/rxSf3oyY32X7/8t/bzDZsvnInmmWQNZA1kDZyOBuQHVeBH6vtCjZJ2j8mfJM9T4CnB7KmuKCYcTz/8TzeUM4LKmvth+i/SqIQ/NyBcoFe+YLeAJ3I8LezttqsVQXNF28UiU0gO9dOsiJlLVqy2XvmNoyIxiJJlO/YdsDe69yqKpt/ePH7UKt983Zpq6qxRspN2Zni0SsBZnbVWVyjqJvy8AJkCYCKShs8AYgBKND+uz4npClkB/3BEPms6HildquSPhv/NtYnIgN6q0Fn2Ictv/ax8ngg8lfnt69at88p11157rW3ZvMX27hM9bmjIgaGOBR3G8VtvvdXWKXZzqiTf5GJiW7t2rV1xxRVK/Kx4yVJwq3wKGv/yKy63f/6b/9xue9ttRtgdIX2E7DWJeQMIBRj29re/3S5StbVJLa2Pwjxuvvlm+73P/Z4RMgig9Z4732N1qr7mMsyDBk4C0uri6sOYNrDWxMhiscBgYhEBwaQY1bS4AG8CxAkAyT/pXK6f3IJyWOmLNAAeEF7C+tzw6LWuXsncli6xloXttuPNHbZ//04ZhyFrraqzpvpmaxXbrVa0yBa9sigxMlxIsrcRIdxBv9RiBUTTGKDsYZiK1RKYCluARHGjEvCUqi5g0MKwxGvMnnNlGNwWSG6/tGBENQ6GwkPtCoaCBHvF6/xtblkDWQNZA/NCA1/9xDMuR2WrQsXbOwsyUXzj8Lh8tc3tAp7i40mi8c7anMpBobM2cB4oa0AaSKATrPs/++K37Q/+r4/Yu25b79t/+MI37S+++uCU7Kd333ZVZjzlJyhrIGvggtbAeIJwUpAogqaaanEeGVKtcLRheUwj7u/Ff6RqCTIDvubEFr5Z7Cv1JxPzKVKeJAoDvhv9kn+JPElsPcNDVt/caPUiMvQcVxU7+YsXXbTElnQusgqRDAb0pea4oqlGnnvONu0n9I78TcPWJYyhsXrIq9k5mGR1Vq1cSyntTPIN8feKETTha3IMf5L5jMgPjbkyt5gPR8I/5rM+AaoVSAz0D5GhWroDq3DgKbc50cD0oXaF4VavWW1sVKw7fvy4DelhAniCxTQV2JSkBCwiVI+QvDvuuMMBJW+lz/MUU6Lfm2+52TcSfHUf73bwBeCpsUlJrQEXZtiouvfJX/+kM7RYgORQmokMM+z+9E8rn4Kva4FOWniR42lMoA07Y+HwCsgESJUWeAwe55QrtVjpbuJAaREmsxPAFQnYMBYjdvh4l/KNDIjhtNg6JQuJ448cOmz7hFavWX2x1dTW28jQsC1oa7fFre22Vc9DN2UnJTtxxD1CuWE+hTwscOiQYEEJUQZIinuAZAlgS8Yi4pCjCsOQwvX4HEYizFvIrw4rhp1JxaPAtZ7pSkaiwi2SX+QynMqzEvrM/2YNZA1kDcy9BvorW2OQ7l6z7m1TD7hijfaf9E/01NfmvVkD54kGavWVYCbA6h/81v3OdPr7JzbaJz/7pz67z3/5Qfvspz9k//K3P+bb7TdeZZ/QsfLQu1KG1Hmilixm1kDWQNbAKWvAq9rhOXlkC85Q8gMDkKHD5Dm6/5QOl4yErwkQQ7TMZFAqeiCPEg2/DLAHf40wuMJR4QT11rlsqbUo2mjbm9vssPIIVgpUalFep8aGZqXtabEKATytza3y36psQD5okUEV4W/0BRhELl9YW0G6cAev0JAu0tIQBsgMw0fG9ywWsXLXUGcyp5AbQoenJXc/MUIQo/8q+bvOcNCYyUctGTC/nQUNzBjSq9dDtLhzsS1fvtyZRycCnZBr9+7d9sKLL/hNvfGGG23VylWnLG694j9JSN7Z2WmEzp0USGAdlC0iwvRAL8dBp1OWYu4uYHHTXGSBY1S1G+QVbEX/kcOIhRgobZSn5NQELDlTKVCWAkDj3akVAZ6kkATusHh5D82Q8DoAJ5KMUy3giNhlx46I6lhXawuWdFrbgjYbHBy0Q/sPOwDVo8oCQ0oqvnjhIrtGoZOXtnco/KPOqxM4lVMGYFS5qCS53pMoneR1jFNkPCUJwxAU1rcv/Ii7pR/Q+SrfCoZAr8nogFCD2msGrpfUxpS4bqxAowwNlD0I42fmN1kDWQNZA1kDWQNZA/NBA9UzCCGtLyku9Cef/5sJYgM+3f/pf+/7YD59/fN/KEdmPswsy5A1kDWQNXD2NBA+pXwkfC4nMqhWm/uZ+FixIU3al6JnkoSRwykBO/hQUZhq4gwCtgpgijOCbADJgMrn/Ad76YiICX2qntIq3GDpalW1b2myo0o0fmjPfoJilCKlxiNV2tsW2FJtdcoL3KuULgBD5Iw6rnC8QSrb6XMQL8LbJSE68rMv5lVIQSO/k/kk8MnZS9oCECv6kEW/Ev8TgA3AK3Tj0Bw+soAw11qBKDFx/vnTmWpgzv48/+IXv7DnRKEjzxLJxwGOcjuBBvSUYyhgd7FwWdQp2RnvY5EHohugTRF0Sr0Ggyl9SiTIMCIBZgXoBMpL45WNpOBsrLTerm47vH2n7X1Nyd32HjTrU3Z/Va8b6u2z40cO2oBye7UoXPG6tWvs5hWrbJ3CQVY0tmprscV1jaJHKhZXtMhWxegCSIUhiHHSeAkwKmdglQJNCShLLKg0q0C3S1F4USp94jEnD7ELe3kCZedDWQNZA1kD81sDo9tfsI7myvFtfkubpcsaODsaeGKKXE4/V4LxDD6dHf3nUbIGsgbmuQYEzIyIXTSk8Lbw/QKAwZ/Cl4yf5ROrKHxEHMDkGybCQkScFOcaScbjfPw1SAL4cZzHOCQzh8TgwNOxo3bo6CEQJmsTeaRVhJVBpW45fGC/HT142Lp1nNzBizpa7doVK+2y9nZrcb8x8k8RZocc4S8Gd4t+ITIEcFacB/5i8hkDbIr5RsqXlM8q2FDhVxd90iBwRJ6qNN8x5T32tC25zYkG5oTHPyhWzN69e50V9Ut3/FJUktNNPCljaU6meJ506mAJ9D+Q10BtE6OJsDLKYLJgggXFOSyKyP/EgnN4tqzBDnIEt7AoA80OWmLQEccUGifDUdfg7Keaiip7ddsOO9x13IZ1DysFOi2sq7cVyufVLsZbvQClqoZGq9XPj1UyICua22yP6JLdQyOiQhYNBNUKMEgUwQsEe3o6Z8wh4oMTOFYEm1KMbpjJGoFjJH8jvA8DhIEijG9I4xM/nAxUuR7y56yBrIGsgayBrIGsgfmrAX0LGBdOP8FNK+h0v5Ym8OmBL/+bceYTYXflbZifzInvyy1rIGsga+AC0UA5TkIBppRc24kM+ogPSMRIhdKVhO+FjxVglPuRTnqIfMD+e35JON1Uakq5emE64ZsmUoFH1ugTuZ0O7NilwmDddlRJxIdVnGp4TEnDu7tsQP6k1fdZh0gLNypfdI/S6gx4sSqSk4NJBVDUUFVbqJqOzY5QOUQNeQGMwsd14Mx9XiJl4togM8QckT+uCx+bPzf4mviSKfrI5wh5oXCuv8lt1jUwJ8ATUlLl7nOf+5ytv3q9tS9on3XBL6QOQVkpfVmpkMC6GjGPBmOhgOwSh8oWgFMwn6JSXISmua3gev/SVoo+FUGnAJ84Fln9g2nke5XErdLaBOhEYvAx5XXqsmPaWLAtSk7XJABpoHfQ+o51CfiqtQbl2qpWQoaxrl6rHCBet96atHrbawU2SQQMFddCuzyufFBDShZH3wkAS4g5+2KxxxfA0rxUGLw+Ic6RPwrADUNS7X1iB3mtEkiGQepV5b0BVeMbFvg0JqS9QsUccssayBrIGsgayBrIGpiogS1bNtuWTS9NqZYP/8pHptw/Wzv5S3/bjVdaOWPp9hsvtxuvu8L++Pc/Nj7UH/2Xb9qf//WDUw5NgvH/83OT8zhx8lTgU3knM8knVX5N/pw1kDWQNTCfNRBsnfAIIXlUyC/zBNkeThYhcABPNICZ6srkVwLEpG36GSYCA/4djR7x45z55Glhwp/srGjQfpET1OdrW7fbEaVoGVHu4ApVSl+gPMHLFiy2duV1qld0TIXS6dSK+FCjkLxVyhu8q+mwkovXilSAz6dwN7GeIBzUKu/SiPL+9ngo3qj7hPivMecUdhf+L7mtgikVfUDaSI05pLA6fEp860EPR5QuKmo9XcuAqu2N4WQyR6WiqSAaKLdZ1cDsAk9xvz2nEsATm2MhsRZmVfALpTMMgTPBtCJgiNUIgBoVGg0qzWKg/CMGIgE3oNSj2sfiSwBUGI2JimZRssich1RYiNyMRCtMZojzSAgOm2rYcyRhQLhhFc5YOibWU/ORw1ZLTK3AnUGh0sTAdh0+quTvAzIQAqck90LlhQIwIl8UYzhaLln7RqjMx/SQJAwg8wrGVkKiecWIBJhGzC0odLcS2VPlAFCqUkYIqRgrQg8BoDCiVCEItIlQRXphpNyyBrIGsgayBrIGzkQDZwuo+a//8d/ZCxs3TSnqV7/2jSn3n+rOv/n2N+2xR7/vf797e/snXI4rMdfAU6pIB6j0/309QKVbr7/SYCjR+PudGiDUnbdPTBT+Z196wMEpEoWTx+mJDZs8uXh5S+DTd/7Hv3LmU25ZA1kDWQNvKQ3I36KqXY3YAKPyp/CZ8KnctZNflvIHR+hdctGxv0V2UKm+3I90JlFE47g3J7/MARuwLY5qDACiFmUYTwyiriPd1nNUJAWNW6/BmlprbKC/z/qPHfdzKRpWBZh0vNfG5GtCZCAKZ4FAKdK/JJIBEh7TLwaDo0Pah49HDqb4exEMrQCP3IcshOgl8Anp8EsTkYFcUsgKUwo90B8gF6lhuodVKEtkhqFB/X0U+aGCqoC5zboGZlerJf6+VzIDAMgYwJQ3rZQW6ZCRvgx6FQK3DEGHTOASCywSanNmYHn+WqBBFgcQnDRpH1TEAGhYXAmUiaoFGKKgJXqOJ1EbqXCHdcLAkKtpaaPyNtXV2ahQ4CMHj9oBO+LHjstIHFSlQ5KT1wmJhhYZCDjjhUQYhypP3BbINE9EOpZkDuMRBo2ZVWv6TXoqQbxhSx2VAQAAC3RaBaBkGAK9H7X9/ZU+/uqKBW48hmVcSnKQFtWS32UNZA1kDWQNzLkG/vZvvj3tGLMJbPzeZ3/L2bnlDQDly7ME1ND3f/vP/8FG9cV4UKHcpQ3wZjbn88prr1nnog6fU+lYjDPbrVl/01etuMir09J27NmjYjB7Z3uYCf1RcS61nzy9xd+Wgk6AUQBLqX1frKYEMH38M8VwuTs//v/aY1+PULoEKk0HPq285ZP2jb/4www+TbgT+UPWQNbABa8BGEHk2NUGQQEfMCJPIDLgoBV//A+PMqJmEjEhhbFBWkj7OA/wqbSl8+jbj8p3bFQkCowkgC4+857j+Jxd8hupll4rn25ILKdeJSCHOHB4/0Hr1ecGva+vqnciA+ABkS/BfJLvWEMhrPTjROALwXhCIubknvT4fyFb8ktVdV1/w3uUpqWqYrBQwKpSKWJCFxGlE8BblZzQUcgTDtRlGsOEGz5LH2YXeEpCgTdNAYDMkswXVDcARSn3FUyjQKRjETkbypdz/MfEAW7KF39xaZSjfPQXhoNzWPiJJRQsKHpkH+WMQYBj6RKv26CQvyX1Dcrj1CxArML2Kan40YH48s0oUB67tZAxBMOjAzIQQw4wIV2qQDfgdEVAp0hwx/hJngKT0efCdRgJEGjPY+X7SFQXOawWtbRYe/sCL4HX19drvX09YlsJNdf4sOvaVWWvoU3lyUN5F9TzkSeTNZA1kDVwvmjgHx9/bBIgxF8FquvMJlBTK+Zre3vrhLH8K/EcADWM06K/g52LF/tteOrpZ+fsdrzznW+39Vdd4f3//Ocb7Klnn5uTsS66aPn4OKZx5hp4SpNouPzj/pak+W+76TJ/Xw46se/eT/2J9b38jQmgEWmZCNNruvIT9ge/db9f+0WF4+lRmLYBWgE+kdYpt6yBrIGsgQtdA16JjR/75Q/BRAo4JYXFBQkhPD3AogCEEnsoATelIE6pvoIEEdEpKaIGv5Ef/gOgIjVKtRMHGJkwNvxJfMI2MbA6G1V8qrYhiAx9R23/oSNWK1bRERWvOqK8wiQnxzccEpEBGfAJk3+LL4xfGPujIjrFpACfkAVvM0IIAwCrEPMJYKlCIXXIg4xdKpRFn4BZcS5XhZ95eDCYUSttsRMaBuXb1ucwuzlZLif4k32G45VjIGfY3YV2ORhJYj3FWgrKHyhrKYrLgootKbT0lSUZibnRT+l7PgP0xEYfsaArfFABOyxnUF0HnZQfyZetFxlwyiEhbSzMHiUR71J1hB3dvaI6Dmshk+AbNDuSv7GI+3R9n9hG7Ccel5jaWglN32xhFCJckDEYySUvzI0Zpc/AbP2yPITZcfyK1avtllvfbperOmKdKiMe6z5mBw/utyNHjtpxhf0RJ7z+2mvs0quvsdqGJs1p9n8hdsXkljWQNZA1kDVwQg0ACF1x2cWT2TQlYVQn7OAUDjLW5z7zm+NXfP4vv3wKV8/s1P/to79qjz38fVuzdvU4UDNXYNDMJLpwzrr9xqt8Mk8+Fwyo8pkBSBFa99lPf8hD6pobK627F2fGJrCjWuuVY+QE32QBn/Rjem5ZA1kDWQMXnAZw6Yq/uRc+yHeKlClMl9C3qArHKz5hkATCRyz1N5N3mZQUPlz4hmlfAEGJqBCvcSzOIz0K9AE+AVQBJDUpP/BiVUNfpmJUAGJHFOoNkYEIG3zGbjmUx5XKBSLDgFhO5O6lOh0+bY1SzTAXgKMka0TXhH+Ln1hseJCRsmVEfqiTGOSz0vpFjoDt1drUbAvaF4kRVmk9IjFAZujv63M/t1rRPR36gamldUH4khOVWzpQfn8GGjjBn+vT7DVQhdO8+K15GahtBeCPwJtBbQmRYrHFBnhD/qWSagMFVUXupCIq7PBTAXwpUiTj5EC1A5hJS5hFS5gd40RlgsijRI9HBDodHBgQu2lEIW8YAxmAYUClVIUu5OE6Zy35r83sCzCLULugWAbmXnp3GTfQ7GA7JcMC8AXoREzuyiWd9r6777Jf+uD9tnTtGqtpanBD1dvTbX09vb5VChlvX7jQmhd3OLXUW7KT5Va0VID8PmsgayBrIGtg1jVwrtg0sz6RC7jDAwcO2cZNAfhQ9vpctBQq98zzL894+FLwKV3U1T9qJwOfZjxAPjFrIGsga+B804D7POF8exoVfYLEAFjDZ5CpxH8qAjU4SEUniZC8aMmBmk4JcRzfbmgUYCiIA/TPO3y4yEMM22jUw+fII4yP1y9fsmtw0HaKyHBcYBNMqKiATg4qmE5j1q8K6z3qCb80QKcYI3zL8CUhUgRZIWQJckOQHNBDeMTIM+bECgpdVQtounLVWrv5lltFZLjWGpqarFuRPIdEZDiov4e8r1P19iuuv8YuU1G0WkX85Cia6Z6BM9s/u8DTyZ7XM5P1wr1aegN0oiqbJ9gs6BEwB2phYNWBHqMEAKTI5ZSMRoSwgU5PbKU7Iml4uiKYUJHLqbGaCnHVvlhBmQGWiM89JNCJBUvI26hoixgGjEK/M5sigVyEzCWADONSKcOj4DrmpBA7+on43zAGIV9iOxVfx01XwaA0V9fY2pWr7Pq3324rFXowIMEHqXTQUGctTY3WxtSI98UOSRZPxy5hYEbGHDPqVP405M9ZA1kD548GKluXTmBq1OcEdpNu3v6DB22/8kPMdUtADa8wrcpzPs3W+C+9tNnYUmOsWW/6e7l//37fUiOc8Gy020uq2v2HL3zTyP30O5/60AQGE3LgMqQqd3/6+Qec7USD/URTeslJTT7DtO3xn22xH/28qNdpT8wHsgayBrIGziMNJLaTfsIPkAnZ5R/hS5L3loZvB/BTLdsfwXecUoiycSYRjlTyx7C1hbQqnqollOF+Jx17b5wbB/A7IwQujuAbcg2+Ibl5m+TLwWqCvHBooMt9yqMiNZDehePk9aU/zgcoi+ThqW+AM/xPPscxXgtH/TrkQoaQCfApjuKLwr6CSYUPumbJUrvzfe+3d3/wg7Zs3VpFyNTLhVQBrO4ekRnEfNKGDluVa7F50UJVSM8l0uPOz/6/s/utpvCAjosZz+jsS32B9QjjCZaTg05lOoycTBGyFmBTlK+MvEixGMvVwUINAxFGAyPAoqQlYxM0TBkiLU7C6gB6ArEOYKtf8hCfSwgdKDRXJ8MA6whGEo1rMCos/Fj8MQbHHGl3Q5W2uCJdF2wtph4A2JAblKiCxzmdnYutY/lyG6uTAVA+JyiaCEK3vCchu1s4hJOsweIKo8j1uWUNZA1kDZy3GmjvtN6S2u/1JLk5D9qLJeDJXAE0rgbZ/8cf//G4RspzPs2aqsqAmrkYZ1BfyrtVbvrSK69TSF/kPpo1+QsdXbX+mkldsu+KK66ctH+udvzwG//WSBD+ymsvK3/VKz4MABMJx59U/qZolfa9r/6hv/37JzZ6aB0hdn/42fsdqDqdduv1GwU8/cnpXJqvyRrIGsgaOH80gD/pRIYAbXC/cJNIr8JrbFGVLiZV6qiHr0bUjBe3Ksw6gKnkR5aeHyfgp3rOcg3WqFy8gE2ARfiXpG4BTDoyOOA5loLZlNhY/MhAbl98yNjHWFwX1csjN1P4njCsgsgQTh/+bZIlfF38YjzAFEqYfFp83DUrV9q1t91mK6663IalhAFtNQ2N1qhiG80VS2xMkTbeXQ3FskbkcoolNRc//Jw/T9KcSTq7wNNUYk5+Rqc6K++TBghVq9ICFD7rII4nbNP+VJEAJQHWhOFAsaDULHXOD1YSYA9HMAQJtAooiP2BKoN4Rz+iOaozQCj65FpAJRhOgE58xvBgCKKvcHz4nCoWsMA5i21YbCjMWxipAjbuiHnke5oY+udWSsciUV0AV7GPBHODetvc2maNrc0ei1tTXSdbEyF+3jPokwNRYUmhUY636CbOYWcBAS+ekN9lDWQNZA1kDcy6Bvi1s6TTlAT84MHDszrUXR+4d8r++LI4m22FqPn/8T9/fja7nLKvL//116fcP5s7AZjOJshUKjvspluvv8or1QE+0X705MbxU9gHyETjnNT+5PN/428Bnx778RYBT+OHjD5p5ewn+Q2Tcj79p798sHhhfpc1kDWQNXABasB9Nnw35UmieR5f+Yf4iIl0wP4gBfAuAJtETPBr9F9iGbmX6f5U+kG/cL4jNOFZ4q8loAe2U3N1rYAn0p7wTSA8yIECWYEcThAZkn8LwEPPA6ND3h+tWom//bLxFpSC8CjZyTtAsdR/5HRiPy35mfisqdAVHS5cvMg6Vi63ykYlN1c0j1esc/9T/zGeon6SPwmRIbe508DcAU/J+Z/wAM3dRM7nnlkAlQKcqoUSAz552JgDSCgxATeARrEYgtEE4yiOx0KMfzknAVUJHR4dq3JkmAWeljD5l/hMWBxjcS6L05e0uuUzsbHDY4BajMONTKwi9eXxwKDLtNjvQJn2B2spRioauKKxKxoNjBPgWqDa6ZEBCCNpeG1Dg1UKcR6D2aReU1/h2OhfBteWmFbj+FJ65tya5JY1kDWQNTC/NFA/2uUCEU5nYjZN1WqbKXff7YfOE7LTWQFp0Md733fPVCqb9X3nCqiZ9YmcxQ4B/8oBwFHto1IdoXYJeEo5npJoCXCC+f0PT24yQCeq2KXGe9hS6fqnnntFBfk2Q4Y28jyVtpzz6Sze8DxU1kDWwDnXAH5f/MgvW4gvxo9A+JMiBATQE/uhJqX/IuokQuNiAil0LSUjxz9M6VKi+hvn4YtFXt4gKFTph3/ICwH0QGRIvqXC/eRDAjghA9EtXIuvSKPK+fDooPMIOB7X4xUW/d0kV7zGHMPXxP0Ln5VjieAQYXmRf5j97t9qDo2qjt7Q3ALDQ/mb6gvAUwFQcxdXEyi4jNUOQsWI+d/Z18CcAU979uzxHAJLly21JUuWhOQJv5j9eZzXPVaQmIgcSwqUrRYtcUD5lGJhBRsp0OoE+vAahoAFPaItwKIAjMZYyG4oioBStYNE0BlRUwGt0Ts3BHoFZMKI8B+NfmE8RSnM+EIHcBXGK8AoDIjv8x64DpnVj2RP8FYAZdEnMiYjkeJ1AazIHeXguB/lXJ2pfbW1Qs1lJGrcQCSAK467kCVtkn0oGLWQKz905frKn7MGsgbOrQY+9fWbXQCqbZWG002UKkAn9lWLvp5b1sB81UCvtIEBSAAAIABJREFUwgSPHp0+SfmwksrSAI8aLv+4dTRXigF1pb3tpsscOFLaD2+E3JWCTeXzLQWfHvgf/8YuuukTzm4CaCoFn3LC8XLN5c9ZA1kDF5wGCr5O+FfhzwWRAdBJ3xv0z5D8NHwxvDUqjnMWvhwbDcCIBiBUShSIfe6RjfuT+JX+Q3+B8QTJIMLdODsiW4LIENfg03E+JAa2IEbEeIVRncTAuCGO6tDBePIxw/dMfulk2SA6AFwxh/DzAJ8C1OIq2ExBhKgRqaNO+YGroMNqLCKLUB0beJNfXepITnIqS2XO789UA3MDPOkuPvXUU/bNb33T7n7/3fbRj37UGkRvc1wht3ENBEIbC86NhbL/x6JDUTgasfBYPMlw+BFfXLGIJ4BOXKGVxLmEzJUm9g7DxKKOc4rGpoAIC2gK9DsqC3B9QroRmIWJHMKvC8ZD8kmGyDUlAzAWmW8jBG98iv4mGYyQNfqJPgNsCmMWcbnMiwelsb7RWtrara62XsYBMArDkMCpQv8oQ9vUj1U6MPXRiRLmT1kDWQNZA2dfA9ODTkVZYDvlxOJn/97kEWeuAUCnbdu2TXvBoUNHJh37+fObje3E4OukyxyY+qP/8k1ScYy3DD5N1lPekzWQNXChayD8Gw+pKwA1RM9UiMhQrZC3qDQeZAJ8PicYFICoBAIFCBWAUvInS7XGeUTGECKXCA1AOgBbAQpFXiWuCd8zmFFxLNKycC2+YZAiIC2EH1hKqqA3PhOhQ7DK6BgGHuCI81PuX+YbQFX4sjFmJIVBAkILiwBagGsV1lDXYK2t7SI0KGUL4wA6+buSVvohu42lmpn196cFPL322mv2/HPPW9fxLqsXI+XGG29U7oArJgjX399vzz//vA0NDfnxq9df7cDBidprr75mL7z4gg2q3KK3SU9GYR/HCl0tWrTIFnYstF27dznD6sorr7Trr7/eGhSmVd76evvsueeesy0vb7F169bZDTfcYG1tbeWnnZvPmo8bDJ9XcRk5KMNyLBgVjgY6HPsCkCqKnAxHAqq4OvoLFJkzMT6JEunL38Gq2FjkAVhF/6k/bgVgVKDWHAuAKIAnbodYSpUkKA+Ii2kkcKsoHe8CAY/k5pxLzwGmRdhfsLXqBTjBeKqsr4vKDDqtxtHqQm8aYKrHw4+e5Dkr9JBfsgayBrIG5o0GGqeJp5tN0ImQJ/42T9f42wvbNLesgVPRwL59+8adnKmuO3j4gO9OvD2Pnlc7USoNTrnt5ivtiWcmV6P7sy894NeXhtRNBz6xrEpy9MfA+d+sgayBrIHzXQM4WqAo7hAXNhhDVcqdpAgafG4vSlVgKAHgBCMpGKhp+vhhAUSFg+UkA10nGEivEa43LEAIH7BafdIPHliVxuLaFDED0JMYT5F2hdy/QYQgQfjwaAqNw++EHEFimSA7uCxyV3WF3igCyLOVR2QNffIpvOGQkdP5nNhXvI9KeuHx4pPSIRE8dXWqhi7gqaZe+Z0KKVjwT5OryKuTG+jU/8ltLjVwysBTV1eXfffB79pXvvoV6+7utgULFtjv/e7vTQSedOMAf6677jp74okn7Cc//YldfsXlAg5UnSyepSnntGHDBvvzv/hzO3DgwDhIFQtHD52eiqmAq1tvvdXuu+8+e/LJJ+3BBx+0t73tbfa5//tzdsutt0waY9OmTfbFL33RnnnmGfv1X/91l/FcNX/IpSdYRt58IfPMjzkoVKeY2UCYYzH5ES2YWHwBFnG+g1DaD13R7Y/OCwQ7FiX/siBhUrHQfLHpPwzFxI3Sk5HPiesTIET/GA7sFqUp+0YiCVywlIjJDUCL8DgFCpYYizBAccN9aoyqfwNUK4JSRZAtxegCfFGFoE4VBypFkRxUfDAyJ51FbxPtA3KO6zKdkF+zBrIGsgbmsQYIOTqbjZCnBDxNFRrV19+XgaezeUMukLH6+vr8hz9+iCxv5Htat3Kh8jvV2L/+7K9MSB5OgvCpEn/fLsDpX38mzoXdlICm1HesmkrrVm6nZoXZpeJDvALgljIJPRRDFwZ/vFy6/DlrIGsga+A81kBCTQpTcN/N3UpAmSjIhK/nniBgkofdhSeZ/LAAjFJkjTuSBbJDnB8RNoBE8vE8FC61SKHCp9RXjBNEBmRI46VXwKuxSgChISUVV+qWAhgFUDQqR5PRAbaq3KfDxw2QK/rlc3H0IiGDnUw6DiamE/Plfb0YTxAZYDxBcOC8qsg9M95ZcsWLved3c6WBUwaeXvjFC/bwIw8brCdaT0+PAUaVtzVr19h1115njz76qAM9995zr61ctbKIFqTnpOTCRco6Dxh07NixcZAJEOoXv/iFkTNq/fr1vgFC0aqUD2n91evt6quutn6VNnno4Yfs7/7u72ztmrW2avWqYm4pnXvk8BGX5Qc/+IGtVFlFrmtvJ3nrOWgSf9JDrh0skgoZBeJwC3CUo8cJ5EHSFEqXFjev/Acwk65JM0oAFJ+j6kBR6RwL5BpEOaiP7Etsp1jAwZbC6AQABeNpyOWJGylj5t/mGHtEjKf01a4IjCUIi74rK4IlFYnJk8QYx8TKigoD9A9IWSOUetSNapw7Pr/C/S9V4kxBp3LwKukqv2YNZA1kDVzoGli5pGXKkKgEQu3aucvarponLOAL/WZcYPODKdfa2jrlrDo6Ouzf/asPTzr2L3/7Y16VLgFLuBj/4rfutz/+/Y/5uVS6I+9TaSsFpTj+j0pE/t+/9qCHftBgCPYWSPPpXPaT3Dy3rIGsgayBC0oD4Q67H4efhp/kMBN+nd7XCL0BePJq4YA++q8UfAqmUDGHMH3QgtUUQE/sCQ8siAvF8DrAIVJQsj8RG5CFHMGME1vkIw7mEvmDh93X7Ff1PYgNtOhXVd1LPldWCOhyMCn8VPzJctJCQFXIxnlFYgM+J33zWqtoGYgMhCCOjkgH8rFrLDO7XfHnoJ0S8LRv7z4HnQiha1GGeBogUIotLZWfX74Iv1u9erW9/PLLvjnwlFo5SqL9hOStXbs2nh/wBj0xG54TC+rP/9z27t1r7373u+0zv/0ZXzg0Ms83tzQ76wp5nt3wrH3lK1+x733/e3bTTTfZh+8vftF5+umn7fsPfd9D/97//vfb2257W6m45/69ptTc1GC1jY02cLTXjQX08GqQX23UfhsYjfdFiCn04ABuyaLnUxiXYvhcYjdhZJwlVfgPQ4CBgDIJ06pfi3JARiFuQsQGAwxz3pCMRIXAI+437CVYTryPhHVJhSETyd6QO/rnGm54JHsLecOAYBoxNOxzVN4ReRkPgYoVyjoOy63KLU3JAwMYdZrtDC49zRHzZVkDWQNZA/NDA1UjXfbCCy9MK8xULKhpT84HsgZOQQNbtmy23YdHHABKycUf+PK/cZAJ4KkUUKLbqZhOnPPDr/9bH5Xqd1TCY3v3bVfZJz/7p+PSTAVgpYPTRLSewkzyqVkDWQNZA/NEAwXMJQgZ8cF9vAIPAL8Kf5L6Dgn4KfUhky+YAKfirPDlwteKanSAUA4PuW8HuJRAH84CfEr78R/x6fDtUq5hfELFz2gf4FeEwAWTClAKLAE5JbRC7AbFgqpVNM2I9uGbMmrIl/CGALmQz/3F8VBCnenvifKJvFAcr1LkTJXYToBxYwBPhR8p5skdfMuJMXPgSfeShOGwhpYuXWrLly+3zZs32/Hjx4UgJqbLRP2tWbPG2Ai3I6/Sne+904EEb4FPTMATYCCVs5AOHjxojQJjWFTkcyJkb6q2YuUK+8AHPmAATM8++6x993vftfXXrLdLLrnE9uzeY4888oi9+OKL9o53vMPu+cA9tnjx4qm6OSf73FRogTY0NVp1Xb0NaGE0VLFIR7X4AnTSMhIIxYIP5LdoOLi6oNNx6YNeyIILwCexmlikcT70Rt4NaMX3iosOY8mNk4wCaHRHXY21N9RaZ0Wj6Ik11jfUb9uPHrTunhQbHOYqbmRCoT0ble5xpYNYyDqiZ8PBLpdS1ziwxL6Qgzhg+gBbCmQ+WE+pFCgGBGabt/Jpjs83v8kayBrIGsgaOJkGSvM7VSsuCSZKaePvbW5ZA3OlgT/5/N+Md01i8R89udHeddt6+4MylhPnTVXdLoFOCZS6/UaF5BXC96iSR5+3at9nP/VhB6QAp+76xL8f7wvQqbkxex1zdX9zv1kDWQNnWQPuSycQiA/hXLe0Nlt9U5OIDN3yxci/C0mAcyutnurpowA6YQvZjQ+WvDr6Y1/K4cv+8CcdUtK51Q4IAQax4VcS0pyApiqRQiAsDA5XOKsp/NaQrVrAEn5m+Iq6XghVkBG4PsAtxgeoimp1CvDTNUFS4NpgbCF9kB/ol/NhV0V0DtLjT9IgVkCHrUQgKYBcygGY+eHczoEGZgw8UbEEttPWrVvtn/7Tf2pLOpc4iymFvU0lOyFtK1asML7Mbn1jqx3vOm6tbVNTsae6ftK+BFZNOhA7br7pZq+iRxggIXV8XnHRCnv88cftoUcecmbU3Xffbddcc800PZyb3YBOmI1hrdzewQGPe+1VXgQWeiDUUTIyKgLwvrhsWLARxxosJJIxJSOBISBPFCBTnMNCDRDHUWIMBcZB41UKTwJlhvEE2LOwrcmWdS60pvYOq66vsa6+LuvZNGJvHlcYpIxVDcZDfWMYYoGDYEOfBKFOBoswOqQBXMLAhWx8jlvJ41c0lLzn/DB2lAPVNQCVZwo4pefmTPs5N49HHjVrIGsga2BWNNDZ2Tkr/eROsgZORwPlYNITGzY58JRC66ZiOaVxAJlohNel0Dz6I9QOkOltN13mG+F76bzy8LoEOnV2NJ+O+PmarIGsgayB+aWBgn9TWQBaUj7khsYmqxCBYEA//tcV0qDgW5HaRBCUExloxdC6cJACBAqyQpoo+/AZI3QNDzBYSPh/kTcqfM1+jdUDtaoA/EBiAGRaXFdrHZW1NiTnsKau2roH+2zX0WO2p3vQ/cZqAVn0DzuqzvEhZAlQq0ryIjeRNWMevkdSch1jLn5WAq4CrEpeZlxTqIYH8EQUjfqo1mv4pPPrNr6VpJkR8ETiyEcefcTzJ5GD6cMf+rBt3bZVCR2rHXjiV6WpWvuCds+zROz/nr17fBsHnk4BBIAlNYEpNc21HQs77AP3iPX0zNP20EMPOesJGX/wwx/Ytq3b7Nd+7dec7dTU3DSVuOdsHwwhLWslfe2zXm1R3S3F4RbzLgXIlMSciMLxibA3ekI9yVDEYqaaQAA/Du7oLGiIQUUMUIoxR7XAoTq2t7XY8ktW27J1q61ZOq0S86m1p8sWHT1gVbrvgSrDTCrkbKJHvycBRKX3yZCEIWNcDF1wnwJw4houDIYWMnIu4YUBZukDAJn+K0JtXHOKbZrn5RR7yadnDWQNZA2ctxq4+x1Xn7eyZ8Hnpwb4YTE1KgWzvfHGG3b48OETCtyvHEyl1RoBk6ZjOaWO3nFLVE4GaCptgFAAVwlwKmc5pXNTiN3Sjkb70DsvOqF8+WDWQNZA1sD5pAG5Su4neW4mbQMDA/In+53xE4WqIrIEXy/C34qgTYA3kYYl/MzwLwmnCwIEgE+QGDwsTooBcMI7Gwd+NCb7AJ/kcXq0TiIytLc22XJFGTXIt6wWqeFYX4/1PP+Cbes6qnMhHFAcK/qKkD2qq0NCGClhSxVBsuQ/prEjjC+RMIp3LZhPAtkAnog9RElq+MC5nTsNzAh42rJ5i4fYkR/p/vvv9/xIO3bs8BAo/shPBzxxfNHCRR4+R44mtssvnzpUbrZUcPXVV9sH7v6Ah9VR6e7111/3cEDGveeee+ziSy6eraFmrR+WAsZiUPodHk5V41i8HElhbLFYSpNop9xIIYgvQS18qtfF+1iUGI5IshYxvyzmiH9lUQISBUgFCq4Qv9oqW7XmIltz6/W2cN0qqxRizjfEht4+W7H1Det8aZPtOtJj3apuB3uKEL3maoUJilq5oLZe1eh0fgFIwgCF0QPQSpUQAJkYPxmsAJ2YA7MFnKpXRb86hRpiKBwz0j/F0MKY7aR/w574ubllDWQNZA1kDZyaBnJ+p1PTVz7bnNFe2kiHwAbrPBWgmYmeAJPK2VAzua78HEL3Pv6ZP7XD3ZN/DK3Go1Fbumhy5b3yfvLnrIGsgayB80kDkIQKuIqLPSRfsn9w0EEmoloAjqoK4A772MJhCh8sgTi8pgYbCt8rQKdgPKVrFdziLVhUvGNH5PUNdtSI/DizttY2ERnW2PK1a6xpQYtVCXhq7j5ui/bvtZrt21yOCNmjj0Q0iCgZeozE5RyJvFAwpNwbdrYV+3mFSMH10cKnDWIEuaIa5Z96DuHC8fCV6WPmAFT4rTM/vyhNfleugZMCT/xy9fDDD3t+p/e85z32vve9zxlMlQIHAJamSy6eBoLh1NbW5pXqjoladzqNMcZD+k4CLJDUnHC6Z559xr72ta/5r2+MDxhFfqdx5tTpCDKX1zAvUQiBZxJjiAUfbKFC4m0HlgKgIYyOxceiS3Gt7EkLKlDroEcCUAWjKTGSgqLIOMEmCmBqRBXrKqtUTa6z3VovXmsNa1bZmD6P1dRaTX+PLdXnFQrVONa9ww70D9jgSIXHCi/Q87C6tcUW1jdajQxbjwC0Y4NR/S6xtyrdgIWhYFTkY8psaY68rxMVs15bhQylkE4dxHhM/5gmlJ95hFk5yQOCknLLGsgayBqYBxpobeiz+248Yi2Lfsl27Ouxh57cec6k4m9nblkDs6EBcmuyzfSZUtGhWWmATtO1XlVrqRft6flXDttysZ5yyxrIGsgauCA0UHB7SokJQ/hg8qHwCROYlF7Lq4AnfzFAnFLoKaCg5HfGecFGGhXw496oHMmInonPAFGANOR2qq+tsBUQGW653havXWmVDapUrtQttSplukqkkEUvvaSQu+PWo3MBrZgG/irkgwXKLdxcXef72dcvBkWkjgl/OGQKnzIVpkpAEnOOfMZjzrzy9E6SE/+/CKsV7zzAV9JJ6fs4GWc15piAPY8EzO20NXDSP/cbnt1gDz38kLOW7rvvPrvssst8MELYJjCeuJtT3AwSg7P19vb6djbamrVrXE5kHFauJIAnKuyRFH2+NR52rwqI/vRS42FmsdAAhrQcXGRHlQvvA6hB2Vw70Uhwbiz/WJCRyDvC9liULEg3JVAbHUHWQteCFpZt7S0NtmCRqhXW1SkueFCZ/8VoalBOLsAn5Z6iIkB9da0t0PE+IV9HBQo1S8fL21tt+SKF5Glfd3evdQ0N2jEZPAxFPBYRQhcjT3xQkqFATs1m3PB0dymn1FHR9YXY60YW+nFVqMl4aGwPUZRMHorpOtR49INVKBiYikICPDp2cGqKZzT1ml+zBrIGsgbOpgauWf6mQKcP+ZArl5ybEPCGRtn99gW2e/fuszn1PNZbUAPp9+J+gUC1BQYSatCfeGtX0u+uKb4iRmmS2VFWCvE7lwDv7Mwk95I1kDWQNSANTOPTjOAjyacClAk/Ed8rLDCpTPAvE3iDHot+ZWlImx9x/zNC7iLvMO+T01rtAlSImUR+3/Axyes0PDYou15njZ0d1iYiQ926tTaGLycfsqq/2zrXrLaLOhfbsZ5+O9g/5MwnQKI2RdmslU9JBE2tmEzHB4flUw67n5xkwJdLAFepB4xUpQ0iQ10VvqGul09Lqb9K9wmnUVrZ9ZF/uXBuuJUTWGVlp+ePM9TAROBpIiZgu3btctAJyvTHP/5xe/e73z3eLYmfE+PJUYFpGr94NTQ0eMz/aQFPfrOnf0gSE6r0HFhOJD4fUaJs9sO2evmVl23f3n22ZOmSoqRl851mCnO+m9nxgNMwBixoREsodOwJ2AagKgCoWOwAN4S7hRHgzKKuSKSWUNx4T/+cH31E/5GsbXhsyNYuXGYrly+1o0ekrxc2Kj54wFqWLLXqmjrr3rPLXtu42bbv2+9lOptkPI4LYKqBoSQUe6imynYf67LdR46K7UTyN5MRqXZjFGMWKYoBfvE5ZE0JyAMIG7bekQEbOjpgfXv2mR1VDHDpM8CzIKPhYDu6cPAJZWlAN7SxnyoGFYT3QSEDhHJdpHA/TsotayBrIGvg3Gqge6jVenoOWVPTwnMiCNVpZ8pKOScC5kEvKA30vPyNKedDfqaUo6n8hBMlHC8/1wuSqBW/baQzAr6C9cTR0vxS5X3kz1kDWQNZA+eNBk7gxwaRISJjwt+DdIDLFP8xx6kBp7iGs8i9lK4FwEopXigiFf4qZ1FxPcCpYa9kPmRtzQ0Ku15gozU18umGrUkDV9apqIOIDBUiMlTKP6xTNM1CGeNBkRQODQyLyFBjK9rbbNmihTpnRN+N+pSsfFi+5rATGVKVdtLHkIolhQKG/5tkDf8WXzAq3Y3aMRXF6jlyxMb69ctGQ6P7jfiHCVji70UiM7jPXKA2jfOjHONwxXljXMY8lVC9uDL/iwYmAk8FpYJ6DIpp8vjfP+5JxcmPdO+993qi8JTPCYXzR760qp1n0y+5OQwwTn1LHLVT1Lv3dwoNcOuh7z9kP/zhD221ENUmZfYHOANAu+XmW+xXfuVXxh+eU+z6FKSY+an+AKM3bf1iCQ1qgUEnBJEGfhoSmMIPg5HIjYXnK6DQYqHFh9BT4hixLxkXjsR7QKfI78TxMCJjXkWvT4bhmPI49YuxtL/vqL25Z7dtUT6nlatWWUtzs3UfPGwHt+/RAyMEWiDPEY8dHpNBGLKNB/bZou5u65aR2Cf0GlkptdkgnKfBFLrn3wKT8Ss8I74nKiOke8xcCRsk1K53oN9+8fTTVt1cbwsU4kdFgii7qRlIVsYYEhJOefAxodmg+ugQ/IkSm5WNdda8oMM61662BatW2GjhCymS5JY1kDWQNTAfNPCL7cvtSPcr1rHoEtt7sH9ORbr08kvswx/+8PgY5Fzcv3//nI6ZO88amKkGpssV+pOnt0zo4t23XTVtlzue/tqUx0henircAT716sfv3LIGsgayBi4IDRTAp+Qe4vONyT/jB3qICqQ8oTlgwzGnNqQWHqL79PyQX4iKAXDyaBL/lR9fvkgiiPcRiZOqx3kVdV0LgYBqdmtUmOoiERmOKMXOq8q53DvQa62dS62qts6O79tnr7y4yXaKyEAu8nrlYMI3xe+trxeRQaF2h3qP2W5de0z2ekDcCogMTmZQBTwa86qoGC5gRDGHmFH4msNSBnL0ienUf+iAde1SGgMRI3w6UGzlo7qeCr6jg0wOOrGTHygKzXWi/bxynV7cn+bc3E5LA9OG2h04cMCe+NkT9tqrr1lzU7M98sgj9pMf/8QH4aEFzOEcWEVUjSOe9Or1V9sdd9xhVJdLDQCLrU7hWbUqqXjKjft9ghtcfmzjixvt4Uce9kTmv/Ebv+F5nb7yla/Yj3/8Y/v+Q9/3qnzrLl53ymLM+gU83CXPrQN4Al6GpE9sBIs5VgAjo/FkKGKB+aJj6bkxqJJBiYRrbnjQmR+nBGVsxfjVQK/plX30m+Jxt+3ZIyaTEoW3N9mwOOl9+w9bX3WjNbWPWKMs1rVrL7HV7Yvs2S1bbPu2nZ6wDjR6474+axFy3SBwiLjamooaB56gW44IBKopmLoi3RP5BGEFbUkSjPhWJ+PTUllnbbWtdnCg2na9ttWqenps+bKLZBxUpWFoACshdFy5qNTvsMp2DqkK4Jh0ViNUfUxGZkAWyo1rU6PVCzW/7J/cZuvvvtMali6e9VuYO8wayBrIGjhTDWw/3GHbT1IF7EzHyNdnDZxrDaTE3/rKYF39xS/2jcq7lBhIhMIFK2l6ad9z+3pjS+1EBW7SOXecAKyafqR8JGsgayBr4PzRgGMmpBvRj/PDikgh1Qx+WrV8svAjI++vn4fXVUZkwGcEfIIAUNoi0iZcVnzK5H8CUvGeRl+ATuR26hHYc6xP6XVERjggAGnrnh3WsvFFW716jeMJxw4etANv7pSvWGXHhDwdGlBqF/XRrYToL+5XZFJPtx3vEQmiZ0D+KQBRpRKER3hd+MbIX6yEx3uHgwp5p8LXDMIGha96Bnts48+fU9qfZlsoMkWF/EV04wleSAnjvjfFvUT8UDVAxiBKBrJDFf5sXb3VLWi1xcpb2LFquQCoHD0z4QE5xQ9TA08CLo51HVOUk9BBgRMbNmywZ5991t87qwmEsPCez48//rhvn/jEJ+y6666bADzBSOnr63Pg6XQo/R6mlYCnkwCMBw8cdGbTM888Y9dee61Xsbvzzjttv1DVTZs2OQvqhutvsE/9xqcU2nBu8mmM358p5gKDrE4P9JBeYfCkBp0xciCV7nPYqQAuafGwUPwCGEWpxbsU6hbgVQGZ0ikB/MQ1AD/E0lJT78qVq6y+rsF6VfKypbHFOgUkNitxeKUEOaYKgZTp3Hawy146dNiNF2j6YRmOJslO9bohDUuoHeF40CoxApUqi+lAlwtZlBCDgWHhnCahyQv1nIwJlMJY9Mp4VR4fsK6BXdYnI8oEq4WEYwyqNQ5AVbP3JYaYvsxC8ewaIFZYTLHeATt0+IhtFQC17NorlRRdYOh4Zb1xBeU3WQNZA1kDWQNZA1kDc6yBd90WYBE/Gp9O+7MvPTDpMthQqRpeR3M4QJxUWtUuAVut9SrvrV/PPdout6yBrIGsgQtMAymChh/jAVGGBag4kcFj4sJXiteiD4YKki+ZfLMAoDCURX/Rz5KfOR7FpGOpeh3V8shNzFgQDvo1/ptKldIoW9/Y1mKD+kVhYP8RG6xptcoFY9Y2WGHXrr7YLl7YaU9ufsl2bt0pVhOV9gbtoICnXWJFke+JanW1lRAZqt0Hpm8avmSKAuJzECzSnJB5zOrEjsInbReR4dBgpe19dZu9cLxXLKyLlNHYrF8gFzjViPxeHFN+wBhQpA1kmhqljqG3Psk9LBmqGwQ8dS60S9/9Lqtrepc1Lu6IVC4uTW6nqoHJXwEKz9nixYvtIx/5iK1fv16IoMBaI6JNAAAgAElEQVQBL71YaLojr776qoNNUPVhOb3jn7zDwZ6OjiLbibOPHjtqXUoUvUooY2urElWfYksgVzmzaapuAJweffRRl/WDv/xBl4n8UlS5+/nTP7dvfetbznq6+eab7ba33zZVF+dmn6Mxyr4v1lCTkNXhKsW/Ssex+BEJ1JUQORY+iwzkl4UO0AM6LfRV37kCnIpFGVdFNQNPXu59xBez6DsWKaUp2QCeugj1E6q84qIV1tTSbDvffNMGAJoE8LQuVFyujjWp0sClK9fYlbsO2F6F5R0TC4mSmRgBjARso2Hpv4KEbppBkamFRLGPdyQ3d6H5V6KkeVU7gFbloBUGDhbToFhMFZqj285hGFWiYwJOaSN5nLO9ZPEYlyp7GBsolv1KYHd0z17rOXRExzVeYf4a3MfNLWsgayBrIGsgayBr4OxqADDoZMymqSSaCnya6jz2yUWKQ3rhRz0V3/WNrwKwrnLLGsgayBo47zVQ4s64j6RG+BjFtWqVM6m6ss9D2MIfCx+MolIeLub/ASYlIkMhabeIAvhyAUjhn07dOE4L/w0vk/5j6xJBYUCXQmSoUbQTJJRWMY6Wd3Raoz5jk492d4mY0m87RWTYdOiQy0GDAUUETZ2IBoMy2HWV4b96RI0GCzJFhA4iZQBkMX7IIMBLfiAJyiE9UCWP3MHWLULCtl3WC5FBjRA/2E7407Uar1HykruqVvjWQIH9VKExR8TcOqQcxpVKO7P0youtScW0cjt9DUwGngoPLsCT50Oapj300EP2yiuveOLu9931PvsX/8+/mHQmANBBUeoO6YG66aabbElnSWLvSWdPvSMBTxxNSOtUZ+7csdPzUb2k8oyE1911111eiY92xZVX2H333mfPbnjW2VCAT4TbdXZ2TtXVWd7nq1uLsMqq9a2ogURsBSMxMZ9TEdUlYXfEuw5rQcIo0vUsDgFMkfgtJRUHDIoKdgnYYWED7kBJBK0mrxKJxQFqSMTWIIPQ2Npizc2qbqeg3f2791rvgSPWo/uIIWtpbbfF9c121aIltm234nS7iMv1u+PgkzO11D9ysagT2FVUarkRi9A/zB4IN3JiFAHV6G9ANoz5wYaiQeMsMriYswAnzbtH6DVzb6gKpBz9HJOx6Vco3qDC9byT6sLDfZbvcB4uayBrIGsgayBr4K2uAf2Jt5vFQL726qiOjD5q9Kc9saAAhJTmcsrmuZ50/TtuumLK4/pRerzJl7E//v2PTTovhfudLutqUod5R9ZA1kDWwDzRQIoq8egZgS4N8ikHBagEQQHfCx+IbEr401GJjsgX/C98NfwuAKdR3DgZW0Cc8LcAe5L/hH8ZPQWhgWMRZgfJIYXwETY3KvBnxYoV8ichMmwTkaHHeiuOWOuiTuo/WVtNg12+YqVt3bXP9ugY5Ad8yKheR+RMSiBeZfWeTkYECP0bZAqUXpiPZPbQuMIUkQEfECICu5pUXQ+ZCUMcFMMJf5lxgkAVleSb5LNGbmUBWvw6oc4aFLHjUTz63NPbbYd371KSchW8cjJHDrfjDpxOmww8zbCXakAF3dRaPdhs4y0929rRfbzbDuw/ILpany1dunRiRbkZjsNzxSLyaiXpuS+7dkgPK3mmHn74YQeb7n7/3XbNNdcUz5dM73rXu+zee+61L3/5y34eicZ/+YO/XAzjm6k8Z3qes5vKJuIsnyh7WSO9cpTFz8MeLCcoiAEqhYFg0ZBsTQwj3QMarCfAowFt8Iw4D+TZMSxvIMb6gucgUSTnjr0sII5VWKfC6ZbIWJkShPcqVO3Y3v22X5UA+0V7rFEIG7IMqt5xW0ubtWjhrhB6PUB8rIfLhczIzfyaxVhq9sUegFjRTCEbIYLIjXCe0k0bAFkYtBQ0WC2Uu1e0R+aOfC36hgrtkvMHtJ+E6Jwj6MkBqdDNkNM8aVA3STY/pJBBU/yuNOb7c8sayBrIGsgayBrIGji7Gtjx9NdPe0Cq200FJqUOS1n5qbpd6TH2pXC/0xYiX5g1kDWQNTBPNQAg49FByp1UJV+yzn2mUoAkiAiElgXgFIWsiBwhpGxkrFq+HMeqPYWKvE7NNIgMAfaEv4hvCQECDw6/kogZ2EhEz/QrRQqvNfLNGpQ6pbmlyVqaWqxC+VcO7N4jIsMhGzja7cATgFRHY6tdvnCRvda0197oPu4gGWMH0BX8JeYQRIaIoomRJ94EJ2Bo7g4wue8bc4QxRZ+aqRMUYMK2Si+c0y8fMVhb+Kmai+YQCcmHHfxiXPxsNtK/9KnS+7AAKKfN5nbaGjh94AkanwAnkjpX85NVauNAh9kuoYO7VR2ttaXVVq9abR2qMnaqjS8L42F2DmpMbps3bbbvf//7tn37dmdpvfe977VG5fYZb5IJ1JWcTzCeyFf12A8esxtuuEFV21ZO7vCs7gkk2amResiZbyDGkSepwnMjjTigxIIIkAfjwsIX/itjQdMSU0I52D8YijiO8eBIamkhskBTEjYQXgAdDA+sosMHD9nLz24QEjxmr0if/X2DtrJ1oS1buDgWNcCZKJRtNXV2+YJFSvhWJ5RaVQO0gKmOR34lqg60KmyQvkk+3qMk4BinIHNiBJE5QKcAoWBLBfuqXwCRInk1VoBmvDIn+sFYdNbzs6ZyTSnEj4p6DljpP2daqcF66h5CZ5WSpcL6FbM72NsTpTLHNZHfZA1kDWQNZA1kDWQNnE0NUF3uH5/cNGHI6RhPt69vsyc2HjOq2JUmE+diQKjf/Fjx++T/z96bQEl2VWe6JzMjx8qaS/NUJYRmCQ1IyNUGJEDMMhjbYEwbjDHt9Wz8bPza3e3n7vay3e6m3W2bfizzFsY8Fv2sxmA/g8BMHjDYWAhJSLIkNIDmsVRVqiErx8jp/d/+74mIzIrKykxlqQadk3UzIu499ww74uzK/49/7/Obv//nqW/n3Y12xzc1k49z8s4H6umWL37y+Zxq6atYoFigWOB5tUBEBYW4QShLALFXOAxk5GgYziptiQ5wmgkmiw6IWiEcjc2gSHVC3t164M5MsGQcyaNJHTAduAuix9E5qJ3AXo6CIV/vepE1U8NjaXh0Ku2UkOFpbWC1rqc/dUl1xAZUY8q1vF5ikdV6jpAh1FY6eHREjvtHxLBaXAOF6+6XOTA7xsSjsXBU0hh9gA8tujBGZBd34UuJp8C7g1Jk5X52izDDDhBsYNk8tzrb9alAYE1IRDMhPBnEU2XnkrrFFl/K72UTT2eeeWZ690+/O0LprrziyrZ9PvrIo+mRRx5J1D333HOXtasdSqm3/8TbI9fUy1/+8rb9dCvv0DVXX5NecvFL0tZ/sTWd9eKz9q+nz+Xll12efuWXfyWSpZ99tqTe5ir2r3soz0CQ5DXc0g/kCWuI3dtQ+ECaQLjMBpGkxVIpf3AYLJQgj/QDk8t1FiAhdDC0LBCXZkeZIcZBmENGdYSzcUJwdjGg7Sef3ZPGlbupJkcAYXT8wKp0ytq1adMg+blEAkn5ND42IcKpS4TUmlRn54Ro045E6saQJ65hlzndQZsjSlnOmHPYHWOH0cZHMmaK1U6ZWY8ov3CWzDLfx3j2qj8cBuwzBbtAVOEwbTeTb9ozzw6xitMlYdyyP+zRUynFAsUCxQLFAsUCR5cFnnjiicRxqMp8ddFC/UA6HbfmH9Nl5zfj4mYeuzPNPHFn3NZ56sWp8/SLG028Tqk4tw9Rdy6R9MTjf6cvGps5Q9/3E2vS1I0PNe6rb9bOQ1XpGVyX7n6xYu9KKRYoFigWONYskGFehWdBYxRHClkhFBsu6ejqdL5mokLAidQ1HrQAojciaKrcvMqn653JEQKYYGoFrxAzjqDJxBPqqc4giMjNtEoXh3ftSQ9+93aFrqX00OPaCX1iSkSTMOX6jRqLSC6NY3Z0PK0WZjxf+aFXKSfVkGKtQ8hQCSkImQPzGZNORaSLC+MUCRbIztEyCBlyihowJ5EwJsNMKEGS0fb0bD2EDCf1rwpsundyPAQUvhcs7ZzC4NSxKoKGtka1UVpdUTQzOtdKcx1rH6lDPZ9lY/HNmzen97znPUHeEHI3v7Db3QMPPpAefvjhdM0116RzzjlnfpVFvT7hhBPS29/x9thNr2uOZLB5+3nnnZfOOdvtd+oDf6CyfsP69Na3vjVdd911sSi7jqQtEbWI2YFguD5WLSxvaencS3YkLBDyGeEEIGPylpfO6A8hBXuLM3FcLOdZaPgjHluLFxjiQ5Jxk4upOxwR5M0+KYb6RGdD7nBMiGjarZ0GcACT9YlwHixnbSNXkUxs1+kAOQguFFQnKGwPJwSLjvMaFQFkh2gHxnhibGLHYb4ZHo7qeO2rPCy/Mibl03hEzPHLeaAgnhjfQE27DuhmnAJzxSY4VQgwdrzTP91iJp9PJuotdi8opVigWKBYoFigWOBgFjhUZA3Ka45cbrrppoMNZVnXr7qquXnK/D7bNcgOxmwCQ3nggQfi8f77749dgQlXX6hcffXVjcvUHRhoUZu3uRHSaefN35h7pVbZZNuulLY1r2268ur00gvbtzf61CNp9IlHmu3kNjjTev7UzemSSzbP7a+8KhYoFigWOBYsMA/bhcigwn4KgAtM6DA44aeKtAEv1asIFW8MhSFynicLGbpFUnVJAJETt1ADGJWJLd/hCB3OOvTOO7MTqUO/T4t4GpfiiQLhczJCBkVAHSchA5mmRpW0GzHDGqVmsZABjDceggvtP6FHMGRXWttjqgIlFERQHkMINkLdlDmIAH/GgDFap6gBg4IPTVB5fsPCpLvr4xHC1ytuYVA42FhS98hOWeCBndghL/JkKVRvQgkEp/TYU0XZxORKWZIFlk088dnej7jxex4DeFqxnCT6Jkzu0ksujV3tllsW843aQoRTfP4okB0iQhasu9xBPof7kPZBl82IWKlrMUAAIWPMH3yTNGZ0IYwiZC2cTV5gJnGCjJHyiahVyJcshcySQd/D/Sy/nJdJIXtyUpBFLDCcA4V7YL+n9XqX/iDtnqqnwe6+2IKyruzfLH5Yc/pcJ8UZ9S3ftIqK9iC0IJy218aCefbYmyRYxCPHNDzuHCY4Sa6qaL9ivTUkSDTux3lAjFGYg7n5vHsficmRkjaJUMgythJdzK6I0WgpxQLFAsUCxQJLtsALjaxZsoHa3NBKELW5fNhP8XcbKQwORj7lgVKXew5GPh32iZUBFAsUCxQLHAsWaCGeAktWUSRTwk/jUg+hEJqesSgBYgXMFOhJDxA54EiUQv6S39jP+JO8So6gAXuBH8F5GU96gyrjSMQQRKmQ12mN0rD0dCk/r7Af/ZEwnEgcdpkjV9KoNnsa2rEjxB8zwnJjE2OhiJqdnA0SCDxJvw6j64x8wcf3Kc+w6vd0Dof4IKuewIWZhMqY1yllUmDaE7Wr/dCkwuMC1qLywlhGjQgZpmfHqgTijrAJcYcaspBB0TSyj8fhuRPsx93G0rRZynIssHzi6SC93XHHHRHSRpLvrVu3plWDqw5yxwKXWwitRq125w7URMvCPFCV5/X8AcbTiZxQCy9fRiKIIoiSY14zeeQFkUcNmSQFV4tj4ArOIH6qXQvM9vq8SS1Yasf2snUl12GpWcwQNrVgdHEsMOVyIDMTyp80GQu/rmH50TmccAQsVpbliBRLe6SMgmwiFxMEFXW5xsZyUU3t8mCFFnG3s+mxkeG4b1SxtsgsWfA4UXJG9Yh9p2h4sfD5baepuYecKUstLRXVLKNOjsONbwFKKRYoFigWKBZoawE25ti8eXPatm1b+vznP9+2TutJVDIckAxrFHZNolCOs846q1GtVd1z0AYXWeFIJ2sWOY2jptpKkk/sPDd1458qxr6p+loRQ1S5Lvdrq/r7ab/z5USxQLFAscAxZIG8o1x8oa+DzRbqlUCAhNqQR+xijlgAdVIu4D1eT037HJjLhI7EAvElPmohvtAPRFWRT6Rq4ZWTjNMWGI8958iTNKDQOQQNYD+6gkiCfKL/IVSxGk83wgbhOcQMY4gudD91UR7VhOnqFZ4Em67TBlc8EgmzY3w8cjBloolxOLk52BbcRzQQiqV8kERcYXLqAzEDOBW8PEsydBFRI7FbnrEoj8wKRIm9wJj0wyMEF/gVnA22biX5ooFSFm2BlSWeeMdU2GVu2zPbgtG8+pVXe4e5RQ9pXsUgKfY/x4fgoGRCvrcaV8VXzG/tsL7mA0wYIaWmBden+FgWqGWBDNy7wrFwOHJpSg3N+NJOZq9NSjUNZzabO20IJ1nTfVrcSAxhhteKZe4Q42wHQz2Ioc5wBqib9pHLiWTdWrj0DbtND7y2ZBNJo/NPKQ4v7ZKEkXnsFpFEEnCu4ZAgibw7AovZY5zSvHgvn9BOevTHGFj0vZ29Ys/7dOA2We12BDjCmeoPTRxkiC3JcaX2mRvjNEstm2js0+ofJ9zUQTXMWJ4UCxQLFAu84C2Af4R44lhsIX8jxBObjJCLsZRj1wLLJZ/6YjOQA5ee41+jHKAvmlNhaGpDqm/7Wtr5xG1x/us33pPe/fbXHLCRJ4bPTD/7rz+V2vX1hQ9fccD7yoVigWKBYoFjxQKQLk6hAs7yRlXkUTJlYtzmuRqngb8gX3IB14EdwWKireIxY2wwZM7zxCO16AvMhcKI+2KzK/VHfifUTd2hLnLeXsgusBk/4FQSdhM5MyzSCTLKIW4pyCHwJptJZQzHPbvrnWlMxNOQhAwWOXh8uX3mwThIPwNhBSZ9dGRIOHQ0lFdOIwNn0CUCC/UUCjCNL3CsRQ3YwSPmNdjUtsvzxQYxA7CnLmdlWcOA5cmiLbA04on3ovk5XbCTyy67LH3wVz6YLrjggrR23doF6y54sU1/iyKdqkaXUnfBcRzKizgALZSOiojByDwNwleFxTym1QqjnBVCnGfBZGdhh2OH0ByqE3qTQ8kMrV1QFzsXxMKx2ml1r5KB9/ZEW1YxOT6XrSUpOAGcFIs2q5roj+FRH2ki13nOOVjuvXUcEWook070xaLlvjxWxm/yyef2TWWSCqdCcjp2FiD2tq8am2dtJRftOYeVk5BnBt4fUiu6ZEPZtV6vy75N59K0T3lWLFAsUCxw7FtALlxbAbefZ+s29O1r7H92MeHv+99VzhzNFoB8akfuPJc51Y5/dTr7qv1Jpe/ftKtBPH3z298T8bRwLys9roV7K1eLBYoFigWOEAtUODFj8wyZawpR61OybsLX6tNWAUHOgJys/jHOy2RVE5flBo0XPcuc4gUUZ6xlHAaucuoT6qFsWtPtg8iX+ozJG9p2riltNqU/RmodE4H9eE4BTYIjIY1cz8okMDA4cbfwJOTVHmE58CX3oqjKY6cWBNZ0zM/YmRA7t8XrDgkhuoUp2eUPXVaXhBfCo6rfNJ/HCjGGQCKEEpor141b9VovpoIUMy0VnZWyZAssjXhqQwK167Fbqp1LLrkkjkNRFp2vpyI7GmNY5PgPxZgXarMj5IFs1VhP+0bJh9TMYUS4G4m+64rRZeGNNdd4fPhNTkHosAhxAiafWDBOOs6jk8bZ6RA7y2Lzcgt2Wt9Yr9I3kyzmKRE0I9rNwLsBONZ1Um2G1FDtT1ZKJ/drJwGbTGgcLeaFihKqU4w3RBVMeI6TbdqB2hBOToaOymlcMsqJmXo4EBwD488J1HN/zAEyygy3GXRe0xY2JBkdBdUTY53W2CaVvG5Ksc5zPuwxff0K9r6UYoFigWKBY9MC/G03NL4/8Y5K6bkolS6+uLn72LFpuRfOrFrVbjkf56te9aoVN8C/+wUYpIOwSMvodTnk6TK6KbcUCxQLFAscsRYAEUU+EjCeQJMz+ubhZqyTFU/5bwILAkBvDh+jPnWdgxdlDy0hHhCaDFzGc2MyEUIVfgVX9ujC2l5FqghTpgmnWUHN5AKORWzQVDNNEGunkoURYNAsGsiPYNGhyZiZFFL1IJNynimPk+gZh97RF+OCrEIdNSwxA9jTQobeGPtsd07zYtRI/0GmVUou42TOWq0FlgSRBsZGoSU8WXZJj7dt2WVpxNOyuyk3HtQCWizjil0d1tfSyARROVHMKjcTunHO7KvJI7sWJ0sLLiWWZ5NMwUGYgMrkk5ljh8exWKvz6m9AbPCMFiUL3uoqh8NlgosFD8Fk5+HezGRDIHmssMSQQkFDRTuOp3VeJsbHYjazTAuQUlZRsVMByehEEuk+HGDfLB/PuYncLHtsnSdOxXHIJttwEB43xNOkJJ3syjcp4mmu6F+VCumEIUspFigWOEYtcCDS6RidbpnWUW6BP/uzP4sZPPS9r6QrX7J5wdkMnLw5cfzj5+5LP/ZjP9a27q/92tVx/rZ7xpVrtG2VcrJYoFigWOCot4BgU5RAf3per0+mfeOEmmXiBxUPyp/OwFwokhx1kpVPTRNkdNk8Y1wJ/sqYEmLK5FPGnEqPIsVTf3dPGhD5FCSSus67kdNWJO2mVxFFiASM9RiH06twD9gUQspSBosWnGYG4sp5j0V/NcgvMGigQA1D0XvRFliVHeHHlC/Y2FSUWai+UG44wqYz8v9l/MjoLGRgfn7VTOfDuB0iqLEJT07Jtr2uVn4vwwKFeFqG0Z7zLTiIJjcUBA1lhg+3FhaLG+JpVjJFk0BesCZUvCBZlLxm0WUyJjdpbtjXWSyZ8cXhkESuK2JhtcBjgaolupdzQkZYU+wrgyP+lUWOz6JOeDKdxyEgh7TcMbPVjJ7E4SbLzC+bRc/OwwnAvbRpy8ootzmj+eIwKCayrFzCeTgxunM3UcVOxuaLNmCzw4FEFqhwRh4rdR0KOC6WfLZSkUUnlEI6NUxRnhQLFAscexYopNOx954e6zP6zGc+E1Mc2DCYHhwe0LOh9L++PJQ+/vv+W+M3/+Cz6Td/5cfjXC6P3KudlPrbW+YTf+561P/c3/12+s1fflv7iuVssUCxQLHA0WiBCjtV8CvwHDAohAyRN3c6yCaTM2BL8uE6DUsrwQQJZVxpJGl8SdoXvzYtk39nLNklson0Kk7HgvksdOhKq7S7XWBaDQgsFxEoGhsYDmED4gKIJzCldzTnOqlb/Eg74GDnbnIbhOO5GDvyHMxnxZTmpFmCLgPXCt8yp1BcieTq6ZxUbQsZOI+CKbCqgC/iBfBk43m06WTn9AGG5ogd3WXX6QaZVw2nPCzJAoV4WpK5Vq5ycDkqTf7DScRJNJ6VOzC4wRBXC5fFZGfge2NpxTndY85H93oRssBxPyxe4m4HlLh8leRFLCaYYBY4i5BrvYoBJmeHs/U70Tdtom7CWWSpJOMyEZYTgHscnGsokSRLhNhCtphdhIkmOy+Piueep59ZedXwKa13arHjWCDMWPg4jFxMuqkldWSCS3UbThJlF+GJ2hJUSq5OhRRGyYNqDqfRXnlSLFAsUCxwLFigHemkPSRKKRY4Kixwx33j6aGdzc1UVp33rsa4f+9jn4vnmXxaMzOStl7YPil+K0F16x33pnf+4n85KuZfBlksUCxQLLAoC1RYJuOgiCgBO4oMmtEX7jWlIkEUwB51ji7xDuTexMk9mIgxlvSX9+AlGvbRIJ8i1YlD7dg8qkfVHLViXJbxKSlOEA3Uqsgd+o2NowhbC+zJgZDBO81BjlGyoILn3SLHjOcsYqBtrgf1FXM2iWTyiNZMOnVUGDDPif48LoO/TMBFh1FawWB+ziPCBt9jsozd19nhXaNogtVGK+XJ4i1Q/hRdvK1Wriaf6SYrE+36A87CcTwtn2sTUDgDHAaHFUpeSHYSJlxgdlsTvkHW2GHAbveJdIHxxlFAEpF/CVIJB9WvbS+RRvb29UttNZomIxeIF1+wz6oPuev2muw0CzHGKCKLhdxY3LqVPlMklbPqiEc7szhVCbzcB2YwmWUSjet2LHZwvLYtLKXE7WQnmNl5HIwPKtthEAOMs+0XqdanZHc1EWxR3K2fl9/FAsUCxQLHmAXakU5r+vQNZfnf/hh7p8t0igWKBYoFigVe0Bao8GQTUjafZX4Esghkh4jAQgbwWyZ0jOUsZABLgSWzAMK5glEPUSCxECus0h8T/XpEOWUhQ7N+tzBlt77sn9Ju4rNKnUJhHOBICCYIqIzhGA8RNFnckHc8D6AmLEd2JakGAhMa62Ys6Tm6HZ5XeLIincCj+ZjPEYFFUVI573ATEFIvixncG7mkGL0jkKZCNUVO5L7UxQVIqRI5E+/vUkv5U3SpFluh+q2fVxaUF32lFNLisYqIRdYplnUyFjeL04sJkqa5I4FJnebiy0PMkkYWeix2rXzIK4gn+svkFMwuzoIs/2O6xnaV2RmwGFEN0YfzO+E4ILrsrPSga37eFSFvKnIY7BbAgs0SStppJZ+olgm07IQYTyR/kzMj/pd+UTpR6A8irskc5fNVn3QrR2C/g0Qy7+SnsUxz6NtT2SCkYU1fE22XUixQLFAs8HxaQPtIpK2XnZO++Kn/uOxuN17UVIGM1pt+cH6DhXSab5Hy+mizgL5jJzgihj33+cIzqXTOcedLLzkvXfvyc9NHPnHDwjeVq8UCxQLFAkeTBYRpAnJlAkYYDeUPfo/oF+Mn8JWjRsBezS/sjQczUUMbsxF+5rA5cFnHrL+4N0Zznig2psqRMYTLoXyK6Jqe3rSqvz/tk5ppSufBfsa3RPCYgMrKC+cSBj8GoozxZ5KJugJtcc7jzhiXRx8RWRMba3F/7sciBnBlFkzQZszDRoo+gowLm1G43y+wA5bzeLhGQnWHKIaQoaZIGj2WsnwLFOst33bP6c5KwRcfdhZPB7GsVRxuJlvgXFj8LA5yKnFE3qUgnbxI8mLxI4vcC9gkjBOFW87I/SasWGQsPNodUZb+Ue0+MMiudlrjtA8xRcwuTsEllm2QXZBgjCM7E7eF9BKFUZDT0fq0nEHeaYBrmZyyI/Ay9+zsDHAI3n2v4VKq163KKcbjeZs74jfzdSxv85xtlom3Mc2PZHBRXKmaV3koFigWKOH7bD0AACAASURBVBZ4/i0AUfTBn19+vpmv33h3WohsyjNqJZ0A3Bl0P/nd6/eb9PAv/nKauvnWOF+78qVp8I/+x351Wk9M3XhTGr/+02nm7nvSzOho476+d70z1bZelUZ/7TdS/RvfSJ2bjk9rvuLwqNb76//zf6XRj/xRnFp3yz/N6Wv0v3841T/z5wv23/OOn0gz37klTT3ySKpt3pwG/7w5J8bEfBhX33vfk/p+4V/t11Ye3/wLzD3PgWvDP/GuZfeR22Y+U1/8UoyHcQ/861+Z0239Lz6f6n//9w37Y7Oe697QGPfQG340zezcnnquvjoN/LffnT/khq1rF56fBj/58f2u5xPYZfxT16cp3jO1R6GvzjNPT31vuS7VXvuaODf62/851TVeSrvPwtArr425DP6P34/3uvW9jJuqwnhqV1yRet72I6lTuygutlxybl+6ag05nhxSN3L/9Yn8TpTf+tW3p7UX/HT6yTcPpve8ZTB97nPD6YEH2rf8N588NS6QXHzH0LmJXfUK8dTeVuVssUCxwFFogYo8EcyKMhuKItEmwnJ5R/P8xT9Iju+oLEZojaBpYr2My6rWAlNCxhD2Bpa0akntTwoHKoAvbzbVIBMIsZMiCiGDsWS+x3g0k1eZ6KI941njuSxQiB3KNRdjRu1krgE5tYxHNlfIYPVWdUUPKLUIMdQu7qE1cAQMj63zI2InCx8ytqQN5mwkyysbGBvS/7Qw85Rk5SW5uK29nN+FeFqO1VbonqCI9EEOYkakU2Tc1wJHxQcbaz/iRUlsqZVIEEJO5MbCpbAgaAcnk1/D1mYpJYy3Y2jpy0w29yK53CNCZufouCSEtTQyOR5yyJxILS/ymY6pGA+qKwgpdknI21bSnre27JD0Ug5HzLiWOKMKSmg+02OGmXkzUrPvjD0vdEi3WSmmcuigiSUz2EF/aYocSDJJCNfqLGiRec8GO+8YY+Y5Nj6hnT0nXBeHkj00N5RSLFAsUCxwGCzwpvf+bvrSJ38jvWrrhQkiidcrWZaidII4yKRTjKEikg40HgiM0V//Dw3CKdejjdGHHguiqXbRBUE8QXBAUkFQtJapu74XLyE2llt6rntTmhJ5BfnEHHre/VPRFOQKxEjnwECQHu1KJl7mX4s5aH4Qb50iTp5LH1N//bdp9A//qEHyzO+L1+1IG8Y2/slPxRwgqSBw6t+QHW++uV0TQSRRIHkOVNr1Q1364hjWvNdVxNPMww83msEezCOTUnFP/nwMD0e9qe0msRo3VU8YF0f9i19JgyLMsOdiygUnj2pXu/HYta5d+fHXDqR3XaO/RZ56JK3v09bd+v/+He94x5yq3/ve93T9vtQzuC5ddv669LWb2rVUzhULFAsUCxy9FgiORAVYYxwFnjSmdD4mVwjyRcoAixiM5XjuHduqRtROxmOIDcBw/okegnjx5lJgT4gkQvCchJtro1PT+kKsnlZPTCoXUpWqRRiMPhAy0BYpUMCMtAOmBNuimKJ9sB3X6Nu40pExkENZuQXKM+lkvGuc6fGZWLLKClxN2hcQL/c3STjjSWPHQOHRH4cL43Db1YkYdya6EDJM1sfzpfK4DAtkSy/j1gVu0Wd429Pb0l133pW2H+APkgXufsFcgnwxDaSFIQZ1fHwsjU1OBCnDInZicULfpErSgjbb3Ay5iyVTkU8sWtdvhsH5up2Fk/Bb5UTbuBkWMltd7lCW/m3DI2mfnIUXGCostw1xg2MY1RgmKuKJx1GNFyKMccFqOwdVc0FDnuFgkF+a7OKjZmkjjg2VksMF54+3cpINSWRWPJl195w8ttiSM9RO3orTZFtu27smMI99o/tihweXuQ7lBfNhKxMtFigWOOIsANkE6QT59G9+/kfbjo8EngP6tZRjIdJpeDR/u+nuZrZtS+Of+GS8WCwJNP7Vv24QO2uksEGxNPBLvxhtBNEURMWrGvOpi3iaXzKJ0vOyl82/FGQLbXIM/u5vNa7zPJ+nDkQTih3K+KetkIIUg/Ci9L3vvQdV2kDqNNr8t78W90GsMEfKc+mjfufd6n/TnDlEoy1lRuQNds92RBGVy4zIE0rtZSaUGBe2bS2QeplE63nFD8+5ll+gqMrqMtRhA5pnw75SLdEnJN380rStd5ubf73d69wu88lzYXyjv/+H7arPOfe5z31OCqbPpR9/0xvS6BOPpKmhPQe8pz68J+qs663FPT/5kz855/id3/md9Mwz6xP1SikWKBYoFjgWLQBHYtJJmC7+a9cJsSQzRKzoH+QTBTKFHxAShFMWMoDxMubkGpjJP810LvGVfuBVE0EQRhlvin6K9nk9LFy4a2Qs7dk3EpE03IOQAczpSB2rnhAueAzClrqHyBtwLucQNoyFskrp0HWfRRIZ5zmqx+26bQslTJh5LoESAxubyNL/n3piEs7zN7nGPZoTIYmBSad00I/7zVagrWa7s2lkdCzVyZWAnQ1XY/6lLN4CiyOelmHcm266KX3ov34offWrX03jYyvIDi5jLIs3x/NXE0cxq4URScX16Z/aN5z27dqVhsb1h2XFELP4RrQohybrWtBS7USuJzHJoXjKZIsdQUgAdZ9VSiwZl0zG8IrryCIhithdADJqQj5jWMG0KJ/I70QeJ9owq0w7dj4w0malGW7ONZUfs2QT5+R7Sd5GvG+fGChYZzs/Fn24sGqs3rXGi54k5u4bR5LVTZ4FZJFnlGWRIZGsHIX7bLbLPfTBwbNxJbmrk3G3csBus/wuFigWKBY4PBbYMNiZ8vGRT3w+BvHqrec3zrVeHxyQL5WoYynHgRKJQzrNTwc1/vsfcQiY1EOdW7YsySCdxytMq1Kx1C67pHFv58knB+GTiSxC4loLREhWzbQSVEvqvKo88MEm4RWqnorgiHC1SgG12HZ7fvytoS6aX5bbB+QYoW+taqH5bRMGmNVVXJsfhsc5xpWJofpNc1VP9b/9ejQJoXQgRdH4Jz7VqDPwERFNai8XlGj0ueabf9M417j26ldGvxGaV6mq9qt0gBOMJcjBikgL9VMbArLd7bvG18Tp8Xv+IfXtvDue9/f54DnnZh67M84vVHq1pXcpxQLFAsUCx6wFgEc6IFHiCVhJooCpiXqaEHbkNViIqBcEAlk0MB5Ej0PljDnBlCZs1EDcA840jnIrYEbjTOOrVgIH4mmfwu92jNXT08P7QshgLGnLcx/9Q3iBa8GhCBcgnBAzcJ4jCxyoH+RP5GoissYbV4EtHREEfeHJe8dzU0VTSmiex52xofEkdV2MkGmXNDFSOwXZZnKrUScIKYs1LPAwvh0ZG60iaBrNlSdLtMBBQ+0ef+zxdNfdd6WhoSFj/+pz3drPqaeemi686MK0bl21pa3qoDC5/fbbU12yu8suvSxdeOGFvqX53h9wqNv0Deydd96ZdomIySU+IPrArVu/Lp155pnpZP1h26e8RK3l7rvuTrd+99bU19uXLrv8snT22We37ePhhx6OsQ3tG0qXX355uuiii9rWO9QnuyKzvpjousilZ3amvc9sS8PjI2mqoz8WFo6BGFoWs/M7oXYy4ZRJJnyNdEUVY8vCYLHmYmM3HEgQT7C63jGOxZjD8+wUCKfzznUs2KbcUM4ofpSwrkPbc2q919QJjsbxujgAU0r07HxNOAnO6pecDWF9uT/6wmEwR55jAw4UWBz0bclk5TJ5rYTjQUdVbLzH53vDcegn2g2lli2Qz03J+U6JUbeTahinPCkWKBYoFjjsFrhZ27x/6KOfTd/57vcP6Vj4km4+6YR6JvIwiVzo+1c/m8b/9M8WNYYe8vooBxMhbuRSIj/Q+Mc/GfeShygTIKiZIlRL9SAu8vmpioiCmFpK7p92g4PUqX36M0GOoNzKhFYmi9rdc6Bz4x/942bYmki1XFayjwP1nc/PIWdaVEi1K6+M92rq23NJvPy6ds0r2zYdObiqfE6EDS7V3jXdw3tN+GK7/FJtO2052fcvf7KRrwvl2/yQy3b31zsXnw9qXd9Q/L3I35prpu6Y01zX9BN6fdA/c9sNoZwrFigWKBY4iixgDAYamhjal/Y8u0N4cjR1BCNFRAz4DSGDiR9ECOCyLCRoTtS0jDEZ143JmqlcMsay0CGTS5A0JAQniqZPmLUrsJpxIpgM4oi+3CcbT2XyCtznNtmUnNxQDpEzjkO1xGsiaJiH6xo7MuagjAKv8jwTZSahMk7OiWuMK7lmDMqYucuKsdyGBQtuWb9VxyPxOCckZJgMQq+U5VrgoP8jQzp99KMfTQ8++OAB+3jFK16RPvCBD5h4qt6hSy65JHH80z/9U7rxxhvTueeeGwnHongdNNvL72pFSt13733pYx/7WLr33nsbdUjADfG0fv36tGXLlvTyH355eu3rXptOP/30Rp3HHn8sXX/99emJJ55I73n3e9L73//+tHHTxjnjHhkZSV/68pfSH//xH6fj9Yfl8ccdf9iIp8jtpDlPKczt6fu+n5569NE0PlVPk1qwkEmOf52U2gmVkxcXjDHkE+ogFg95jiCDtKyDcDFDq2uxoFj0ZrpRS2F4tzMTC5mtIWkFlrlzcjbOsVDNSCuBGv2IPR7SQkMJxf2OCcaBUJd+NQI9J5Gb39jZaHd1N8ngJEsURY6DY2zkXvJbzfLPYXde1HYmLHK7iEx62XH4fhxZtBOtYA9maGdE/Sm9xrHVlK/KJJPJKhKL1yfG1TaON7Pk3FtKsUCxQLHA4bfAoU54jOCzXTJy8g9R+hQmtxRCIlQyCtcaJ7+SiCXyA1HmJ78ONVOVQLz+D99KfZWaaKEwu+W8G33vf18a/uX/o6miUj8LqYxa+4Cw2nPFv5jTLfOYr5Z6Ln0sZU4kbM8FQi8Xwu3m58xaTJjdzFNPNdroPNFkGvdhr9ZyoCTwEEckRqfvvhbycLFzWsrn6gsfPnCOqvn91Wb0x7/+Ox+s7UyPfP19cbk5U9fmr5KpIX0hevL8u8vrYoFigWKBY8kCVR4iKZ1Gn9mRdmzflvZKyNDdAR7qDOJJmiPhuYlQPYEFOQdZY1xFyBx4DGwGiURkjFFd80t7IzhwGc+cWBwc6pC+ppDBhBUY0ptUORdwPQifjOCczxgMTOExiwtohzFxb592z+tRbirwaR5PFhcY8/pe2s3KJNpzBI0VS+7DmNm9GUN6vkQe+axHAEZ0XfdDNI6uCH9GuyLWSC4eky5lWRbAwguWYYWAPfTQQ+nxxx8PhdGLXvSixvHiF784CKUtm7ekwVWDboc3Q8eWLVvSxRddnPbt25duvuXm9PTTTzffKOo03uiW7qvPwp49e6JPCKS1a9emyy67LL30pS9N5513nnKejqbPf/7z6UO/96H02c98VjH8zzQaoL/zzz8/Pfnkk+mGL9yQbrll7jeDVLz3nnsj/O/hhx+Ouhdd/PyqnQivm1MUTjckhdcDt92Rnn3iyVhcyBxROplcsTrJiw9ZoBdUM14WIgoJIySRSSlIHA7LGnE042mvDggsYmmROeYDUmnnxFh6ekzklySEPN+uXFPb5LBwLhv1jeuJ69emUzatTacfvzGdoufre7tTv3wZ8sfcL+OqoUpSCFynjl7R2zDULH5yU2XiLAgzOTUncuPjJ4pNpBXJzVfVetK6nr60RvL41bW+NNDVG+dzbK7t5g+YHU5rW1wliVwrsWTbTemb0HrO8QS1XUqxQLFAscALxAL8jTQ0Pu//Hc0ddQ9KGELLWkOvFmsWVEy5NMLARE4Q7tY43xJuN/X334zTQZZUyamfa5hd7mfmgYcaffJkZttOHdvmnFvsC+zRTtmzkn0caCytSd5RJ7WSZ3PC7f7269HE1B0ON1sozO5Afc0/n1VR889HyKTGQkH19HyWzjUnpqkBk2XsSMdnmcK5njWVwv4gA6ovkCfqILeWy8UCxQLFAke0BQJTCu8FMaJjemQ0bbv/wfT0Y48J501EmpYRCRp43CMsBPYzIeQd0gm3Q5gAXgTPcTgqJaicIHNQPVGgY/ImU4gQSL9ibMdVJwAnfA5cSb4nh9LlEDpSxUzp/HjaXVceKB28plVQGdhwajbndYIQMyEAJl6lMBsEDYyLe5wf2NiXnhEeWHThR8ZEq04q3hUY0uMzNvZoIdmqcL7ozf1lIiyH2YFVyRHF+cC8UpHVtWFVKcu3wEEVT7npNWvWpOuuuy6OXAhx6lIen02bNqUT522V29vXm84+5+xQJN1///3p/u/fn047/bT2I624APIdQUnEB12LYHBwML3pTW+K3UpqXbU0KmLkwQceTP/z//2f6Stf+Ur6s8/8WfTxIz/iXWtOPe3U9IbXvyEIp7vvvjt94YtfSOecc07acuaW6PfZZ59NX/3aV9Ott96azr/g/PT6178+nXbaAcbUfqTP+awVN81m6mMifR54OD35gwfSrD7Ma7q7gzSandV2lPrpm1ZS2a5uKYg65TA60z7JejDXqBY8ip+pcBZasJWs0VtTGmRMiYShLQipYd3LAvLicpgbLHLPZEcaqBY1LDMLEQfF42kb1qfLLzwvbTh+Q8gfd4gQ/IH+wL9PY56c8OJHWtnXNZ029PaLkOoJ/dFgdy2Ouga4V0KrWNIaB4qlWsTnmnjqkUoLskpCynB2FByInV5n6u3slsPpFWOfVVC4DpFZYtFzXZhqSCjOc+AcspPkMRySHOCMnGEpxQLFAsUCR6oFful9b4nt3tuVf7jp7nTjbffstxV85LhcoEyF4nRuBRKPU6aqL2baKX7yuUElnm4XGjX63z8c4VMQTtTpPHNzIlcUqhiSWKOsyaTJ/HC7Rk6iFQizYx6RHL1KLA5pFPmIRKgRNtguX9J8c3EPeZgiAfd//W9xP/Nrvfe59jG/z3avW3edC+XYf/w/96s2P9wuk3kHCrOLBvR3VC4zQ96FjveUJOCU/F42KrV5Mkf1tERCr5UAbJfAvE13zVPrjhfJtKHxWlEiUSCeOi88K6Wbv9H29r6ZoQRplXR/KcUCxQLFAsekBSrMHLFiQCmEDNrY65HbJWR48inhHwicpr4k0JYwmKNdhKXkT3NUCconImgCI0aUCiqpHFnSFDJ0C0taxYRFQaP+gn9SWC7wpu4ZmuwMEQVEDUQTmHJdT1c6brAvTSiVDKRVh7iDifp0Gh6ZSLuViBzsSqoX72bnMQqaRogeQgbGSboXhAy0S99gPqJtrNgikqcrxtCleSNcGNBO62DZWke3nvcJS3bHPRRjYT8zZgyqKvqjbXgIR954TNiRHqfq7JKuvNWAzyJkCFsutRyUeML4hLn19PSkzWdsTlfk7Xr9vi/Y34vOfFHkYyLU7vv3fz+95tWv8eeUuyqyqdFAvIfVSdqmil4TCoeyKhdUSuR+uu2229J9990XRxBP1XiuuPKKIJRQNKFsuuQll6T3/ux7U7cInW/f+O10ww03BAny5je8OV15xZWNdg/Xk3GRadu0M8u+Hc+mXkkiScaNcSCeWED9Wjgs/okZknVnlZHD56YqZhonwEJkYbIoWVCxJKU8mpjuiNC5LF1kniwmFitKI4fcdcTC5odFigPASazZuCGddv7Z6dTTTkpTEF0iyHbfd396TKGBMOfO0WQSa/2qgXSqcnzRz5re3rRWROGuoZG0DZKqIpVQN/FGsXxxEJBKEG2w2YyJvimw6LDNDt/D4SCxtLPIWikFLre8ZRBq/uzkj5UdSTUneddpxRzzqjiLFrOVp8UCxQKHxQK7hpv+i93sfutX2xNOeXCvuOrCxHHlJecndsJbbpmz212bXcwW2+7U330zqqKEycQUKqF6FbLGbm6ZeGoNt5uSsjfnJGq3m91i+2+tB8EE0QSpMfBffieN/vp/CPKI8LAZhYktNtQLRRG5pyKP0rx7V6qPA81vP9JJtmxX5oTbKT9XVp0daDe7eI9EMmEbVGaQhctRt2XVU+R6WmQesDz+1vq1Sy5uN63GuXVTT8Tz2tZ/2VJP+UXnlTsfMOO66cqr4wqJxmeemJtsvHNwc+o8eXNcv+2eFdzgJlospVigWKBY4DBboIX4AN9Mjk2kp37wUHrs/gdSh4QM63q6A0uCvQgXqwtH9VebPo1NE2miK1IPjE7XK5yVhQwQUiQeb35hj4DBkTSkZclZkxrQO6JTiMwZqXUHsYUCCwyK6oq2Ttl4fLr8gvPS+k3r0oyw5x5FU933gwclZHgq2gX/gXX7umYkZKil9eIcwJhrlLZlUGl62F29q4PE4YzDeaAYh0tH6u/siQ2t4CzWzUgEEWDQai0ItZ5KyNAr7JnJJwsVaCPP06F5899V8CRjpD45s9iFvpTlW+CgxNOcpjOqr4ihg3VL0nGOnTt3pgcfejDt3bs3QucqjqD5iaWh3Hb1HNIJgsgxm82eOE+bp5xySnpUOZHI2TQjooL8T5BPGzduTG94g1VPqKJQPV166aXpxJNOTF/+ypdDCXXttdemN77pjWnTcZsONoVDdn1GcsFQ6cCajk+mmoiRbpE1EEGcn6nyIcEed0X4GsSS2OwO1Eg2HWRLXhBZHmk1EMaU7VggUDJaU2ZuPR0WM4wwPbFwaTs7EhKCByPe3ZO6Vw+kyZ7e9LSSsI+Kld6px11ienfoa3ba6BbDDUHUrcW+dsO6tOGkk7Q6Z1IPJJUUUZOaG4nkzAmaGKM+icIhlfo037Xd/ek4qeNQX5FMPXZeCJaaj0RXMOvjGj/KLubqGOK5X+GHywqiKjshZu8PKf3UZdsppJEi5ZKcYinFAsUCxQJHggW+9MnfSK/a6o03fvMPPpu+dct9UjY1cxvmMW697Lz0G7/0tqg7dv+nU/8571zy8OeQTrqbndTml6x+ySogrpOcmgTilIHf+LcmlEatnJn53vdCcQQxQaLyXFqVLUFaSN1ELiiUSTmkayXC7OgbkogCCUZfrbmYxv/4/2mrHGoMdN6Tnh+9znmUIGn+8guJHedWuo/5fRN6OP6JT8bp+Tmy5teFNCKvFiRSzs+1mDA7dpYb/+SnnAz+ve8PGzWUbMoHspiSVU+ZdDzYPXxuxr/6143E4nym2qnnWtvZvPXX4mXn6Saobr17VF987U8avfGaN6Sv3dS8s7t2RaoNzB3R1HbluKySPr3yqvMb6+zKS85LJPQvpVigWKBY4FiywIS+6H9WqWaGduxMPUJQ/UpfAumUhQzTwpVgqoFalwghR5wQ3kb4mvMGE0oHCUPeJ/LmOv9TttG4kpOTHwqsBbGUYTv40ilTuiRiGAsMSQFb0jZChvXC5qedf2465dSTBRNn0v2KntlzL0IG7egeUlaLLDolwNiwql9ChvUR7TKoSJoB4cM9+0bSMyLWnNtXGFD/ZoWNreAiVUu38GSPooO6o19UUDmkMAsZutQ2IgZU4OQcRu6AKsxtGk/nOTFHyLCMJR2JQwSN6iuUUMSDAOnSKJRj6bP2XOayPKu1kkStvZstaJxhlzsUS6il2KmOPE9r1mqbXNVrqJvajJ4Qvlxan+dzhOFNi0Sg3V4RI/HpbxnTBRdckF732telu+66K9RW5HvatHFT+pu/+ZsICUQRRZ3DVYjJZfze/U0kD2omkmrrQ2zJIJSQ41JntNAhkKaU7h82mNA2En1bFcQMWDpeYDCyHCbrfD4nYaMmziF0RSxKHbGwsGUlKewR6dWrhbtx9WA68YTj0oZTTk7da1enMcXi7pW8cFRjhq4iPK5XjiVIID3vV86nvtWrU59IxaFnd6Wnd+xIY8OjaXhsMhxKUGlBJHq8jDmcGotfp5gbQi+1XNUl2ZvvmQlG32w0xBNzwxnwQwkHqB/LM5kd7eS5W6Y5rWR7kyNj8hOSaMoplVIsUCxQLHC4LQCZlEmnV7/zt9sSTnmMkFEonTJRhUrq9z72uYNOgW80a1KU9vH35zILyalzTqasZKq9+ppUF+GDsmjouh+b0zKk03wFTg63a5BOKxRmR3gfY4td+aRuokBuQOCgXGKMfW97a2M3vYOZgHshclAS1b/4lSCenksf7cLYUA1xQMZB/pFMvGFfxjwv0fng7/7WnFxPOdyuYcsD7GbXOtcg0B5+1GouiMR5icUPZheut6qeFqo/P1F7vCeyKWq0g5XTt/7qnCr6jjG99fX733UwhSB/I84v+VwhneZbprwuFigWOJotgPgCHBjaHeWz7VVKlj7lyTUBA952VIi/vLdaZ1p4s0thcxYvoOgBi2VMZqEDKieKcZctJOTWEDKAzlABgb/4kj8e1SYhclzrlQIqxAzK21tTVMyEyKEdEosMi0TasXd32qlcws9KzIDYgqgb7u/VzeuU5mXTSdoRQmKELgQD2vxqukM7vlfjAeOBIXU6sCM7xPdKcUWO4E3a1R7FFYnPyV+VlVpWOSldjYQI3iyLEYKXmRfPXUKswYjArPGMa7zOoXZSh41JcRvGbNxWnizBAgclnsLYegOGxUr+4z/+Y3wqe8RAbli/IZ1wwglpy5lb0oYNVQx+872LIXSJVSX/EyoniKft27enc849pzm8efVbx52JqVbFE2TNY48+lr7+919vJAcnV1OonVrKgP4IfeMb35huu/229Kd/+qfpC1/4QnyuSFb+0z/906GI6uvvm3PP8/0CNRfG5A3o0ge4FowJMkGRIzpbk2ww5Ic6UDONae6jka8DBtmSR5jsXEzKsBbMz6KOal6LlVUtIssF872ZrOKRsmrVqnSaGOmTpRDbeMpp6bjTTld+rY60QWq1cTHdHZEEvDscBNtmjsvh7ZKje/zZ3WlGjmz3zh3pEcUW75tAFlkLWecqySRJ+h3qqErRRX84BJLPdXXUU03su2NrLWn0eBkzP6idPOdwCsFQowKzu8C5ci+OwhJM2UVklrpTH8pzVR9PY0NDaUYEVKecUouPySYqj8UCxQLFAs+bBQbECF3zQ+dGf//p//psuuPu+xPn5pf5hNFHPvH5IKsA3n9y/Q3zqz/n1w2lUksYXufJJwexAjSBbAAAIABJREFUQ+kRMUOJ/EOEbyk0LYd7UQdSpO8979qP6EHd1PmJTzYIlp5rrln8WFtyFM3JV6S/KSCXKFntlBtlDOycB6Ez/pefTwNS2+xX8hxb5kodknpPoSpS+F79r7763PrYr9P9T3QONHMw7X91/zM914r0q+bdjuTb/w6fIRSyR6q08Ru+GCq2THaxm10kmFe7jVLZpFW5xjXIvfyec43PBqWmHYLbpRsLlZPSM/S87UcWFfL4oY9+Ntob21/kdEA1IPWVUlIEa9wahV0iyX+Wd3Jkbc1fS83a5VmxQLFAscDRawHy2AKna8JA3QI+vcI9s8JqhLhZcMAX/8KXlZIJkimLGCaFlfjyH3xmrOXoFKJVjAstZjBCpB45lvLfKsKuej4Th1oPTE/iKOOxXqVT2ShRwonK+bhJWLJ3/bo0OllPe4XFxtQf98VmVBqro24kapA4ACFDj/JK79v1bNop9daIhAOjigyCNKIwJ0gycGjMS205JYvTsiBI4FwQSIEZoZCc8ziGGHYwugycXaFj71znmVKLumBWRB+0xRhHJ5SIXSlyCLfrKEKGsOZSy0GJpwzShwTc/+qv/ip9/etfD6URZBPEE7vNXffm69IFF14Q53MxsaLcjlI9cezevTvt2r1rQaXT/MGzg903v/nNSCxOIbfTPffek771rW+FcgoSaevWrfNvi9fklnr9616fbtYfn/fcc0+ce8lLXpLe/KY3py1btrS953k5WRE8kGXBpOoz3lWF3fEiErIp2XYoebSwLAMkV5MJJ0goJ9N2ErgcQsdSsRTQ5JOJKEimvIhwGE6SxjWSheN8fJ9nrgi3NKDdCVev35imNb59YqZHtdBX9w2m2a5xJXefSXtGtVWnVjyxvJBOEEfbhvel2Ucfifdnn0ioZ8RmQwUPirlmNpFUXAdEEWOAJ+Q5BUcHSYYzy/JNzofTiOTokExSfclRQFThIKaxl5RgPSK2IKEg0ZBnuk0nGA+HRO/Ms66wv9GxNCVnV8P+OldKsUCxQLHA4bIAIPjf/+/O6/R/f+qGRYPiQ63WQBnD0Vo6RR6s+ebf7GeqxSTuzjehlmnXxn6NtjnRmgh7zrjUZk6QPf+2A425tV67UEOu97z7p+LIpefNbSQ3uriYPrDRwewEITQvSmz+dOa8JnfWOh3LKdw7uIh7D2Qb3sfBP99/Z7v5NlvO2LgHwojSmgNtflvtlH6FWJpvpfK6WKBY4AVlAbCVRAldwmXAvkjXonPsyEYEjc4qesaJwccF/sBx0gcEqZJRIhhsMjCZU5sEVgSlBTlD0SOEUcax6ogv+H2F+6ok4LoOlh0YXBVpcU48Wf9X60uK407fHEKGNSKUIvewRAz92jwLVRR4clh4c6e+dXhUAgaIs93aEOwhCRl2K1UKoXyD7HaueyCbwHsZ/zJe7+I+FTvqdSt/VUZ5jJt55DzIQpAxj8CTMU+ij2Q34UKibnL0DK/Ap0FiBX7VnDS/qfpkmlD+4hkRaF39/Z58+b0kCxyUeCJB+I//2I+nHfog9CppNJ++p7c9HYqj73znO3E8pm0bP/CLH0iXXHrJ3M5VF2VRv94cSCSOpRRUVuRpgmii7NGuauMiNsjZ9DM/8zPpLW95Szpe37TNKdVCQTF15ovODAKKBOQswLPOOiu96KwXLWUIK143L99OxaxqUJHjqVYlf+Njzodb1El8+BE0wauwAJyozXmMWAhW91QOoXIEXmBOzG1HAVHj5RckVxQzwSxSFEnUg/GlPVjsddqi+KRTTk17du1MX7/xO+lWJRNfPdAvhncsPSnF2CPPbNPC1vabWtioryCIeAz5pN6bHA4IMQWxFbsXqE9ey13JmcAaK5+VzkEoDYscH9GuB2adK2JKY8FRUBgfCi+clHdYYLyw+DNyWNo9T47IBJfahLSLaXJzk1zqVGOT2jWB/FOKLdS1oo+0dcvvYoFigWKBYoFigWKBYoFigWKBYoGjygIV3nWOY2E60JbOgSGBQGA6NnIK4klf5E8odA1cRqoWcjnlL/OZMxjQuItHf+mfCSdwHl/+QzqBrzLhk3GWlVLeNT1H0bB/HMTTKolUpjWGIamWhqUWWqPcwUlKKJRDu3QOwolxImIgsudZqYnueezxtGPXnjQm3LZ9WGlS1C+bUDk3cU1hedBozFLj0b8c5sc8ckSQFVR5l3SHEjoxuTfgIv+TI4MqXChFROBuNYi9LNqYK2SI9DTaiW9iZDgIqIIkl7daDko8Ecp22umnBZbvVRJoHgmbI1k4u8b95V/+ZSihIHi2bNmS1q5T8nDeOt5A/evr64vjWTGX4+300wuMm7Cvl73sZem8886LxOQkBodEYoe6kxX/2Qjxo42KqIi+9UM8/wM/eCA9+OCDqUvhXoyH5w8+8OBhze+UCSAvX9FCGmenyJD4qGuMOWFbVgTxmNnYJhOLE6kHKcO0M5lFOJrlkjYGCzOuatH67TBTbdIKUgcCx5JJ2gp1ErvMDaxKu5QQ/s5770tPS8XETnuQOi4QV7MRZkcvTkjn5N/kc2JhenvLKfVbFzmECo4Fzv1TYq1r4RhGOycjuThjz07QzLttkfuCnYYkQxZqFh56Tu3Iuw7KeW3oqYikGqQTIYoeJ+1yH46UMUkPFbYoaqfqbSwPxQLFAsUCxQLFAsUCxQLFAsUCxQJHnQWaQgYSiPPKYgawHCoixbiA6ozJ4pzxFRgwYzXq+mD6zRA048usdnKuJwgm40qbCnwVOEvtQdSANTMUh/BCyHCClE5Dinb6+rdvSrfcd48iaHq12dN42vbUNgkZtkvIUBcm7KryLhkPbh8ZVfRMPUIAwYuoomibyB9yTJGkhkgadZq6CCsMjNklIcOEsCnkmkPjsEeOBIrZhTJqNgQRtEsEEfcydrAqaWQQM/TSrhRWJtg8o2zrDrURycUjIVbBlMtZNAclnlArcbQWyKVzzjknnXLyKelJZdC/4YYb0u23354ef+LxBvGU6+ccUUsZXCQy0xtKbqjrrrsu/dRP/VQi1O+O2+9IH/+Tj0euqev/1/Xp9NNPT5ddfpmbNpMTZBflB/f/IHaxe+CBB9IVyjEA8fTd7343fenLX0oXX3xx2rxls8mqzKcsZYDPpW4wquqajPg4Cj64KpBKTsgGQRI8bpzLfA9OwAeLx0qjxmS5Qzdg67zIzF677SY7TU9N8olXrTm0WIzbxTI/rDxaz0rhNh27F2Qih+EyHigyWGTvBMCYyP0WDg+XFLvlMXbGCEmFU5DySQol6oprj3kSFxzssRwZjsAJ4OzcMjmHUzND7RA724XWZ4J4olccErsmUM+OwePNTpM5hqPESZVSLFAsUCxQLFAsUCxQLFAsUCxQLFAscBRboLFJF/gGiCMyhS/ZwYPGV2BMq5mYJujIGM51jJbAhFY7WbhgjJixYjSrX0BBsNRcPOlrtG3sWQkoqnsQMqxevUYRNLvTP3/vvrRt9w4JDhTOrjA6Y1SPakQkTh7DtOYCmTUsQooe6ZNwOEixfokgQJqotihdHZM6pwgcEVfDnSQGJB8TScXBpxkn6w7y1tCCcCJ8EfdbmeVULqijLGQg6F34O9RVxrvcR3cZi9JWBzmEIa0QjYigKmVpFjgo8bRQc2efc3aokVA8kd9nl3Y0m1/GlbF+QnI5wvRISr6Ykskq5IMkCkfZxHGqtjgZlQzv0UcfjfA78k0xhsGcfNSrKI0Mj6Svfe1rkR9qi5KfE5Y3tHco/eAHP4id7cj19N6feW/qVwjZ4SssIFYzy8iJskPxpB+TOIzMr/MY/eHnqlddOBA9DVWUftqVVrVT6/XWBHHZGbFgt+9+Nj348ENpbHQk1euKYa3ILK2vcGAQRXZIJrlM8LhlEnwTdjcrJ8EOecFIi51mwTI37uWAXaZPt2UFVSbMstSTazxnrvnRxJZnSugeDmdqdlI1UG7RVz6yO23aBPa64aTbGaqcKxYoFigWOAwW+KX3vSV6/Xe/4JxPh2EIpctigWKBYoFigWKBYoGj0AKR97Zl3MZK4CHAoXGkRQyulfGV8+saZxlZgu+MRzO5k5ttFR7kcyahWnt2ehSuRwoWEU6PPfJoRNDMSolEniZq0zZEk+9n13byQxnrVQxadJGvmyRCXWVCaaLaYIoxd4tw6olwQofVURchA3VNlGEH481MRhlnet7Ml/t5heppQqTVgBIeU5eUMHFnNbYg4OJcWLaUZVpg+cSTrE7Sb8ihSGCmLUVqbC0yr9SV0Jm8TBBPhNwtpdB2TizOffRx9SuvTt/+9rfTn/zJn6Qbv31juva11waR1Fruuvuu9JWvfiXt1If9537u52KHu7179qbv3Pyd9Bd/8ReRN+rKK65ML73ipUsZzorWhSnNZbZBmrAQzSD7MWiX+NBnttWqIT7ymZV2K1znWiagWsmpuQO3e6Eeaqf5jmOfEoVLAZmm5CQmFU5HcUywE5OzhD0GL8ZMeZm9bo6B8UzKGdqJWN0EU+w+TUDlxU8fJpg8aofvVU5T10LRGM4w3KlILH0WYscGyz4tGbV0lBp2M9mpZOWYWOwgv4rDwN6lFAsUCxwZFlgO4fQPN919ZAy+jKJYoFigWKBYoFigWODwWaDCNoHHAlv6y32UPESdmJSBgzIGc8SKcx1ljJlxXaAstQchY0RmisXnPMVmihbjshw5wxf89M11hAw7RTyR4mZC+Z2nlS+F6+ToBVPSKmFu4EBHxzj6hR5Mkpn8iR7F9RDZ4pGARS18YHycI8VKjnJpYmWLJOL+aibGkk0UyL3RVte0lFiMzfcwV857HNyfbWAyrEsXyNPcoTqlLN0C+zNFS2jj8ccfD/XRtBjCE7XbyYknnLjf3YTIcZx22mlpjbZHXGxpkFmte+Tq5pNPOTnyPqFouuOOO9Ltt92eXnKxiCd/LtL27dvTl7/05XTrrbemiy6+KL3h9W9IJyvGlONNb3xTnL/lllsiP9WWLVvSxk0bFzukla1HmFkQJyw6CB4rfNwJiyorfZxx3wROplRwCK1OIz/3gsKRYJC8eDNDm8mocEphLzsI6BgcBYTOlMLrdu8b4u5oIxyZfueFzXmrizibl73b4jdt5JLHwaiYD8qucDWVY/R1ajedhtVNZsPzeLmf8zjLoI604CGnLAt13ZBHxkgpQWOFI6JAOEFoM+eieqpMVB6KBYoFDqsFTrn8XQm103e++/10qHerO6wTLZ0XCxQLFAsUCxQLFAscEgs0cQ04CzzXJG94buLJOJMIEYpxFVjJGBN8BmRyWBohZHpRETHUB0+ZjDH2y20YlzWxl3GnhRX7tEHYU09LpSQRw4SwJdfqClNjRGB8cCHPPRqH6RkXgnF1NvITo4iib++2N65pkNIlk2NgZzQSno/7BWMGCtRJcKLHymujSidJj9PCthBi3dVYLLCwmMFqp2C9onVGioBBjwK6HU1Wyg2V34u2wILE08MPPRw5nMilBOGD4iiXp596Ov3F//cX6cYbb0wnnHBCqI5OOPGEOR3PKFv99h3bI7H45Zdfvv8OdAcaJm8sjKMYyE6FVM0vEE0XXXRRhPjd+t1b0+te/7p00kknRbVbb7k1fe2vvxZKrDe/8c1BUuXyyle+MtRPn/rUp9JffemvIj8Urw9Lqdapl5cXCx9tL0S/9rhiObU4AzsPPvOWHSI99IKkfiZz8mMmY5qkk2tRk/A3wuFYZLyGHYdUgo2OdHMQNuqHJHVmgLsiN5PVVUrxJiLIO80xFicWp/UgmdSOHQM9kwyOLhgNjsSOMPfrVw4xjBl4jYfTMbUFKcaMuNB0HnZe3qUvk1C5LWxmh+YHVGUdygtVYnJ5I0opFigWOBIskLePf77HAum1kkV5QNNovfn/1obB/f/f3jXc/jrkG6ovVFzv/MX/st+wPv1Hv55ecdWF6UMf/WxqtdeVl5yXPveJf3/A+/Zr6BCdePK710fLC9n0QHOYP6Rc70ff95/akpG5r/nXD2bD+f0czteL+awczvGVvosFigWKBY4mC5huYkd0YyTwD+f8hT+4jtccYDGOZhJx6iJ+iNzK8Tw/mtzhtYUKxpe0y49xmvFYzkds3GcUhv3qipzZO8odnRH+Bk7jx6O04MF2tvgAvBkShYrk0tPox+NyKB19xPUghByVM/+9oh2H83HFY8UWgaaD7KpAJpdnhGmFDZ1jKuNQalAnz5NRo+aS7cDuivZqGIU2SlmSBRYknu6979706U9/OnaRO/+880PVBKGzZ++edO+996a//du/Tc8880x6xzveEWoidqFrFL1nw2I7d2zfEaF2kFMcSymhVGkjZTvzRWemyy+7PH3jG99I373tu+mf7/jnIJ4ee+yxCLG755570ite8Yr02te+Nq3fsL7R5Rmbz2iontgh78tf/nK64PwLEucPR6loGM1RGfv1sYbE8bIz6cMCMcnDxx8qKDbL1KHd4OQoqM1iygssK3zsEMxsObysZZHprsihpUfUSTmBGrVjaQUZJUcVi9qv2X2uVwTg+p6+tKa7Jwgv4nf3KfnbsBwLO9xRzCab8PH7ZgIqHJ7knpSc38lEFq/dj5lpJyXnjJ1UpsuwTtNVxLrXL9oy6YzTMKihXdrCRqLDos/4HOlziyyySCPDJKUUCxQLFAscERaATNp62flBLkGsQDDlksMQIaXmk3SQTrnkPFm5ndaJzSdpDsekmRtl/hzmj+XG2/S3S1V3/jVe5xDL+Qq5bMM//Pjn291WzhULFAsUCxQLHKMWCHzEF/6B24yVstIHYqmzkTycqyA9pz/xl/9Gf6At40nwVG7D2NFo0vcaX2VDGoOZcHLUTANDBn43ro0d9iLkjzxKObE5u+x5vGBYcCUYuK5HNFnuM2M8K7hChVUV410wnSOH6DdGGMRUNWI1n7GlW3SO4UwqhSWqqpzLNkBhBc9kvE2ftontokZ1T8GSjbdiyU8WJJ6O23Rc5GYiIfcXvvCFtH79+gDwhM6NjY2lzZs3p/f/3PvTO3/qnemcc89pds77pDcGtdSTTz2prPar0+YzNkeC8EWV6rMFYdC661q+d9XAqnTJpZekF7/4xen+++5Pd955Z3r5y18eRBj5m9atW5euvfbadMGFF+zXHTvcQZIRIki4Hbme3r353fvVe75OsI5mFAvr2FP36nVAjCwLkYWDHTjrx7xAWATE0XLkZeoWmouT89W6iktxL6xzywJ2DSuUTEqxGE0ImZxSknclXdvQ0y/ySUniRUSOimx6XCF5EFCTYotj/JI/opUygebezDLTZzOfVCbc7CSr8WiU3eEBlC9MD3D3JrJMKln+mcfUJefVpa0vu0KNxVw8HzucrMiCqEOeWZOjq2n8xOSWUixQLFAsUCxwZFkApVNW+8zPedVOCZWJJmYBUbMQWfPB979VSqp7D9mEIbYOVhZThzYgkBYip9opwnLfC1072PjK9WKBYoFigWKBo9cCxm6Mv8KJgoERRhc4iITbTszNdUezGFNyPb6wF4aDAPLRJFqakSuQR8aW+Zyt5XMWM5hUAsoRHcMO5q7bFDmwMRT5lNZ294aQAYw4Nj0lAcNkCBn2SS/gcDywbzOaJ78zWWDRGIPwLKlgUHVl4UGDhNJNQGdmGhuhC1dikyZetqiB+t5pvUKnYMqwk4mrXN92Y44QXq3IOo+uPC7GAgsST5BJP/+vfj5t/aGt6SHtdLZnz55oc3DVYJBIZ734rPRDP/RDjTC3RofV+/HwIw8HwbNly5bYfQ4Sa07J/Mi8949+3//+9ydC9S668KL971H9Sy+9NH3gAx9I9913X7r44ovjc3HqKaeG+uqM089Ir3rVq+YqsKpWyOn0th97W5BT27Zti53yDkvBKUDG6LFDW0FOV8QSi7dTCdhItuYQOj74EC7NkLLM4NqROADNc8CgNmY2LQsXVrtBNKktyCdKroMiiRJEDyRXtAEB5C0laZM2+rq60yo5i7XaRXBKdfMOAxBf09oFgHE7fxNjaowg2mbB+gfW22NA1dSh/ljc9MhB8rlOe4i4T5QcdzMCtei54LQGaz1yXH0aE7ZpOknG5ER19On7UG/pFoXaVYmeouVSigWKBYoFigWOFAtAnBA+97LLz24M6UD5r+aTMweq93zMbb76qF2fi6nT7r5yrligWKBYoFigWGBBCzTBnOCQcwRTP4sKwE6IGBwd46gQVD3zcyFxDjyHkACcSfFjMwStCdebz5pj84ZPvKbPLC6gjayEAs/1dHanDb0D6bg+CQKE00aU/+nJkWERTjMSFXD3VODRGRFADmZp7n6eU7RkbOvXFl/ksdICoomsqJqiHSJvApcagzJCfpjFKqkdBnT0krspErDbNibhHLJIXfrqQfCgoxBPWHl5ZUHiiWTgV1x5RRyEyw3vGw7Gc9XgqjQwMLBgj9R75OFH0sMPP5yuvvrqCNVbbDnvvPPSOedIQaXPCAqrOaX6rBNa9853vlMfSn0YxCqQ6Os1r3lNuvqaq+M1x4EKYznn7HPStEiKheod6P6VOh9TicVt2oVFmhVGXhzBuQahAx2U2VbqxzKSjVm0XVIa0QL1cByWDrJQuWfuaEMdFHVZfDxmVtdehsUJCYbCqiYyCSKIrSY5BmrdaVBqp169JwPawXDLho1aqF1pYvekiCjvYIcjQ4WUw/8y251HQS9co3d+2B2AOfMcJ9F0TjoXziKP08qvHu1mt66nJ23sFenU2cddca/D/7wzAa153pVSLNsADyabqeG5RimvigWKBYoFigUOuwUgaBZL0swnnw774MsAigWKBYoFigWKBZ5nC4CBYqf0ijCBODK2s3InR820PmYMGQSPYJGxGc/BR8aWWV3UxJtgK2OyjEOZqrEkLYBN80ZZEDaB8oLysZAhZABBPPUJyw3WetPqgf40qbHnML/p2XHhSWNfBA5BYRmeVs8tQMjY1mOzAMFmNwaGJAJT0lJPp6NxGBvtBfqsVE09qrMm1FcaE8STaoBjwbSdMzX1bREIc4s0NIgoYke7giNt76X/XpB4am2ur09AX8diy9NPP53uuvuueHNeevlL0+lnnL7/rQu8b0E4NT5s+9/KmSCN4JeqeiQi71FIVZR8b7s+dK5LjCU/h6vE0o415QH6446zMDPMhxz5YE35nwgXMyHDNRaVF6PHzjXfh5OAgGNZsVBzm9Rrtp+f2UDcQ9teoE2DsyizSonr/crzNCgHMSi1E6GBXSKeTly3Jq1evyaNa1HP7JxOo9P1WLCEzE1IrWbn5bFANeWwO1xEdgrMBzmm58fCxrE1HQMj92sTkIwD4omQv+6Omvrxtp2ov3AqkG/MAueZ2XzsjHrOBrfVyu9igWKBYoFigWKBYoGlW2D+94FLakH/lbd+ndja1ktRvF16dhobb9/if//YDcCa9hfL2WKBYoFigReqBQR0YvOkJowTnkK0AMaUEEEPFjcQesdhEgXcZLIoYzbhL+EwY0hQnImfTDhFaxXpAs4yVsTodAxeC3Qbz2kDZMa9lIz7ekU6DSjMrk9ihm7h+F5Fr5yh/wh6uiVk2DUpXEdic/WsQYMnMzmW2/d4GT9jawoNwM/M15g240nGC9XBmHwPz7EFuYsJ91vb3a90MhYyME6na6G+8TZ1fT82ogddCwBfynIssGji6aCN+3PWqHbHHXek22+/PV144YURjncwhdQB2zcvkz/HB6zW9kK+t+3Fw3syYmUbRw5/40MNk8qisKyPhWrHYRYXksbT8qLwn3B2GJ6RSZtMRuXa2RQmk6iZVVNccXxrXkaZ/KJfyC8WMWMaVPL4jcdtSlOKw2WHw/UbN6TOnpryPdXTrn370sTYpBhjL3DucSgerdgB0a4LTzRnks3Fuf13Jshbeto52hY4IPI6rZKzQvlEWCBkVibZYpyym39yT5WTwGrFUeQ3oDwWCxQLFAsUCxQL7GeB+eGO+1XQifl5uNrVORTnfutX3576z3nnoWi6tFksUCxQLHBUW8CkU1YlGXtBMlFmIjrG0TPgKvBSTqcSuFA3g9EcnpaxldFUk/iBxKE1o0Vv8GRxQG6DXjMxxWO0EOSQx0P0DCFta5WreXBVn66KZFKYzIkbjk9rN61NYxJaTO/cmcaV9wnFFKSV086A9TJKzcICFFStwgU/N27NIg7Py7i2STyBexEyrBXxtFFpgLo7etRnZ6pLpACxBQYN8qsitsCrVoYJY4dgpBBPy10sK0c8NUgFJbyuT6ZtT28L1vSaq69J51+w+DC7ORNpaRPe4ICl3bV25w7YwPN8IRNOdMs4q5hSPsgsQhhch59RwR9uFgKLrz4zyTMvVhayLnuRQ1BZvdQkm+YujuwMaDNLF+nR5BWcLs7IB4s9E0WQO8T9TtS1Z7Ye169dk3r7+1PPQF/q1oI9XiF3q/V629ioFikKJvp1diammp0FbseEF3Oppg5xpMHAxuNBuLUpq/T4GSH39nb2pNWSZtbkPB2HPCNHwTWIOzsJ5uiE9JBadlSWRM51EoxLVUspFigWKBYoFigWKBaQBSCdWncLLEYpFigWKBYoFjiyLRCYh2NeyWRPoCSlZPEX+a4E1iIhN1iN+1s38gJvQUxxzejLkTXz2+e1cWUTU5LZKeNIt5GRX04C7h3VB4QZN2xcJyyokDYJGdZWQoZ9wpm7tHHV9rGpUCQBDBkbOYHZuCqTP01snMkxSDPm6VGCC6ljG3gWvM6jsZChO1LIZCGD2waDhgXmTNdY2XcHmqxUXHMqlReLssDKEU/zurv0skvTB3/lg6F4Yje8UloswIKOf8iXTK7kRQRJ493hnEzb573Y2GYSFnhyZiqIKWJTYY9biZosn6RVnvt+r8TsIBxL693wCFHzYrT0silRdNssM+qT9G3v8L60e5fkkb1arKv608T4aITdDfb1p5PWrks7h0fSHpGO3p1Orcqh4FQycZTHhiVol/kHHw751KjlMTMnE0c5/yn+AAAgAElEQVS2D6M0ATarXQ/kqOREuW9qxuNkDjin2MVB88ZJOJ6Ztt0jEn1ap6vKN8WVUooFigWKBV5oFliMsmWxNlFu0CS3nL51y33pxtsO3Q5yix1Pqbc8C7ADYLvyxBNPJI5DUW6++eYDNnvVVVelk08++TlvAjNa56+A+N+/lGKBYoFigWPKAhlFNieVI1r8ZX6QL1LsWKEUaCnwVMaCoTpSHbAa2KtJ3lRIqVJN0X5TwJB785f9/mrfv+1rwXfsmJdD7Eza0D4E0oQiZToUZrdu9aAwZX+IGWoSMpywcWNas2ogPTM6rrFAlkEmefy8ZswZL+cRkNuYnbo6hQenI2JIc1HH5Bv2mD0vz8/iCDapIswO0omcWIgZxqe5s0k4WdSQe7Fyiq4YRynLt8DKEU+8o9VntLunO3ad4yilvQWCHNGHF8USy53FmR1BF5I+nQtyBqmffkh0Rugaz1mI/cplxWKEzPFyZnEr276IKEipnKjbbwkLt1mvLuJqXDG0w1r4IzqmNY6c/Z823YalmCxw1EnkbNo5KqJp+3TaMzGW1j+7OrbnHOhfFfTRpFDHgMY0ONAbHwNUT6NCI3sn65HwPMZZKZDs2DpjsZsWCppI7eR4ZGKM8wcKJr4j6u6RDUb0BGcQck05FXba61Pd7ChNolUfRI2D+eAkwpo4VmKgdW8pxQLFAsUCR5sFPv1Hv55ecdWFR/SwSyjUEf32LDi41s/Whz/84f03d1nw7pW9eOWVV8YXW0899VSCnOL1c9mF2OTTyo6xtFYsUCxQLHC4LQCeDMxUqXBCwBDYbSYiRMCITYzkHEbkUZoQFgR3gikRMoDNelWxiRezYsj3Z6zZJJ+cfwk1ErgSUQT3EsLnqJnZwGoWNJgFYkz0++zQnrR+h3ZK7zkp1fqUF3hsTPCtI63RxlEnrV6fduwdTkOTk4FnTWRNV4on48mc+zePxXNsYj/uMn62gslhc+BKdaOJkjR8XLh2KoQcvNau7DOon5rvZpOAMxkHFnYDYElQZSnLscDKEU/lHViU/YOsVWnkeJJzcOZ+q4D4oLOQvJgc9saVzExjZsiWTL6YYMrhccTsepFH/K4aa74tkFRmnyGwxqaVj2myFvUnZhRCp3FQ6NdOwwstM74suN2SQO6uT2jbyxExxTu1UGdTr0jGHkkVtw+LlJLTWN/TJ+miya8J3bSqVg8CKhfCBLmP+Uwpvo5Hs+8mlEy2eVcEzuMIrV4i3I8xWr+EDQbVr3bAbBTqeQ789quwJ6y7JJtWQjXrl2fFAsUCxQJHiwV+6X1vOeJJp6PFlkfaOPkvki9XDkVZLuEC6UNBdXSgAhH0XMigA7U7/zykUy6kBCgJxudbqLwuFigWeCFbAMRjosWgCOxGMQUFloJcAXuhGiJ0bbohCkDIQE2LGcCFtcCYkDVEsBhn5igaWnUf5D0CdYEn99THYoMpCvjTRJDvd54pakpEoH5RFj07NpJmn5lJI5MTadPgmmiDXNBdjFGRM+x4hyLJETSzEh1MKdpFY0Y8wOjUB8XzQr7h/68CJqqQD5n/K5rnXZ85gT13TdCecSe5iXs7e2PH9j7pEmif+3wv95lgQxkWRW2EpoyxtKjBfLH8PpgFVo54au2peuP1zpTSxgKYJfIecaiw4RoLoS/IEamgqh9IE1NHXrC8qikBGosDVRJMMg7C8bQmlnjuBORNlRF9IB/MjsDkFDolGG6FrukvXhxRa5ide6ZNyy9pI8asMjqF45gO0qpTjkBctc6iQmIHvq5QPnlsODiY4a5wNia3moniamo7E2rIHOkz3KTq82jHSUgdjsxEGP3bPg4xZEQ4GsZPG4zRO/9xjtpyphBwqJwqR8XZUooFigWKBYoFmhZ4ruFUCxEU8+0M0aK0DoekHIkkziGZ6PPQKOTTUt7X52FIaeT+69Or3/Xb6cZbS0jn82Hv0kexQLHAkWmBCpKFkMHPnXSb0VopBAICezVlPOAlH8aMq0TwUCvEChWeNNGUw+ScO8lkkpVMtG94T39JeHBSmK9DES6oiCw0gBiiTk6xku8HloH7hhQls29yn3IDD4eIAIVUrx77JFx4ZmQ4ekDI0K+QOEfQTKchCRnAnogcKBYtOAexQ/CMBXnu3h0JlAk348UqfYyIpTGBb1oiEnuAfkR0BfaM3FfUdjSNSShjUmBkwZNh/mWXFf3TL1Q8KmYLm2/8skf3grjR+ZNYvE7KzcIOLjXIlKziscKpO82IP0HtwyIOkkmOolsxqtkJZMVSTfGu1GlKBU08sYBQPOGHZmuKs1WDE4qLZeHhOIh7pQ0vbBNPLFruoy3IJl7Ft7Mt6iocGaSTHVdXNUaNV4z4lBKiw2Z7EZvkEtGcPVfME3ljqJ8qh8Jbn5lqfwzCInFTJtpINk5/nKOf7NCcmB2LmIgKQlqOJD6dhXyyOcvvYoFigaPWAv9w093KpXRPuvqy0yP3Dkfnc9rj/rmZYqkExdC4v518br2Wu1+oFvi76/9j2njRuxrT58u2+aVPGKKvNW6iUaFN5fk3l9fFAsUCxQJHuAUy5p4RpusAf+sf+XiNqbTztzBQU3TgiBZwXCC6wGwieyQYyNgOLJkJKM41RQ3Gp8ZnxpXUo/CFv0kuEJZxP6okt+NoHJRYkW6lqkE9UrDgt0cFJhEzIFboFhllIcGshRgSTPRJyNCnDno6DRqlmQryyeGAEm0oBQv4OHoXfsxqrqx8wiz0y3g4Zyxr1RT3MTaLMLIQIqvCILgYfzMVDjYhZUv8raWDKJpSlm6BFSWeGt3z5sRbXUo7C7BAIt8QCyGWC4vBLC4yQIoZWjO5LBYUTiiJ2P6R0mSRTT75Hts8FjyJ1ua0RQ2u4zQknawIJBKrcZAEnMUHI8Xi9Y8dRbcWfFcw4b6XkLcgx6RMoh5yRhhy54lCRSWFkxRc/JiMkoNR1+yggIPKRBN30iYzxglBvuEQWz873JMllUhEuYb0kvn3iHgKZxWEmZVfzNKEFWNH1ulX02p/BmdFhVKKBYoFigWOYgts2/Z06hl/It1001PxR1AmnVpDklZyegdTvfzBH/zBSnb3vLe19bLz0g9fce6K9ftbv/r29Jt/8Nn0ex/73Iq12a4heJVaO9alXeVj7Nyv/W9vSR/5xA3H2KzKdIoFigWKBRZnAcGnKGAowr66dMwoZ1HGeRYuBOIEjTWwVRBOEhnoK//AmplggniKSBY1HNhO7TtnsNO4uDd3yjWwaUenol9UF6Q1MVOTyED9iyNiRzryRoHzMq6zqMEiBvepqrFRlLEn4wQT0qdzQyFm6BY5RvoW5aSSiGBCYXpTEkzQf2BcsKbwrvEthBq4z6IDzz+P2mNs7t7XnAdzzliYeWfyi/uNIG0PbNUR7JPbLL+XZ4EVJZ68bf3yBvJCuKsShFVL1B9gyKduvQsDYmbyIodhRZkzJSaGc5AqLIQ13V5sdgjxOxabmWQTONQz4eT4VEgidsNzKBqLM5qOdePD7Vip5OcQSCxCkzuQWDgKyCPC2zrUntlyXQnngIMhLxTkGI/OEQX5hEIKssykVCbE8nttx+M5QDwxOo+fsTE6E1z0zWvmkGOOeW12nvsZG6y96omoIrzPJBbsvxLeVZR3ONhot5RigWKBYoGj0wKPPfZYevtbr9XgOQ5/uemmm+YMYqCtyuTwj/NAI/jSJ38jvWrryidsh3zi//Y//PgNUt4cqPdyfrkW+He/8PZlEE/lq6fl2rvcVyxQLHBkWSBjbsgQcg01A0aMlRxi5+gZMJHD0UwiIWToFc4z7jT2A5OB4yhgMQrfa0AEWeFEqhTjP6deQUwgXKp6WQRAPXFDgbSoAy6jXQq9QHhxze1BmJk4c385osWCCsgyVEeB6SCbkvP6dovsysRVTYSUe7MgAyTptCvRpYpxdH6VcWUOzYMcM/HUHeIJon5MmPkOcKda1jyMfekNhfe0hAxlm6qmVZfybEWJp6V0/EKsC+HjRSbKqFrcs/rLdHD1qrRWW0l2iCnurkLkpsXiIiWEKmGBrRbp1NXR21jA2SlYbtj8Y8oL3KQTpAvs8+gUy13LUaqmvNi81L0gnbzN5NBgrUckWC2UVasUb8sjjiM7JxNPWfJo52CSivGayoJ4Yhw4OnI7rek2++x2cFomlMxsNxlxxhbbYqpklVN2GpBstGV23rJPzjEu6PVqhnFfdnYkMleLqUsJ0Dv7exRaKDvFGEspFigWKBY4Oi1w+umnH5UDX0lCaiWJnENBOuU3iDxWKznWQ/3Gf+ijn00QOqUUCxQLFAsUCxwFFhBkipAv4TRIkW4SZYsRyeFvEENgIvAVeAn10Cr9x7QqNoEyHnKaF2gqEyzM2ulW/GW+8RU7wDmUrx5kjLEWoWpZIQXuQ8QwGTICY1hIHaufLEyA3DEZZWURoYH05d3wCK2z6IH7eB7pXaooHMitgTjHTuxWRnkHdFNPTdLMQoWMNY0TmVUO+bMqinkF8RRtGbfmVC05z5NtZ3KrrrQxRpXC2LJBSS6+vPVRiKfl2W3Zd2XeQ0s1WN8O/VW67pQT0gnHb0zjO3fC1cainCVUbhpCiWz7JmKywinEf1rXLCYefd6Ln0XE+anZydg5AMfCj7huOR4tFC3yLD+kXlYQ8RwGfENvj4ii3rS2uy8SvsFOm8wyIUR/mfFmkdvR9MQYaDcTR95BD7qLLTAhvHBUFGq5LbPozmnlxU28MMvaCifXy+OXI408Tlzz3Gkz24F+kEQSEkhbJGkfUAczssfM2sHUv3Gdtuzs8wjcfeGgqnekPBQLFAsc+RbYetn5R/4gNcIDES0HOn9UTEqDzHm1DjZe3qdXXLXyCqqD9VuuFwsUCxQLFAu8wCwQGFBYB9wogcLq1X1pbV+v0trOhIKHH1DThLgTVFHgLjaygmyB1DFl07SZ8Z5xZWDRSAPD7uszkVuJ3eXAXXUJGbKAIauIshiAPMRgUQiuAX3hD7ZE0IDCKhNP0bYw3WTsbm61EiIGxsQYTGb5kdF5B73ZtLpGVIuJJ3AeY8uEEnOCPAOj0qaxILMHS5t4Mx52PifazWINMDDXeKQu9/OcvlA8cY7+OruljOofEDSXcgvCr5QlW6AQT0s22crcEAQUH2x9gFedcWpau+WkND62J42OjKTeWDqQNiyC2SB/HL7GInWOJAilSPQWu+B5QdGgCRi7kiyPzOohM7osuLwdMcQUCx0HlKRuQnqpRG7aVtJbWfaGk6AQsgfRQ1/UZ6e4CJ1TiJtJJ9eBMzeh5euxYNUE+ZVQIFGyM2B+MWI5iUxomWzyTCrxU4vBzbvTvp1NyyWMGW1XxJoqdSvko1aTkmzT+tS7bqMcBrs32Dau3Xp/eV4sUCxQLHBkWuCX3veWQmYc4rfm+9//fvqnW+5J37r5nkZPr7z81Dm9njx48EE88v3bEoeLv+w4+F2lRqsFcvjmqaeemjgOVMa9e3fby1P6ep5NU+aW/U7Mr1BeFwsUCxQLHDUWCMyEwABQ2d+bNp5yYjpZQobhZ58NnGTlk0kVBA9gyXU9Iqb0YzRk5VLGXj7vqBIrohxBM6Ed4Lo6JiusJiwogogQOLChBRBWDUEeUSCd1miXOA52p1ut6B6IJ3AofSEUgExyCKBD9rgOeeScT1ZEBYCMsfIb7JqFDCacyE9Msdghz9NJz5l/joLJbQTwVkshxNCP52gsauTJVe4D71YqqIipE/kmPNy9fo2EDGtTl0QaRb0Qpl9yKcTTkk22gjewlghrO/WkdNI1W9Pk2oE0+f1709ize9P00IQY6+BfVYkl6pC0UBlp3bB0GuojLUT+nOoUiz0rL0NOo5AAarFAEnXIYSARHJqsK/mbd5fLi61bxNEaOQReI2uEePIueWbCkUASL8sWmYS6sSRxHEgeYdJDZ6TzkEdNttjKpXpcc7gdbeAgIMZaQ/doy8RVUy2FhXEWJpi8Q0NriGCWVmKFvP0nUXThzDQunEaSLabWrErHnX5aOvHi89OJZ5yhoTfZaXx0KcUCxQLFAkeDBUr406F/lyCejltbSz967cUr1tlTw6Mr1tZiG9IX0hESsZzCvUdCufHGG2MYW7duXZB4+sB733LIE7gfCfYoYygWKBYoFphvgfgCXlgGvASB06GojoHTTklrzzglTYyPpJGR4SBQBAwDH4GpEDJADhnbgSS5n0eDItrkx69R+YDtqOPNobzhk2UDYC1C0vLuesaGJorAk4gZBrqInumXUglsCZlk0iciVnQ/xBgqJyc2ryJg1B8KK4gtsKlFE94wajLO+6hQX8whqCwN27jRc+Fcxqag6CxmAIfm4ufUQ8SRk5YbY3MPdo3Ns4TV60rb0n3c+tS/YZ1OdjfaKE+WZoFCPC3NXitem4XXu2lD6r/i0jRw4qa0/sxT0/YHHk77ntyR0rh2mpsUqTM+kcbrfLUnFY/Y45pC4DoIgdMHv0vSSrK/dWj11nr7UjcsrApkEIVd3UbGxtL2vUNp29BQGptQOwpn69RfmJOj41JYDac9o6OST3rRrap5oSKntNTQrx3WZvaY5Oc4J3a7o2TFEknMIZhY+JYvMmI7AMcBcz+OyhxQnJOPEkckK1SCUAgnnezS/FBVeQ7IKXUPJJrOI/TiDl7XkHTKoXV2Kw/W+rVp9YYNaUp1xsXO9ej1iWe9KJ18/vlp1Ukn0EC013Sx8bKUYoFigWKBI9YCV15y3hE7tjKwhS0AkbOQKmd0f0nOwg0e4qvazbqUYoFigWKBYoGjwAIRzSJAQwqVoGX0xXvf6Sen46/5oTS1cVWavf+BNCLl09i+8VAqKHamIqlI6UJeXyt9rD7K+Ihd5oSvApyp7cB7hk/dqtKNiED/UeydHJeQAdwIBAVVWT1EqhaQXxYy9Il8QiDALuhTM0TtWIkKvqQemBAhA6QP55zzqSk+YGw+Z0KMdCyIIDivScW7BFQUnRW407DRailwa35NvUxEOXrH4oa8A57FGFOaCzv+VQnNNS7umtS52lqEDKekE15yQTrhjC0oPaLvUpZugUI8Ld1mK3sHKhzJHmfFDg9uOSP1HbcxbTr/gjS2a3eaHZescXg81Yf2pIlRKaC0AHp6RLJw9PWnLskqa4rlJea0QwRUj9rpIpupCoQWjgiSZkp//U6Mj6ex0bE0WZ+Ad0pToyNp/NndaceTT6cHHns0bXt2V5rV9X6po7RhgBxNZ6qLye4WodWj9mtql767pI7qFNkDKVQTwUOZrvJGTfBcC7RHY1nVq3A9jbFHEstgtIMsk2vRdOV7wpmF2knMe+SzwjEFEUV4nNrv0Qadap97og85mq6aHJpItk6x44Tt4ThVUWPSlqCqPyiiae2mTWlGsbekx+pQQvG+1WtTbVAOWHMINlxtVfxTtFtKsUCxQLHAkWyBl11+9pE8vGWNbSEyZlkNVjcdiUTOkTam52LfI+3e2BH4KNtF8UizYRlPsUCxwNFtgfwFP4Cv9/jj0vHrVkv5dIKUT6emZx58KO19ekeaGZtInXWRNhIfTE1MhsqoT9gJgqlDwAwcBb4DY/GFfnevFD1imiCzIGooCBqGJWTYuW80PbV3VxrRf+QdqK4UETM5PpbGpPDdM4KQYUbtm+ghL1StQ9fVhJVZ3nUuk0IRlUP0zKzFFfRjcmpGj+A8SCVIIpNUwbSpWHnlV12qZNJJNVU/8kMJH0K1RVoYsKQemQVijLifeavuDIot+tALsGevhAw12WOVQupWbTwuTcoek8Km3evXpxPPPisdf/7ZafVJJ0X7pSzPAoV4Wp7dVuwuyBOSws1AqOhDX1POp7Wbjk9rtVjTpMLi+AoSlZLII7PQKJz0tsHgxKNec7CC4qiG1lgUXmSixLVC9TwO1eGr2BEpqfbuTRc/u1PxwLvT0I6daUyqqGmRVDMT2mFPjfWK0OkVwdXbN5C6RHLVevtFdLGYWbTqn7EHjyzCSnW7IcTkvGoif7pFhKHQCrIHcowxB1ll5prhRoAeDiIcBe5HJZh2HTwGXV3NgecVsab9LH1PJH3TedpVn2Knqnt0Ol4r5I66mrcZ7aq5bCf6K6VYoFigWKBYYEUssGvYf6SuSGOlkYYF/s3P/+iKW+OVV52fDuWufis+4HkN8ufA4pLWF5BwqN+L0n6xQLHAYbIAWEr/7ZJ3aQaySHhy1ebTU9/GDWnDReeliT1DEhuMpWlFuUwI401J0NCpb+K7FSXTSRSNhAKIGLKYoUOOtbsSNETuqCjgMO0GN6WNqxSFM6pImUlh1BkUTMpNjFhix5Pb0oOPP5a27diVOtRXz5Rwl/qpC3+Rm4kd93qED/sjWkcpXhBREK1D6hbhPXAgaWJokyD1WeG6HoW3DWp8/YrmAY926xx1OxXVEuIElEcaIliaPE/KURPXKVyr0Q/CBzFhxqw+j6gB0QMYNtRLIYSAgOtNM8KNazYdlwaP2xRj0Mbwwr+KKFozGEKGDtkMKN0wTfRWymItUIinxVrqENYzc0roGESLFoA+0bP64HdowcVzFrwWohlcPuzz/ogyg6MRshLilgiFo565KLVQ7QgXKiEqKIV5GliV+jatSye96DQRUQ7pmxZrPSO2elYhfvTZpXGwcHFEHVq8XqDqJPfJUOB+KK2EUWbAYvwUFjeV/SpmoKc4Gp7wuzEvqlS+DlIr5k596uKcqsuh6tK88Btum0pVqerl2GOfbWm4pWp5WixQLFAscLRagETM5MQhH85VV111tE7jeR/31svOSz98xbmHtN//v737gZHtqu8Dfr3abtebJ+f1YV5dY1nGIQYcB1lxeDikcUL5UyhyYhP+1HUpshCtikUpoSlQKFGaUkAUEWyZKFAHkdRxzT/jojYRSeuAArFfMEUE2y8usixqOybYruU8r9eb7dL7OzN3dnZ2zu7snN3Z+fO5yfJ2zr3n3HM+d2ffu1+fe+ZXf+m1VXzZDlJA6HSQ+s5NgMD+CMSHKcUW93WtW7vWfV9auuSH6hlMS4eqH37609M9VJpsUE9k+MFqHRY9tdLKW+KeLv5jfZrAUP+ejP9YH2l++/6rfQPZ3LbV5a3fpfUzJNXT4r6sdTtXt1vPonriyeqJekmX533/kbSw+V89/Ei18thftc5Xn/MH9eylxbrtxXoiw6l1v1LIVU+0iKd9otnWMir1rKT6U9DTQ4F1yJTCsJjIUAc9f6N+nQKkuDeuj5+LACr63942ArK4VWwNIP6M2U6te9NmmZb2vWYMpfUcXuveMurU6yq37jPrP8MhvppH6uKesq4TQ27uK7vP2emIb3YUEDztSLT/B8QPb/xfZ4vXkdy2t7RQeHpnRpDUPi6FR/XWfp1mQ8V8odidVlBr/1fnen96o6RDW21Etdanv8UsqHhP1j8GkUCfWs9mWj/U+mUSv6jiqzUHKU1FbP3SiTdm65dPajTeuPEy9aP5LdS8jjO1uhRj6N5Sf+vDYzydWqndVNg59JS6XqTSrf63ZkelaD+2FPG3x5RO366bbFKNdFjrd0u7zY2m0z4bAQIECOydwF7PzJn0WTnbyd5///1VfO31dvz48b1uUnsECBAgMK4CcWtW3w+1PvG7dS+UZkDV91Mxq6ie3lRPD42wqI51OvdjUSnuNdv3THHv1b73bN13RhBUr7Ebj7zV94kR9qR7xzg88pz6j3RLFcux1BMZfvhpT6tOqz/Q6ZT4FPP6SZ31p+qlXerAa72e2PCDOlCKmU2xbMspEXDVdVoTGerv03mjsTSI9P0P6qAnrTOVThBb971h830cGPviz657zM69ZOxq31e2jkqhUbo7rG8M4742Va+3WMIlvUj3vVFQ10uTJVpbS6h9dOpip2OdY3wzmIDgaTCnAz0qzVLq/RnvCmeic5vS3nimtTMNKe3dkgtFabz9Ur36q5ltFGsutedstt506X3WmjmV3qxN6JTe6PX/1+lR59w9fYqazbZlltamfZuO7H6RztfbbNNWs4B510la37YrBFnrl0Mv3qZTeEGAAAECeyRw0DN8YgbYuGzXXHPNuHRl1/2IxxXikQcbAQIECIyfQLo37NpaoVOEKBvlm4+JMCXu3VoBSmdSQyd+2WisNVGhueeLvwc230dtuqerd7X+rqjvB2OdqHp9qLmlU+vzxOLjEXTV1WNCRB0OxZMqacJBXad+sK0ua/c13YfG0a1ZW2lKQufetx34pO5F/6M/0V77dSrfmKyRdrTvbdOuZovQqT325gmcMAijVFw3HTOvWt+0m2+9Si2kxdxtxQKCp2LCPWqg/UO/R61taSalvPUbP82uqn/xxBttLqZW9m7pzdr9Bt44oPOWi/d7+/dAK7jqbWQXr6NR7+VdgDmUAAEC4yew28AnZvo8+OCDYzOQc889d2z6Mg4dadbJGIe+DN+HPv/GGb4xNQkQIDC2AtlgpMltmuCk/efGkzX5m7CYdTR/SuvT0mPgzUSIuAfsrpWCqPh1m+7p4j6y/krnbZ08dneefIn70NhT74qZRs39ZLoNrve1/mwCqWijt39d+1JDcUx76z20a1f0qXk8sEXQWpQ8HdKnXndRn93dLft+FwKCp11g7euh/X6q07uv7KxNAh7NdM+KKmk1vcdTv+rvml9ku20wdWi3lXY+Psab/eW7c3VHECBAgMAQArPweFcsqLpSf/jGfm3Hjh3b86bPOuusKr5sBAgQIEBgk0CT+nQKu2/M2vd4URQ3ft33pPX3/y/db7XuLVuTrDaC/mb9qbTgd7M1j/U1943tNntvI9PrQe5/h7iH7D3XJovtXmzMttjuKPsGEBA8DYB0YIcM8abq7eumEGYP2ov2O2/cod/Bvb3cu9dCp72z1BIBAgQGERjn2THCnEGuoGMIECBAYCoE6pAkVv3duFfbZlTb3sf1hFCpmVZZa6WkQdKh/LlT7WHuS3vr9L7On7Jsz1CdLTvlNNYWPE3qVY13bGyDvuHS8fX/9LxxOtMlB2waJIAAACAASURBVG1nEK+UDDcNbj3nIE04hgABAgTGXyBm0+zFp+mZmTP+13qyeugxu8m6XnpLgMCeCNT3eblbuo11oHJHZHrQc+84lz61Kd9G7/pTG4du1Nk2x8k3nengPhdv29l9PveUNS94mtQLups3ZRNSbfNLYt8YxuDNGjlYpPNmQ+3bVdYwAQIzKiAwmtELb9gECBAgMH0CmyYPNMMb00kEnfvbMe3f9P10FI9I8FRMOCENZIKqfcmF9qXRwZ17E/0InXrLBm/NkQQIECBAgAABAgQIEJhcgS3/Ab77AZXOsPrdMNZlTcjTb/dBkHRCpzj5EJ3aVH+4Jg5i2JN+TsHTpF/BQfo/xPtxkGbH9ZjeX6wx6TRmhfaWj2v/9YsAAQIECBAYVsBjdsPKqUeAwAwJ9Ls/7FcWJH1DqgO0yvVzV10afKZUs2D6lscId3U+Bwue/AxMvUBMwMo/8Tz1wzdAAgQIECBAgAABAgQIDCewJ0HPcKfel1ppPNsPqgmbus/vCZqyqyF4KvNTmwABAgQIHLhArLVkI0CAAAECBAgQ2B8BT8+UuQqeyvzUJkCAAAEC+yawtjZY04KnwZwcNe0CHrOb9itsfAQIEBiFgMfq9l7Z39B7b6pFAgQIECBQLHByeb366wGDp+KTaYAAAQIECBAgQIDAPgkInvYJVrMECBAgQGBYgQidVteHra0eAQIECBAgQIAAgfEREDyNz7XQEwIECBAgUAmd/BAQGEbAP2mHUVOHAAECBAiMQsDf0qNQdg4CBAgQIDCAgNBpACSHECBAgAABAgQITJSA4GmiLpfOEiBAgMC0CvSGTgv139CnLk7raI2LAAECBAgQIEBgVgQET7NypY2TAAECBMZWoF/odGjJX9Fje8F0bMwEvFfG7ILoDgECBAgQ2CTgb2o/EAQIECBA4AAFhE4HiO/UBAgQIECAAAEC+y4geNp3YicgQIAAAQL9BXpDpzjKTKf+VkoJECBAgAABAgQmU0DwNJnXTa8JECBAYMIF+oVOpy36a3nCL6vuj1zAe2bk5E5IgAABAgR2KeBv612COZwAAQIECJQK5EKn+fnSltUnQIAAAQIECBAgMF4Cgqfxuh56Q4AAAQJTLiB0mvILbHgECBAgQIAAAQKbBARPfiAIECBAgMAIBVbXN58sHq/LzXRaWxthx5yKwC4EPv/ZT+/i6MEPfeELXzj4wZV/xu4Cy6EECBAgQODABEzqPzB6JyZAgACBWRfYLnSKmVF/LXia9R+R6sSJu6u7vv1nfR1e9erX9i3fy8IImG65+TN9m7znxInqne95b999CgkQIECAAAECjYDgyc8CAQIECBA4AIGdQqfemVEH0EWnrAVyM3vOv+DHq+c857n7bhShUy74GVUf1tfXq7m5rf9kvPvuO6svfP6z1WWvevW+OzgBAQIECBAgMLkCW/8VMblj0XMCBAgQIDARAkKnwS5TM9unX/DyqRv6z8IZrOXBj+p37qg9ytk+CwuL1Vqf5y5P3HXnSMKvGO+RI4erxx57fBNcPOjmYbfBf5YcSYAAAQIEZlVA8DSrV964CRAgQOBABCYldNruEatfuPw11Sge8/rCZz9T3X331sfM5kYYdxw5cmRL4BI/OP/7z+8e2c/PkcOnpT6s9oRPowx9FuqFyA7X/Xjuj/5oZ9y33/G/RmbgRAQIECBAgMDkCgieJvfa6TkBAgQITKBAbiHx3k+7W6hThVMXD26At9z8ufrk/aKNntXR97GL3/veA30f8erXq/3qRgQuS0uL1fLySucU6fxzo+xFlUKfH3nmMzt9OIjQJyyOHfuJkfXhsccey17W1ZWnsvvsIECAAAECBMZLQPA0XtdDbwgQIEBgBgX6hU6HlkYbbPSyHzq0tClsafbXy/2MbBuX0OfQ0lL1pqte3xn3tb9x/cgMuk80ytDnQAbYddKvfe1r1ZlnnpntxlOCp6yNHQQIECBAYNwEBE/jdkX0hwABAgRmSmAcQ6e4ABG2rK2ubXq8a66e5RMLTY9yG5fQZ5RjHqdzxQLmN3/upk6Xvn3XiZF175577sme628fOcDpgNle2UGAAAECBAj0ExA89VNRRoAAAQIERiDQGzrFKRfjGbsx2X7mZ36quuD856TeHD/+jeogHu8aE4qx6EYT+nz/+49UMRtsFFt8ct/lv/i66vavfrl+unCuuvPOjbWtjp5+pFpYXNi3bnQ/areyslLFV7MtjWb4+zY2DRMgQIAAgVkS8Nf2LF1tYyVAgACBAxdYWW11YW1tvVrtmTy03cLjB97xGe/ATZ+5uSOwWIctK82F3GeXWMS9X+gTaz7tZ+jTPazowygWk++lvPfee1PR4uJi+ureFhYWqnPP+lvVvff/395qXhMgQIAAAQJjJiB4GrMLojsECBAgMN0Cy71pU3u4/UKnWEB5uwWWu2eAjFItHr8a2VbPsukOfSJwiU94G9lWn/+lf/8VW0631vMJc1sO2MOCD37kuj1sbXKaOnr0aL2o+uFsh8875wzBU1bHDgIECBAgMD4CgqfxuRZ6QoAAAQIzKBBP1sXjdf2enHrOuWdUjz+eD1meWt3fT/aKx6q6H62KmT4nT65V8fjVKLaXvuKVfU8z0tDnw9f27YNCAgQIECBAgACBwQQET4M5OYoAAQIECOypwFJ7Laftlsg5cuiUarsFlh95+JE97VN3Y7nQ55k/ct6+nbO34Ze87B/0Fnk9QwJPPvnktjOeZojCUAkQIECAwEQLCJ4m+vLpPAECBAhMmsCRQ4MvHn7fffdtO7ztZkNtW3GAnUKfAZAcsq8CETxtt136ovOr3//jjcXOtzvWPgIECBAgQODgBARPB2fvzAQIECBAICtw7llPq9bXW6uPx0LKNgKzKHDkyJHq0UcfncWhGzMBAgQIEJgaAcHT1FxKAyFAgACBaRKIhZNjceXcdlALi+f6o5zAfggcO3asevjhh6uvf/3r+9G8NgkQIECAAIERCAw+338EnXEKAgQIECBAYDABwdNgTo6afIHTTz+9evnLX17F7CcbAQIECBAgMHkCZjxN3jXTYwIECBAgQIDAzAnE7KfFxcVN47761z43cw4GTIAAAQIEJk3AjKdJu2L6S4AAAQIECBAgQIAAAQIECBCYEAHB04RcKN0kQIAAAQKNwKlLp26Z+UGHAAECBAgQIECAwDgKeNRuHK+KPhEgQIDAzAs8+5mn9zU4fPhwWuvmyeXtP2q+b2WFBAgQIECAAAECBEYsIHgaMbjTESBAgACBQQTOO2frJ9qdeeaZZjoNgucYAgQIECBAgACBsREQPI3NpdARAgQIECCwIXDZZZdt4vjWt76FhwABAgQIECBAgMDECVjjaeIumQ4TIECAAAECBAgQIECAAAECBCZDQPA0GddJLwkQIECAAAECMy+wvr4+8wYACBAgQIDApAkInibtiukvAQIECBAgQGBGBdbW1jaN/NiFz55RCcMmQIAAAQKTIyB4mpxrpacECBAgQIAAAQJdAi+46DweBAgQIECAwJgLCJ7G/ALpHgECBAgQIECAAAECBAgQIEBgUgUET5N65fSbAAECBAgQIECAAAECBAgQIDDmAoKnMb9AukeAAAECBAgQIECAAAECBAgQmFQBwdOkXjn9JkCAAAECBAgQIECAAAECBAiMuYDgacwvkO4RIECAAAECBAgQIECAAAECBCZVQPA0qVdOvwkQIECAAAECBAgQIECAAAECYy4geBrzC6R7BAgQIECAAAECBAgQIECAAIFJFRA8TeqV028CBAgQIECAAAECBAgQIECAwJgLCJ7G/ALpHgECBAgQIECAAAECBAgQIEBgUgUET5N65fSbAAECBAgQIECAAAECBAgQIDDmAvNj3j/dI0CAAAECBAgQGKHAbbfdtidnO378+FDtzM3NVevr60PVVYkAAQIECBAYPwHB0/hdEz0iQIAAAQIEZkRgr0Ke+++/v3rwwQdnRM0wCRAgQIAAgUkSEDxN0tXSVwIECBAgQGBogQhn4msvtmFn8+zFuae9jZjxFJtZT9N+pY2PAAECBGZFQPA0K1faOAkQIECAwAgFhDwjxN7HUx07dmyo1ldXV1PI9/DDDw9VvwmfhqqsEgECBAgQIDBWAoKnsbocOkOAAAECBIYT8MjWcG7jVmvYoKd3HBdffHFv0Uhfr6ysVOecc04656OPPpq+vvOd71RHjx7dVT+Wl5erpaWlXdVxMAECBAgQIDBeAoKn8boeekOAAAECBHYlEDNDrrnmml3VcXBL4Mwzz6zOOuusYo5oYy/aKe7IGDWwuLi4pTfz8/PVJZdcUn33u9/dsi9XEMeeffbZwqcckHICBAgQIDABAoKnCbhIukiAAAECBHICk/RI0rTM5sldC+U7C8TspQiShE87WzmCAAECBAhMi4DgaVqupHEQIECAwMwJ7FXodP755ye7hYWF9NW7mdHTK+J1iUBJ+HTo0KGSU6tLgAABAgQIHICA4OkA0J2SAAECBAjshcBug6f4lLC46T/vvPM6p3/Ws57V+f60006r4stGYD8EDh8+3Gl20PApjmvCplg3qruN/eijNgkQIECAAIG9FxA87b2pFgkQIECAwL4LDHID3izuHJ05ceJE9dBDD/Wd0bTvnXUCAn0EIlSK2Xb9Ztn1OVwRAQIECBAgMKECgqcJvXC6TYAAAQKzKxAzlyJ4GiR8ml0lIydAgAABAgQIEBgHAcHTOFwFfSBAgAABAgMKROi02223j+Tttn3Hz4bAV277dvW1b9y142Df+ebX7niMAwgQIECAAIHZERA8zc61NlICBAgQmHABodOEX8Ahuv+Bj316iFqbq9x+xz3V8W/eXdzOoA1ce/0tfQ8996ynVaeffnpV8umGvR4xNhsBAgQIECAw3gKCp/G+PnpHgAABAgSSwG5Cp6NHj1ZPPrlcPfHEMr1dCvQGG7us3jk8F74M29401Lv3/keqK972m/VQ4qvfNtevUBkBAgQIECAw4QKCpwm/gLpPgAABArMhcOGFF+5qoLGQ+CQET4M+vrXT4G/+4q3V/X/5+E6H2U+AAAECBAgQIDBiAcHTiMGdjgABAgQIjKvAr/+nW6qFxb9ZPbmy0cNTF7f2dm2tqm79kxP1ej93V0sLc9XiwtZjlBAgQIAAAQIECBAIAcGTnwMCBAgQIDCFAmeccUYVX832vOc9b8dRvveXXr/jMc0B7/kXAx/qQALFAs+4aPCfzeKTaYAAAQIECBDYUwEP0+8pp8YIECBAgAABAgQIECBAgAABAgQaATOe/CwQIECAAIExFGgWuR72E8keuOOGMRyVLhEgQIAAAQIECMyagOBp1q648RIgQIDARAj4VLSJuEw6SYAAAQIECBAgsIOAR+12ALKbAAECBAgQIECAAAECBAgQIEBgOAHB03BuahEgQIAAAQIECBAgQIAAAQIECOwgIHjaAchuAgQIECBAgAABAgQIECBAgACB4QQET8O5qUWAAAECBAgQIECAAAECBAgQILCDgMXFdwCymwABAgQITLLAysc+Xq188lN9hzB/wfnVoU9+Iu17/GdfWq0vL1fz55xTHfpM/0/EO3n1W6u141+v5k4/Wp32ezf3bXPta7dVJ9/69i375paWqrn6fItXXlHNv/DitH/9oYeqxy/9xfR9v/Mu/8dfr1Zv+kzaf+ijH+7USwXt7bHn/3T3y+z3h//0q9XJ11xZrd13XxV9OXTdR1N/mm3tS39YnXz3r6SXi1e9oVp88z/NthU74viVG2+q1r59VzquX//W630rn/9Ctf5nd6bzxhbjnHvB86ulf/Uv0+tur4VLX1ktvfffpPLerbk+Cz/3c9XSh97Xu3vL69Xf/t1q9dZbO/2LA+K6zZ17drXwohdVC6++rFPn8VdcXq0//Jfpdb/2m5+h3uve/Dz0njyN8cd/rFp81WWbjHuP85oAAQIECBCYDQEznmbjOhslAQIECMyoQIRJg2xNCBMBSYQhvVuERBE6xRaBVXY7ebLvruhH1F9+17/ttD93xhkp6IgtzhsBR7NFaNOETnG+Jqzq2/iAhRHsxBZ9Wf6N39xUa/kj16XXEUotvOrnsy2moOiqN6WQqgmd0sF9xh3BzOoX/1sndIrDYpwxruV/9x9StRhXnDPt+x+3pj97t9XP1uFV+zrO14HOdlv0L4Kk5Wuv29y/ulKES+kafPBDm5poQqcoXP2jP0qhWvfWnLv7uLQ/87OVxliPO42/DsBsBAgQIECAwGwLCJ5m+/obPQECBAjMiECENzHrp/urme0UBAsveEFHYvUP/+cWlbUvbZTN1zN2BtkWXveadL7Tvvi5NIsotggxVm64sVN98Q1XdoKXCGQi4Ipt5VMbs64W3/TG7Om6xxPna7ZD7/vVTWON8oV/8o/SjKPYIoBpApYIRzozfuo2IhDLbat1sLP+0MNpPE2QlTs2ypfecnUaf/SzCdmiPIKZZps/dix9GzYRMvVua7f/6caxL/t7vbs7r8Mugr3usZxWz2hrjGJWVhg1QVdvQ02guHLLF3t37fi6OUecL2ziHCngiwCsJ8jasTEHECBAgAABAlMlIHiaqstpMAQIECBAYDiBCGWaQCIeDevdVm+/PRWlGUFdj2n1HtfvdQQ58ehaPKqVtq6ZMjHTar5rJtLKx3+rSrOd6pk3sUVYsxeznVonrh+je9NVzbfVyic+mb5fubH1OF/0b6dH7Bb/8T9Mjxmm49ozlToN9nxz2pf/IIVdTZC1+Pa39D104fJLO+Vrd7Ue3es+cO348fRy/thPbhuKrXz42s7MqAi84nG+7scJwzHKol/9tngEL7YI5eIaDLOlxylrm6V3v6NTfZgga5hzq0OAAAECBAiMp4DgaTyvi14RIECAAIGRCzQzb+JRqd7gofOYXXt2zl52LsKcJpSKmUDLH/5Iaj5CrlxYM+z551/2khTgxBbjjMfmmhlCS2+7esdmt5sNtWPlhx/te0h63K4dyq39ycbsptTHerZQ86hb96y0fg11Aqp6VlcEXrvd5s442pmV1T3jbLftxPHJuWt22TBtqEOAAAECBAhMh4DgaTquo1EQIECAAIFtBWI9oliIO75ioerlX373lnCp+xG61a/8cae97se/umfnbHvCrp3pEbB6TaMm4Jn7sc3rFKUZUVdsPCbXrJ0UM6GKgp5MB5f++T/r7OmcK2Ze1WHJfm4rv/+lTvPdj91F4fxPtR5fTOswda2xtXpba7ZTmmm2TZgUdZqAKhYvH2Zb+869VTz6GFvMOOsNH3fbZnc/+q0bttv2HE+AAAECBAhMpoDgaTKvm14TIECAAIGhBdJaQnWwEIs/d4cL8QhdZ6HrW7/cab9ZYyhm5ezmsbdYsykFXfUn1zVrGqVPTWt/olv3AOb7rF200P70u6EHmqmYHu9rz8ZpDpl//nBhTeYUW4ojeFlrr+uUZnK1A57mwIWXbKzd1L3GVjMDqpmNtqXhpqDP4uaxKz4ZsAkcu4PHfu3Ez0XYNKFYfCLfnm2Z/u1Z+xoiQIAAAQIExlZA8DS2l0bHCBAgQIBAuUCEPJsWFK8XmG5Cl7TQd9csnDhbv8ftOo9wtWflDNurOG/u0blY26l3W/nE9b1Fe/I6ZnDFY3bdW/fC5ntykq5GOot+t9e2WqzXX+peeykO7fe4XZrFVM+ASvuHnMXUbyzNzKh++6KsCcXiU/aaxd5zx25b3r2W15lnbnuonQQIECBAgMD0CgiepvfaGhkBAgQIENgiEAFH9wLb63duXki893G7CGk6awx1zcrZ0nCfguZT7ZpPtIuwZ/nX3r/lyLSYeHs2UFpMvJ51E1s8Brcfn4i2cv2nUvsxg6v5JLwUwv3n/7Klb6UFKXR6y9s3LfqdW5y993G7ZubTIAu6dz8muN71KXjdwWPjutOYmllPaWbc5//rTodn9zeL1Ef/e4O2bCU7CBAgQIAAgakTEDxN3SU1IAIECBAgsL3A+uMnOwd0PmmuXdL7uN2wj9l19yA+5awTJtWfmNYbJjWLiUedmG2zeMXrOtVXbrxp+8Hscm88etbMIop1pdLC5u1Pp4tH4Ypm+PT0pQmdmtlV8Ulz263T1Pu43cCP2bXP271oeve6XLskSod31nr64u8NUz1d42bcOz4mONQZVCJAgAABAgQmRUDwNClXSj8JECBAgMAQAo+/4vJq9bd/txOoxONb8VhZsy289EVbWp1/cassgoPmMbuFS1+x5bjdFHSHSat/cGunagoo6plNscVsp7T+Ur3Id7POUOyL/u/FFkFQZ52lmO1UL9adFjZ/41Wp+TTr6cPX7sWpUhsx02nQ0CmOj9lonU+Ci8fc2o/ZDbqg++KVV3T6vvzBD6X1nZo1vFKgdnJ54LF1Zj3VfeieQbVTA3G+lY99vFp+3wc7h/auZ7VTG/YTIECAAAEC0yUgeJqu62k0BAgQIEBgs8DyyWr52uvSAt+xuPTJt26EIemxtj6f5NY986bzmN0lf7dINs7ThCrdn5i28olPpnbTgttvf0vnHN1hxcqNG0FZSSdiHalmPEtvu7rTVAqg6iAqtp0+zS1ClWaR7u4A7+S7f6XlWy/YHlv3jJ94Hdegd5HvCIZ6t/kX/Wwqavq5mwXdI7haescvd2ZwRf8ev+pNnQXee9e16j137+vOWk8962H1HhevOwuX1+db+eSnUv/jmsYsL4/Z9RNTRoAAAQIEZkdA8DQ719pICRAgQGAGBQ5d99HWTKL242RBEI+9RSCw9KH39RXpnnnTHD9weHDoUKfN+aOtMKcpaNZTitexqPmmx7EufWWafdRsacZNXRZbzPwZ5NGxTefr6kfTZrOOVIy/N3BbfOMbOufek09z63P+zgm2+WahDviaR//isPkXt4Kobaps2hWPSh666XfS2lW9azpF8Jc+VbAOp7q35ny91ytdg7qdZmse5esUdP1MdbcX541rl3726lDPRoAAAQIECMy2wCkfeP8HfvCOf/2O2VYwegL9BMSy/VSUESBQKPCMi64sbGGw6g/cccNgBzqKwAQIPOOi1+9ZLx+443f2rC0NESBAYGQC6yM7kxMR2HMBt9Z7TqpBAgQIECBAgAABAgQIECBAgACBEBA8+TkgQIAAAQIECBAgQIAAAQIECBDYFwHB076wapQAAQIECBAgQIAAAQIECBAgQEDw5GeAAAECBAhMsMAZR5aqo0c2FvSe4KHoOgECBAgQIECAwBQKzE/hmAyJAAECBAjMhMAFz7i/+umffHEa6//53hPVf7/t/pkYt0ESIECAAAECBAhMjoDgaXKulZ4SIECAAIFNAk8/baW6776vVk9VZ1eHT32i3ncKIQIECBAgQIAAAQJjJSB4GqvLoTMECBAgQGBwgb/zQyvVXzzxWB03PVad+IuFuuLZg1d2JIEZFDh24bNncNSGTIAAAQIEDlZA8HSw/s5OgAABAgSGFvjGoz9RLT/2UKr/3UePbGrnGRddOXS7j55c79Q9cmjrcpArq1W1vNo6ZmlhrlqMzMtGYFcCW3+udlV9yINfcNF5Q9ZUjQABAgQIEBhWQPA0rJx6BAgQIEBgnwVuvO5d6QxXXP3+vmc6cW+dAFWbA6e+ByokQIAAAQIECBAgcEACgqcDgndaAgQIEJhNgQfuuCEN/Cu3fbv6yCe+UB3/5t1ZiEsuviC7zw4CBAgQIECAAAECkyBwMPOcJ0FGHwkQIECAwD4KRKh08/XvqZpZTft4Kk0TIECAAAECBAgQODABwdOB0TsxAQIECMyiwOVv/PdVrL/0gY99Og0/AqiYBXXswufOIocxExipwO133DPS8zkZAQIECBAgUFWCJz8FBAgQIEBghALNo3XXXn9LFSFUPHIXW8x+GofwKRYOtxGYVoHj3/zzaR2acREgQIAAgbEVEDyN7aXRMQIECBCYdoEIoWLh8HELn6bd3fgIECBAgAABAgRGJyB4Gp21MxEgQIAAgb4Cwqe+LAqnVsA/P6f20hoYAQIECBDoI+Bv/j4oiggQIECAwKgFhE+jFnc+AgQIECBAgACBUQgInkah7BwECBAgQGAAgd7waYAqDiFAgAABAgQIECAw1gKCp7G+PDpHgAABAtMmcON176re8sZfyA6rO3zKHmQHAQIECBAgQIAAgQkREDxNyIXSTQIECBCYDoFLLr6geuebX7vtYMY9fFpeXd+2/3YSIECAAAECBAgQaATmURAgQIAAAQKjE/jAxz5dXXv9LTueMMKnmBl1+x337HisAwgQIECAAAECBAiMq4DgaVyvjH4RIECAwFQKDBI6NQPfzbFTiWVQBAgQIECAAAECEy8geJr4S2gABAgQIDBJAg/cccMkdVdfCRAgQIAAAQIECBQJWOOpiE9lAgQIECBAgAABAgQIECBAgACBnIDgKSejnAABAgQIECBAgAABAgQIECBAoEhA8FTEpzIBAgQIECBAgAABAgQIECBAgEBOQPCUk1FOgAABAgQIECBAgAABAgQIECBQJCB4KuJTmQABAgQIECBAgAABAgQIECBAICcgeMrJKCdAgAABAgQIECBAgAABAgQIECgSEDwV8alMgAABAgQIECBAgAABAgQIECCQExA85WSUEyBAgAABAgQIECBAgAABAgQIFAkInor4VCZAgAABAgQIECBAgAABAgQIEMgJCJ5yMsoJECBAgAABAgQIECBAgAABAgSKBARPRXwqEyBAgAABAgQIECBAgAABAgQI5AQETzkZ5QQIECBAgAABAgQIECBAgAABAkUCgqciPpUJECBAgAABAgQIECBAgAABAgRyAoKnnIxyAgQIECBAgAABAgQIECBAgACBIgHBUxGfygQIECBAgAABAgQIECBAgAABAjkBwVNORjkBAgQIECBAgAABAgQIECBAgECRgOCpiE9lAgQIECBAgAABAgQIECBAgACBnIDgKSejnAABAgQINlcK7QAADPBJREFUECBAgAABAgQIECBAoEhA8FTEpzIBAgQIECBAgAABAgQIECBAgEBOQPCUk1FOgAABAgQIECBAgAABAgQIECBQJCB4KuJTmQABAgQIECBAgAABAgQIECBAICcgeMrJKCdAgAABAgQIECBAgAABAgQIECgSEDwV8alMgAABAgQIECBAgAABAgQIECCQExA85WSUEyBAgAABAgQIECBAgAABAgQIFAkInor4VCZAgAABAgQIECBAgAABAgQIEMgJCJ5yMsoJECBAgAABAgQIECBAgAABAgSKBARPRXwqEyBAgAABAgQIECBAgAABAgQI5AQETzkZ5QQIECBAgAABAgQIECBAgAABAkUCgqciPpUJECBAgAABAgQIECBAgAABAgRyAoKnnIxyAgQIECBAgAABAgQIECBAgACBIgHBUxGfygQIECBAgAABAgQIECBAgAABAjkBwVNORjkBAgQIECBAgAABAgQIECBAgECRgOCpiE9lAgQIECBAgAABAgQIECBAgACBnIDgKSejnAABAgQIECBAgAABAgQIECBAoEhA8FTEpzIBAgQIECBAgAABAgQIECBAgEBOQPCUk1FOgAABAgQIECBAgAABAgQIECBQJCB4KuJTmQABAgQIECBAgAABAgQIECBAICcgeMrJKCdAgAABAgQIECBAgAABAgQIECgSEDwV8alMgAABAgQIECBAgAABAgQIECCQExA85WSUEyBAgAABAgQIECBAgAABAgQIFAkInor4VCZAgAABAgQIECBAgAABAgQIEMgJCJ5yMsoJECBAgAABAgQIECBAgAABAgSKBARPRXwqEyBAgAABAgQIECBAgAABAgQI5AQETzkZ5QQIECBAgAABAgQIECBAgAABAkUCgqciPpUJECBAgAABAgQIECBAgAABAgRyAoKnnIxyAgQIECBAgAABAgQIECBAgACBIgHBUxGfygQIECBAgAABAgQIECBAgAABAjkBwVNORjkBAgQIECBAgAABAgQIECBAgECRgOCpiE9lAgQIECBAgAABAgQIECBAgACBnIDgKSejnAABAgQIECBAgAABAgQIECBAoEhA8FTEpzIBAgQIECBAgAABAgQIECBAgEBOQPCUk1FOgAABAgQIECBAgAABAgQIECBQJCB4KuJTmQABAgQIECBAgAABAgQIECBAICcgeMrJKCdAgAABAgQIECBAgAABAgQIECgSEDwV8alMgAABAgQIECBAgAABAgQIECCQExA85WSUEyBAgAABAgQIECBAgAABAgQIFAkInor4VCZAgAABAgQIECBAgAABAgQIEMgJCJ5yMsoJECBAgAABAgQIECBAgAABAgSKBARPRXwqEyBAgAABAgQIECBAgAABAgQI5AQETzkZ5QQIECBAgAABAgQIECBAgAABAkUCgqciPpUJECBAgAABAgQIECBAgAABAgRyAoKnnIxyAgQIECBAgAABAgQIECBAgACBIgHBUxGfygQIECBAgAABAgQIECBAgAABAjkBwVNORjkBAgQIECBAgAABAgQIECBAgECRgOCpiE9lAgQIECBAgAABAgQIECBAgACBnIDgKSejnAABAgQIECBAgAABAgQIECBAoEhA8FTEpzIBAgQIECBAgAABAgQIECBAgEBOQPCUk1FOgAABAgQIECBAgAABAgQIECBQJCB4KuJTmQABAgQIECBAgAABAgQIECBAICcgeMrJKCdAgAABAgQIECBAgAABAgQIECgSEDwV8alMgAABAgQIECBAgAABAgQIECCQExA85WSUEyBAgAABAgQIECBAgAABAgQIFAkInor4VCZAgAABAgQIECBAgAABAgQIEMgJCJ5yMsoJECBAgAABAgQIECBAgAABAgSKBARPRXwqEyBAgAABAgQIECBAgAABAgQI5AQETzkZ5QQIECBAgAABAgQIECBAgAABAkUCgqciPpUJECBAgAABAgQIECBAgAABAgRyAoKnnIxyAgQIECBAgAABAgQIECBAgACBIgHBUxGfygQIECBAgAABAgQIECBAgAABAjkBwVNORjkBAgQIECBAgAABAgQIECBAgECRgOCpiE9lAgQIECBAgAABAgQIECBAgACBnIDgKSejnAABAgQIECBAgAABAgQIECBAoEhA8FTEpzIBAgQIECBAgAABAgQIECBAgEBOQPCUk1FOgAABAgQIECBAgAABAgQIECBQJCB4KuJTmQABAgQIECBAgAABAgQIECBAICcgeMrJKCdAgAABAgQIECBAgAABAgQIECgSEDwV8alMgAABAgQIECBAgAABAgQIECCQExA85WSUEyBAgAABAgQIECBAgAABAgQIFAkInor4VCZAgAABAgQIECBAgAABAgQIEMgJCJ5yMsoJECBAgAABAgQIECBAgAABAgSKBARPRXwqEyBAgAABAgQIECBAgAABAgQI5AQETzkZ5QQIECBAgAABAgQIECBAgAABAkUCgqciPpUJECBAgAABAgQIECBAgAABAgRyAoKnnIxyAgQIECBAgAABAgQIECBAgACBIgHBUxGfygQIECBAgAABAgQIECBAgAABAjkBwVNORjkBAgQIECBAgAABAgQIECBAgECRgOCpiE9lAgQIECBAgAABAgQIECBAgACBnIDgKSejnAABAgQIECBAgAABAgQIECBAoEhA8FTEpzIBAgQIECBAgAABAgQIECBAgEBOQPCUk1FOgAABAgQIECBAgAABAgQIECBQJCB4KuJTmQABAgQIECBAgAABAgQIECBAICcgeMrJKCdAgAABAgQIECBAgAABAgQIECgSEDwV8alMgAABAgQIECBAgAABAgQIECCQExA85WSUEyBAgAABAgQIECBAgAABAgQIFAkInor4VCZAgAABAgQIECBAgAABAgQIEMgJCJ5yMsoJECBAgAABAgQIECBAgAABAgSKBARPRXwqEyBAgAABAgQIECBAgAABAgQI5AQETzkZ5QQIECBAgAABAgQIECBAgAABAkUCgqciPpUJECBAgAABAgQIECBAgAABAgRyAoKnnIxyAgQIECBAgAABAgQIECBAgACBIgHBUxGfygQIECBAgAABAgQIECBAgAABAjkBwVNORjkBAgQIECBAgAABAgQIECBAgECRgOCpiE9lAgQIECBAgAABAgQIECBAgACBnIDgKSejnAABAgQIECBAgAABAgQIECBAoEhA8FTEpzIBAgQIECBAgAABAgQIECBAgEBOQPCUk1FOgAABAgQIECBAgAABAgQIECBQJCB4KuJTmQABAgQIECBAgAABAgQIECBAICcgeMrJKCdAgAABAgQIECBAgAABAgQIECgSEDwV8alMgAABAgQIECBAgAABAgQIECCQExA85WSUEyBAgAABAgQIECBAgAABAgQIFAkInor4VCZAgAABAgQIECBAgAABAgQIEMgJCJ5yMsoJECBAgAABAgQIECBAgAABAgSKBARPRXwqEyBAgAABAgQIECBAgAABAgQI5AQETzkZ5QQIECBAgAABAgQIECBAgAABAkUCgqciPpUJECBAgAABAgQIECBAgAABAgRyAoKnnIxyAgQIECBAgAABAgQIECBAgACBIgHBUxGfygQIECBAgAABAgQIECBAgAABAjkBwVNORjkBAgQIECBAgAABAgQIECBAgECRgOCpiE9lAgQIECBAgAABAgQIECBAgACBnIDgKSejnAABAgQIECBAgAABAgQIECBAoEhA8FTEpzIBAgQIECBAgAABAgQIECBAgEBOQPCUk1FOgAABAgQIECBAgAABAgQIECBQJCB4KuJTmQABAgQIECBAgAABAgQIECBAICcgeMrJKCdAgAABAgQIECBAgAABAgQIECgSEDwV8alMgAABAgQIECBAgAABAgQIECCQExA85WSUEyBAgAABAgQIECBAgAABAgQIFAkInor4VCZAgAABAgQIECBAgAABAgQIEMgJCJ5yMsoJECBAgAABAgQIECBAgAABAgSKBARPRXwqEyBAgAABAgQIECBAgAABAgQI5AQETzkZ5QQIECBAgAABAgQIECBAgAABAkUCgqciPpUJECBAgAABAgQIECBAgAABAgRyAoKnnIxyAgQIECBAgAABAgQIECBAgACBIgHBUxGfygQIECBAgAABAgQIECBAgAABAjkBwVNORjkBAgQIECBAgAABAgQIECBAgECRgOCpiE9lAgQIECBAgAABAgQIECBAgACBnIDgKSejnAABAgQIECBAgAABAgQIECBAoEhA8FTEpzIBAgQIECBAgAABAgQIECBAgEBOQPCUk1FOgAABAgQIECBAgAABAgQIECBQJCB4KuJTmQABAgQIECBAgAABAgQIECBAICcgeMrJKCdAgAABAgQIECBAgAABAgQIECgS+P/tEXSDMc13mgAAAABJRU5ErkJggg==;movable=0;resizable=0;rotatable=0;deletable=0;editable=0;locked=1;connectable=0;" vertex="1" parent="1">
          <mxGeometry y="210" width="1182" height="560" as="geometry" />
        </mxCell>
        <mxCell id="LE7nOK1s_ql1IttaSKJA-8" value="" style="endArrow=none;html=1;rounded=0;strokeWidth=3;fillColor=#ffe6cc;strokeColor=#d79b00;" edge="1" parent="1">
          <mxGeometry width="50" height="50" relative="1" as="geometry">
            <mxPoint x="200" y="470" as="sourcePoint" />
            <mxPoint x="250" y="470" as="targetPoint" />
          </mxGeometry>
        </mxCell>
        <mxCell id="LE7nOK1s_ql1IttaSKJA-9" value="" style="edgeStyle=none;orthogonalLoop=1;jettySize=auto;html=1;rounded=0;" edge="1" parent="1">
          <mxGeometry width="80" relative="1" as="geometry">
            <mxPoint x="250" y="470" as="sourcePoint" />
            <mxPoint x="250" y="760" as="targetPoint" />
            <Array as="points" />
          </mxGeometry>
        </mxCell>
        <mxCell id="LE7nOK1s_ql1IttaSKJA-12" value="" style="endArrow=none;html=1;rounded=0;fillColor=#ffe6cc;strokeColor=#d79b00;strokeWidth=3;" edge="1" parent="1">
          <mxGeometry width="50" height="50" relative="1" as="geometry">
            <mxPoint x="250" y="470" as="sourcePoint" />
            <mxPoint x="250" y="750" as="targetPoint" />
          </mxGeometry>
        </mxCell>
        <mxCell id="LE7nOK1s_ql1IttaSKJA-15" value="" style="endArrow=none;html=1;rounded=0;strokeWidth=3;fillColor=#ffe6cc;strokeColor=#d79b00;" edge="1" parent="1">
          <mxGeometry width="50" height="50" relative="1" as="geometry">
            <mxPoint x="250" y="750" as="sourcePoint" />
            <mxPoint x="570" y="620" as="targetPoint" />
            <Array as="points">
              <mxPoint x="570" y="750" />
            </Array>
          </mxGeometry>
        </mxCell>
        <mxCell id="LE7nOK1s_ql1IttaSKJA-17" value="" style="endArrow=none;html=1;rounded=0;strokeWidth=3;fillColor=#ffe6cc;strokeColor=#d79b00;" edge="1" parent="1">
          <mxGeometry width="50" height="50" relative="1" as="geometry">
            <mxPoint x="900" y="260" as="sourcePoint" />
            <mxPoint x="1000" y="480" as="targetPoint" />
            <Array as="points">
              <mxPoint x="900" y="480" />
            </Array>
          </mxGeometry>
        </mxCell>
        <mxCell id="LE7nOK1s_ql1IttaSKJA-18" value="" style="endArrow=none;html=1;rounded=0;strokeWidth=3;fillColor=#d5e8d4;strokeColor=#82b366;" edge="1" parent="1">
          <mxGeometry width="50" height="50" relative="1" as="geometry">
            <mxPoint x="200" y="440" as="sourcePoint" />
            <mxPoint x="280" y="440" as="targetPoint" />
          </mxGeometry>
        </mxCell>
        <mxCell id="LE7nOK1s_ql1IttaSKJA-19" value="" style="endArrow=none;html=1;rounded=0;strokeColor=#82b366;strokeWidth=3;align=center;verticalAlign=middle;fontFamily=Helvetica;fontSize=11;fontColor=default;labelBackgroundColor=default;fillColor=#d5e8d4;" edge="1" parent="1">
          <mxGeometry width="50" height="50" relative="1" as="geometry">
            <mxPoint x="280" y="440" as="sourcePoint" />
            <mxPoint x="280" y="720" as="targetPoint" />
          </mxGeometry>
        </mxCell>
        <mxCell id="LE7nOK1s_ql1IttaSKJA-20" value="" style="endArrow=none;html=1;rounded=0;strokeColor=#82b366;strokeWidth=3;align=center;verticalAlign=middle;fontFamily=Helvetica;fontSize=11;fontColor=default;labelBackgroundColor=default;fillColor=#d5e8d4;" edge="1" parent="1">
          <mxGeometry width="50" height="50" relative="1" as="geometry">
            <mxPoint x="280" y="720" as="sourcePoint" />
            <mxPoint x="540" y="620" as="targetPoint" />
            <Array as="points">
              <mxPoint x="540" y="720" />
            </Array>
          </mxGeometry>
        </mxCell>
        <mxCell id="LE7nOK1s_ql1IttaSKJA-23" value="" style="endArrow=none;html=1;rounded=0;strokeColor=#82b366;strokeWidth=3;align=center;verticalAlign=middle;fontFamily=Helvetica;fontSize=11;fontColor=default;labelBackgroundColor=default;fillColor=#d5e8d4;" edge="1" parent="1">
          <mxGeometry width="50" height="50" relative="1" as="geometry">
            <mxPoint x="590" y="440" as="sourcePoint" />
            <mxPoint x="940" y="290" as="targetPoint" />
            <Array as="points">
              <mxPoint x="590" y="290" />
            </Array>
          </mxGeometry>
        </mxCell>
        <mxCell id="LE7nOK1s_ql1IttaSKJA-24" value="" style="endArrow=none;html=1;rounded=0;strokeColor=#82b366;strokeWidth=3;align=center;verticalAlign=middle;fontFamily=Helvetica;fontSize=11;fontColor=default;labelBackgroundColor=default;fillColor=#d5e8d4;" edge="1" parent="1">
          <mxGeometry width="50" height="50" relative="1" as="geometry">
            <mxPoint x="940" y="450" as="sourcePoint" />
            <mxPoint x="1000" y="450" as="targetPoint" />
          </mxGeometry>
        </mxCell>
        <mxCell id="LE7nOK1s_ql1IttaSKJA-25" value="" style="endArrow=none;html=1;rounded=0;strokeColor=#FF66B3;strokeWidth=3;align=center;verticalAlign=middle;fontFamily=Helvetica;fontSize=11;fontColor=default;labelBackgroundColor=default;fillColor=#f8cecc;" edge="1" parent="1">
          <mxGeometry width="50" height="50" relative="1" as="geometry">
            <mxPoint x="320" y="690" as="sourcePoint" />
            <mxPoint x="320" y="410" as="targetPoint" />
          </mxGeometry>
        </mxCell>
        <mxCell id="LE7nOK1s_ql1IttaSKJA-26" value="" style="endArrow=none;html=1;rounded=0;strokeColor=#FF66B3;strokeWidth=3;align=center;verticalAlign=middle;fontFamily=Helvetica;fontSize=11;fontColor=default;labelBackgroundColor=default;fillColor=#f8cecc;" edge="1" parent="1">
          <mxGeometry width="50" height="50" relative="1" as="geometry">
            <mxPoint x="200" y="410" as="sourcePoint" />
            <mxPoint x="320" y="410" as="targetPoint" />
          </mxGeometry>
        </mxCell>
        <mxCell id="LE7nOK1s_ql1IttaSKJA-27" value="" style="endArrow=none;html=1;rounded=0;strokeColor=#FF66B3;strokeWidth=3;align=center;verticalAlign=middle;fontFamily=Helvetica;fontSize=11;fontColor=default;labelBackgroundColor=default;fillColor=#f8cecc;" edge="1" parent="1">
          <mxGeometry width="50" height="50" relative="1" as="geometry">
            <mxPoint x="320" y="690" as="sourcePoint" />
            <mxPoint x="520" y="690" as="targetPoint" />
          </mxGeometry>
        </mxCell>
        <mxCell id="LE7nOK1s_ql1IttaSKJA-28" value="" style="endArrow=none;html=1;rounded=0;strokeColor=#FF66B3;strokeWidth=3;align=center;verticalAlign=middle;fontFamily=Helvetica;fontSize=11;fontColor=default;labelBackgroundColor=default;fillColor=#f8cecc;" edge="1" parent="1">
          <mxGeometry width="50" height="50" relative="1" as="geometry">
            <mxPoint x="520" y="690" as="sourcePoint" />
            <mxPoint x="520" y="620" as="targetPoint" />
          </mxGeometry>
        </mxCell>
        <mxCell id="LE7nOK1s_ql1IttaSKJA-29" value="" style="endArrow=none;html=1;rounded=0;strokeWidth=3;align=center;verticalAlign=middle;fontFamily=Helvetica;fontSize=11;fontColor=default;labelBackgroundColor=default;fillColor=#f8cecc;strokeColor=#FF66B3;" edge="1" parent="1">
          <mxGeometry width="50" height="50" relative="1" as="geometry">
            <mxPoint x="530" y="440" as="sourcePoint" />
            <mxPoint x="530" y="230" as="targetPoint" />
          </mxGeometry>
        </mxCell>
        <mxCell id="LE7nOK1s_ql1IttaSKJA-30" value="" style="endArrow=none;html=1;rounded=0;strokeColor=#FF66B3;strokeWidth=3;align=center;verticalAlign=middle;fontFamily=Helvetica;fontSize=11;fontColor=default;labelBackgroundColor=default;fillColor=#f8cecc;" edge="1" parent="1">
          <mxGeometry width="50" height="50" relative="1" as="geometry">
            <mxPoint x="530" y="230" as="sourcePoint" />
            <mxPoint x="970" y="230" as="targetPoint" />
          </mxGeometry>
        </mxCell>
        <mxCell id="LE7nOK1s_ql1IttaSKJA-31" value="" style="endArrow=none;html=1;rounded=0;strokeColor=#FF66B3;strokeWidth=3;align=center;verticalAlign=middle;fontFamily=Helvetica;fontSize=11;fontColor=default;labelBackgroundColor=default;fillColor=#f8cecc;" edge="1" parent="1">
          <mxGeometry width="50" height="50" relative="1" as="geometry">
            <mxPoint x="970" y="410" as="sourcePoint" />
            <mxPoint x="1000" y="410" as="targetPoint" />
          </mxGeometry>
        </mxCell>
        <mxCell id="LE7nOK1s_ql1IttaSKJA-34" value="" style="endArrow=none;html=1;rounded=0;strokeColor=default;strokeWidth=3;align=center;verticalAlign=middle;fontFamily=Helvetica;fontSize=11;fontColor=default;labelBackgroundColor=default;" edge="1" parent="1">
          <mxGeometry width="50" height="50" relative="1" as="geometry">
            <mxPoint x="210" y="380" as="sourcePoint" />
            <mxPoint x="340" y="380" as="targetPoint" />
          </mxGeometry>
        </mxCell>
        <mxCell id="LE7nOK1s_ql1IttaSKJA-35" value="" style="endArrow=none;html=1;rounded=0;strokeWidth=3;align=center;verticalAlign=middle;fontFamily=Helvetica;fontSize=11;fontColor=default;labelBackgroundColor=default;strokeColor=#FFFFFF;" edge="1" parent="1">
          <mxGeometry width="50" height="50" relative="1" as="geometry">
            <mxPoint x="200" y="380" as="sourcePoint" />
            <mxPoint x="340" y="380" as="targetPoint" />
          </mxGeometry>
        </mxCell>
        <mxCell id="LE7nOK1s_ql1IttaSKJA-36" value="" style="endArrow=none;html=1;rounded=0;strokeColor=#FFFFFF;strokeWidth=3;align=center;verticalAlign=middle;fontFamily=Helvetica;fontSize=11;fontColor=default;labelBackgroundColor=default;" edge="1" parent="1">
          <mxGeometry width="50" height="50" relative="1" as="geometry">
            <mxPoint x="340" y="380" as="sourcePoint" />
            <mxPoint x="340" y="660" as="targetPoint" />
          </mxGeometry>
        </mxCell>
        <mxCell id="LE7nOK1s_ql1IttaSKJA-37" value="" style="endArrow=none;html=1;rounded=0;strokeColor=#FFFFFF;strokeWidth=3;align=center;verticalAlign=middle;fontFamily=Helvetica;fontSize=11;fontColor=default;labelBackgroundColor=default;" edge="1" parent="1">
          <mxGeometry width="50" height="50" relative="1" as="geometry">
            <mxPoint x="340" y="660" as="sourcePoint" />
            <mxPoint x="650" y="660" as="targetPoint" />
          </mxGeometry>
        </mxCell>
        <mxCell id="LE7nOK1s_ql1IttaSKJA-38" value="" style="endArrow=none;html=1;rounded=0;strokeColor=#FFFFFF;strokeWidth=3;align=center;verticalAlign=middle;fontFamily=Helvetica;fontSize=11;fontColor=default;labelBackgroundColor=default;" edge="1" parent="1">
          <mxGeometry width="50" height="50" relative="1" as="geometry">
            <mxPoint x="650" y="660" as="sourcePoint" />
            <mxPoint x="650" y="620" as="targetPoint" />
          </mxGeometry>
        </mxCell>
        <mxCell id="LE7nOK1s_ql1IttaSKJA-41" value="" style="endArrow=none;html=1;rounded=0;strokeColor=#FFFFFF;strokeWidth=3;align=center;verticalAlign=middle;fontFamily=Helvetica;fontSize=11;fontColor=default;labelBackgroundColor=default;" edge="1" parent="1">
          <mxGeometry width="50" height="50" relative="1" as="geometry">
            <mxPoint x="650" y="380" as="sourcePoint" />
            <mxPoint x="1000" y="380" as="targetPoint" />
          </mxGeometry>
        </mxCell>
        <mxCell id="LE7nOK1s_ql1IttaSKJA-42" value="" style="endArrow=none;html=1;rounded=0;strokeColor=#7EA6E0;strokeWidth=3;align=center;verticalAlign=middle;fontFamily=Helvetica;fontSize=11;fontColor=default;labelBackgroundColor=default;" edge="1" parent="1">
          <mxGeometry width="50" height="50" relative="1" as="geometry">
            <mxPoint x="200" y="350" as="sourcePoint" />
            <mxPoint x="380" y="640" as="targetPoint" />
            <Array as="points">
              <mxPoint x="380" y="350" />
            </Array>
          </mxGeometry>
        </mxCell>
        <mxCell id="LE7nOK1s_ql1IttaSKJA-47" value="" style="endArrow=none;html=1;rounded=0;strokeColor=#FFFFFF;strokeWidth=3;align=center;verticalAlign=middle;fontFamily=Helvetica;fontSize=11;fontColor=default;labelBackgroundColor=default;" edge="1" parent="1">
          <mxGeometry width="50" height="50" relative="1" as="geometry">
            <mxPoint x="650" y="380" as="sourcePoint" />
            <mxPoint x="650" y="440" as="targetPoint" />
          </mxGeometry>
        </mxCell>
        <mxCell id="LE7nOK1s_ql1IttaSKJA-49" value="" style="endArrow=none;html=1;rounded=0;strokeColor=#7EA6E0;strokeWidth=3;align=center;verticalAlign=middle;fontFamily=Helvetica;fontSize=11;fontColor=default;labelBackgroundColor=default;" edge="1" parent="1">
          <mxGeometry width="50" height="50" relative="1" as="geometry">
            <mxPoint x="380" y="640" as="sourcePoint" />
            <mxPoint x="610" y="620" as="targetPoint" />
            <Array as="points">
              <mxPoint x="610" y="640" />
            </Array>
          </mxGeometry>
        </mxCell>
        <mxCell id="LE7nOK1s_ql1IttaSKJA-50" value="" style="endArrow=none;html=1;rounded=0;strokeColor=#7EA6E0;strokeWidth=3;align=center;verticalAlign=middle;fontFamily=Helvetica;fontSize=11;fontColor=default;labelBackgroundColor=default;" edge="1" parent="1">
          <mxGeometry width="50" height="50" relative="1" as="geometry">
            <mxPoint x="1000" y="330" as="sourcePoint" />
            <mxPoint x="620" y="440" as="targetPoint" />
            <Array as="points">
              <mxPoint x="620" y="330" />
            </Array>
          </mxGeometry>
        </mxCell>
        <mxCell id="LE7nOK1s_ql1IttaSKJA-51" value="" style="endArrow=none;html=1;rounded=0;strokeWidth=3;align=center;verticalAlign=middle;fontFamily=Helvetica;fontSize=11;fontColor=default;labelBackgroundColor=default;fillColor=#f8cecc;strokeColor=#FF66B3;" edge="1" parent="1">
          <mxGeometry width="50" height="50" relative="1" as="geometry">
            <mxPoint x="970" y="410" as="sourcePoint" />
            <mxPoint x="970" y="230" as="targetPoint" />
          </mxGeometry>
        </mxCell>
        <mxCell id="LE7nOK1s_ql1IttaSKJA-52" value="" style="endArrow=none;html=1;rounded=0;strokeColor=#82b366;strokeWidth=3;align=center;verticalAlign=middle;fontFamily=Helvetica;fontSize=11;fontColor=default;labelBackgroundColor=default;fillColor=#d5e8d4;" edge="1" parent="1">
          <mxGeometry width="50" height="50" relative="1" as="geometry">
            <mxPoint x="940" y="450" as="sourcePoint" />
            <mxPoint x="940" y="290" as="targetPoint" />
          </mxGeometry>
        </mxCell>
        <mxCell id="LE7nOK1s_ql1IttaSKJA-53" value="" style="endArrow=none;html=1;rounded=0;strokeWidth=3;fillColor=#ffe6cc;strokeColor=#d79b00;" edge="1" parent="1">
          <mxGeometry width="50" height="50" relative="1" as="geometry">
            <mxPoint x="560" y="440" as="sourcePoint" />
            <mxPoint x="900" y="260" as="targetPoint" />
            <Array as="points">
              <mxPoint x="560" y="260" />
            </Array>
          </mxGeometry>
        </mxCell>
      </root>
    </mxGraphModel>
  </diagram>
</mxfile>
